  0
SECTION
  2
ENTITIES
  0
POLYLINE
  8
ORIGINAL
 66
1
 70
1
  0
VERTEX
  8
ORIGINAL
 10
0.0000
 20
0.0000
  0
VERTEX
  8
ORIGINAL
 10
-15.8013
 20
4.0417
  0
VERTEX
  8
ORIGINAL
 10
-39.4150
 20
12.2511
  0
VERTEX
  8
ORIGINAL
 10
26.7482
 20
270.9235
  0
VERTEX
  8
ORIGINAL
 10
-8.6071
 20
235.5682
  0
SEQEND
  8
ORIGINAL
  0
POLYLINE
  8
FIXED
 66
1
 70
1
  0
VERTEX
  8
FIXED
 10
0.0000
 20
0.0000
  0
VERTEX
  8
FIXED
 10
-15.8013
 20
4.0417
  0
VERTEX
  8
FIXED
 10
-39.4150
 20
12.2511
  0
VERTEX
  8
FIXED
 10
26.7482
 20
270.9235
  0
VERTEX
  8
FIXED
 10
59.4725
 20
232.5146
  0
SEQEND
  8
FIXED
  0
ENDSEC
  0
EOF
