  0
SECTION
  2
HEADER
  9
$ACADVER
  1
AC1015
  9
$INSUNITS
 70
     2
  9
$MEASUREMENT
 70
     0
  0
ENDSEC
  0
SECTION
  2
TABLES
  0
TABLE
  2
LAYER
  0
LAYER
  2
AS-BUILT-PIPES
 70
     0
 62
     5
  6
CONTINUOUS
  0
LAYER
  2
AS-BUILT-LABELS
 70
     0
 62
     7
  6
CONTINUOUS
  0
LAYER
  2
AS-BUILT-ANNOT
 70
     0
 62
     1
  6
CONTINUOUS
  0
ENDTAB
  0
ENDSEC
  0
SECTION
  2
ENTITIES
  0
LINE
  8
AS-BUILT-PIPES
 62
     5
 10
974968.690000
 20
739982.450000
 30
0.000000
 11
974968.690000
 21
739952.450000
 31
0.000000
  0
TEXT
  8
AS-BUILT-LABELS
 10
974968.690000
 20
739967.450000
 30
0.000000
 40
0.5000
  1
8" PVC  L=30.00'  ?Z=0.00'
  0
LINE
  8
AS-BUILT-PIPES
 62
     5
 10
974968.690000
 20
740082.450000
 30
0.000000
 11
974950.100000
 21
740080.200000
 31
0.000000
  0
TEXT
  8
AS-BUILT-LABELS
 10
974959.395000
 20
740081.325000
 30
0.000000
 40
0.5000
  1
6" PVC  L=18.73'  ?Z=0.00'
  0
LINE
  8
AS-BUILT-PIPES
 62
     5
 10
974618.420000
 20
740132.450000
 30
0.000000
 11
974718.510000
 21
740132.450000
 31
0.000000
  0
TEXT
  8
AS-BUILT-LABELS
 10
974668.465000
 20
740132.450000
 30
0.000000
 40
0.5000
  1
8" PVC  L=100.09'  ?Z=0.00'
  0
LINE
  8
AS-BUILT-PIPES
 62
     5
 10
974818.600000
 20
740132.450000
 30
0.000000
 11
974918.690000
 21
740132.450000
 31
0.000000
  0
TEXT
  8
AS-BUILT-LABELS
 10
974868.645000
 20
740132.450000
 30
0.000000
 40
0.5000
  1
8" PVC  L=100.09'  ?Z=0.00'
  0
LINE
  8
AS-BUILT-PIPES
 62
     5
 10
974968.690000
 20
740082.450000
 30
0.000000
 11
974968.690000
 21
740032.450000
 31
0.000000
  0
TEXT
  8
AS-BUILT-LABELS
 10
974968.690000
 20
740057.450000
 30
0.000000
 40
0.5000
  1
8" PVC  L=50.00'  ?Z=0.00'
  0
LINE
  8
AS-BUILT-PIPES
 62
     5
 10
974818.600000
 20
740132.450000
 30
0.000000
 11
974792.000000
 21
740132.450000
 31
0.000000
  0
TEXT
  8
AS-BUILT-LABELS
 10
974805.300000
 20
740132.450000
 30
0.000000
 40
0.5000
  1
1" COPPER  L=26.60'  ?Z=0.00'
  0
LINE
  8
AS-BUILT-PIPES
 62
     5
 10
974718.510000
 20
740132.450000
 30
0.000000
 11
974818.600000
 21
740132.450000
 31
0.000000
  0
TEXT
  8
AS-BUILT-LABELS
 10
974768.555000
 20
740132.450000
 30
0.000000
 40
0.5000
  1
8" PVC  L=100.09'  ?Z=0.00'
  0
LINE
  8
AS-BUILT-PIPES
 62
     5
 10
974968.690000
 20
740032.450000
 30
0.000000
 11
974968.690000
 21
739982.450000
 31
0.000000
  0
TEXT
  8
AS-BUILT-LABELS
 10
974968.690000
 20
740007.450000
 30
0.000000
 40
0.5000
  1
8" PVC  L=50.00'  ?Z=0.00'
  0
LINE
  8
AS-BUILT-PIPES
 62
     5
 10
974518.330000
 20
740132.450000
 30
0.000000
 11
974618.420000
 21
740132.450000
 31
0.000000
  0
TEXT
  8
AS-BUILT-LABELS
 10
974568.375000
 20
740132.450000
 30
0.000000
 40
0.5000
  1
8" PVC  L=100.09'  ?Z=0.00'
  0
LINE
  8
AS-BUILT-PIPES
 62
     5
 10
974968.690000
 20
740082.450000
 30
0.000000
 11
974968.690000
 21
740082.450000
 31
0.000000
  0
TEXT
  8
AS-BUILT-LABELS
 10
974968.690000
 20
740082.450000
 30
0.000000
 40
0.5000
  1
1" COPPER  L=0.00'  ?Z=0.00'
  0
LINE
  8
AS-BUILT-PIPES
 62
     5
 10
974618.420000
 20
740132.450000
 30
0.000000
 11
974660.000000
 21
740132.450000
 31
0.000000
  0
TEXT
  8
AS-BUILT-LABELS
 10
974639.210000
 20
740132.450000
 30
0.000000
 40
0.5000
  1
1" COPPER  L=41.58'  ?Z=0.00'
  0
LINE
  8
AS-BUILT-PIPES
 62
     5
 10
974918.690000
 20
740132.450000
 30
0.000000
 11
974968.690000
 21
740082.450000
 31
0.000000
  0
TEXT
  8
AS-BUILT-LABELS
 10
974943.690000
 20
740107.450000
 30
0.000000
 40
0.5000
  1
8" PVC  L=70.71'  ?Z=0.00'
  0
LINE
  8
AS-BUILT-PIPES
 62
     5
 10
974718.510000
 20
740132.450000
 30
0.000000
 11
974720.000000
 21
740132.450000
 31
0.000000
  0
TEXT
  8
AS-BUILT-LABELS
 10
974719.255000
 20
740132.450000
 30
0.000000
 40
0.5000
  1
1" COPPER  L=1.49'  ?Z=0.00'
  0
TEXT
  8
AS-BUILT-ANNOT
 10
975340.000000
 20
739990.450000
 30
0.000000
 40
5.0000
  1
AS-BUILT STRUCTURAL PROFILES (5X VERTICAL EXAGGERATION)
  0
LINE
  8
AS-BUILT-ANNOT
 62
     1
 10
975340.000000
 20
739940.450000
 30
0.000000
 11
975390.000000
 21
739940.450000
 31
0.000000
  0
LINE
  8
AS-BUILT-ANNOT
 62
     1
 10
975340.000000
 20
739940.450000
 30
0.000000
 11
975340.000000
 21
739990.450000
 31
0.000000
  0
LINE
  8
AS-BUILT-PIPES
 62
     5
 10
975340.000000
 20
739965.450000
 30
0.000000
 11
975370.000000
 21
739965.450000
 31
0.000000
  0
TEXT
  8
AS-BUILT-ANNOT
 10
975340.000000
 20
739935.450000
 30
0.000000
 40
2.0000
  1
Profile: Run dbf028fc-869e-4fd0-9505-7edb2fbcfe17 (W) L=30.00ft
  0
TEXT
  8
AS-BUILT-LABELS
 10
975340.000000
 20
739967.450000
 30
0.000000
 40
1.0000
  1
Inv: 0.00
  0
TEXT
  8
AS-BUILT-LABELS
 10
975370.000000
 20
739967.450000
 30
0.000000
 40
1.0000
  1
Inv: 0.00
  0
LINE
  8
AS-BUILT-ANNOT
 62
     1
 10
975340.000000
 20
740040.450000
 30
0.000000
 11
975390.000000
 21
740040.450000
 31
0.000000
  0
LINE
  8
AS-BUILT-ANNOT
 62
     1
 10
975340.000000
 20
740040.450000
 30
0.000000
 11
975340.000000
 21
740090.450000
 31
0.000000
  0
LINE
  8
AS-BUILT-PIPES
 62
     5
 10
975340.000000
 20
740065.450000
 30
0.000000
 11
975358.725667
 21
740065.450000
 31
0.000000
  0
TEXT
  8
AS-BUILT-ANNOT
 10
975340.000000
 20
740035.450000
 30
0.000000
 40
2.0000
  1
Profile: Run 1dfbafb6-5a8e-402e-84bc-27a0095d044c (W) L=18.73ft
  0
TEXT
  8
AS-BUILT-LABELS
 10
975340.000000
 20
740067.450000
 30
0.000000
 40
1.0000
  1
Inv: 0.00
  0
TEXT
  8
AS-BUILT-LABELS
 10
975358.725667
 20
740067.450000
 30
0.000000
 40
1.0000
  1
Inv: 0.00
  0
LINE
  8
AS-BUILT-ANNOT
 62
     1
 10
975340.000000
 20
740140.450000
 30
0.000000
 11
975440.090000
 21
740140.450000
 31
0.000000
  0
LINE
  8
AS-BUILT-ANNOT
 62
     1
 10
975340.000000
 20
740140.450000
 30
0.000000
 11
975340.000000
 21
740190.450000
 31
0.000000
  0
LINE
  8
AS-BUILT-PIPES
 62
     5
 10
975340.000000
 20
740165.450000
 30
0.000000
 11
975440.090000
 21
740165.450000
 31
0.000000
  0
TEXT
  8
AS-BUILT-ANNOT
 10
975340.000000
 20
740135.450000
 30
0.000000
 40
2.0000
  1
Profile: Run fb0b07a2-c8e2-4685-a440-ecad4e6aeff4 (W) L=100.09ft
  0
TEXT
  8
AS-BUILT-LABELS
 10
975340.000000
 20
740167.450000
 30
0.000000
 40
1.0000
  1
Inv: 0.00
  0
TEXT
  8
AS-BUILT-LABELS
 10
975440.090000
 20
740167.450000
 30
0.000000
 40
1.0000
  1
Inv: 0.00
  0
LINE
  8
AS-BUILT-ANNOT
 62
     1
 10
975340.000000
 20
740240.450000
 30
0.000000
 11
975440.090000
 21
740240.450000
 31
0.000000
  0
LINE
  8
AS-BUILT-ANNOT
 62
     1
 10
975340.000000
 20
740240.450000
 30
0.000000
 11
975340.000000
 21
740290.450000
 31
0.000000
  0
LINE
  8
AS-BUILT-PIPES
 62
     5
 10
975340.000000
 20
740265.450000
 30
0.000000
 11
975440.090000
 21
740265.450000
 31
0.000000
  0
TEXT
  8
AS-BUILT-ANNOT
 10
975340.000000
 20
740235.450000
 30
0.000000
 40
2.0000
  1
Profile: Run a2057b34-ed06-4704-8012-225b6ed82819 (W) L=100.09ft
  0
TEXT
  8
AS-BUILT-LABELS
 10
975340.000000
 20
740267.450000
 30
0.000000
 40
1.0000
  1
Inv: 0.00
  0
TEXT
  8
AS-BUILT-LABELS
 10
975440.090000
 20
740267.450000
 30
0.000000
 40
1.0000
  1
Inv: 0.00
  0
LINE
  8
AS-BUILT-ANNOT
 62
     1
 10
975340.000000
 20
740340.450000
 30
0.000000
 11
975390.000000
 21
740340.450000
 31
0.000000
  0
LINE
  8
AS-BUILT-ANNOT
 62
     1
 10
975340.000000
 20
740340.450000
 30
0.000000
 11
975340.000000
 21
740390.450000
 31
0.000000
  0
LINE
  8
AS-BUILT-PIPES
 62
     5
 10
975340.000000
 20
740365.450000
 30
0.000000
 11
975390.000000
 21
740365.450000
 31
0.000000
  0
TEXT
  8
AS-BUILT-ANNOT
 10
975340.000000
 20
740335.450000
 30
0.000000
 40
2.0000
  1
Profile: Run 575c18a5-ddc4-4544-babe-7d05a05229ea (W) L=50.00ft
  0
TEXT
  8
AS-BUILT-LABELS
 10
975340.000000
 20
740367.450000
 30
0.000000
 40
1.0000
  1
Inv: 0.00
  0
TEXT
  8
AS-BUILT-LABELS
 10
975390.000000
 20
740367.450000
 30
0.000000
 40
1.0000
  1
Inv: 0.00
  0
LINE
  8
AS-BUILT-ANNOT
 62
     1
 10
975340.000000
 20
740440.450000
 30
0.000000
 11
975390.000000
 21
740440.450000
 31
0.000000
  0
LINE
  8
AS-BUILT-ANNOT
 62
     1
 10
975340.000000
 20
740440.450000
 30
0.000000
 11
975340.000000
 21
740490.450000
 31
0.000000
  0
LINE
  8
AS-BUILT-PIPES
 62
     5
 10
975340.000000
 20
740465.450000
 30
0.000000
 11
975366.600000
 21
740465.450000
 31
0.000000
  0
TEXT
  8
AS-BUILT-ANNOT
 10
975340.000000
 20
740435.450000
 30
0.000000
 40
2.0000
  1
Profile: Run 59665ca1-38cf-4251-af82-61152e9e3772 (W) L=26.60ft
  0
TEXT
  8
AS-BUILT-LABELS
 10
975340.000000
 20
740467.450000
 30
0.000000
 40
1.0000
  1
Inv: 0.00
  0
TEXT
  8
AS-BUILT-LABELS
 10
975366.600000
 20
740467.450000
 30
0.000000
 40
1.0000
  1
Inv: 0.00
  0
LINE
  8
AS-BUILT-ANNOT
 62
     1
 10
975340.000000
 20
740540.450000
 30
0.000000
 11
975440.090000
 21
740540.450000
 31
0.000000
  0
LINE
  8
AS-BUILT-ANNOT
 62
     1
 10
975340.000000
 20
740540.450000
 30
0.000000
 11
975340.000000
 21
740590.450000
 31
0.000000
  0
LINE
  8
AS-BUILT-PIPES
 62
     5
 10
975340.000000
 20
740565.450000
 30
0.000000
 11
975440.090000
 21
740565.450000
 31
0.000000
  0
TEXT
  8
AS-BUILT-ANNOT
 10
975340.000000
 20
740535.450000
 30
0.000000
 40
2.0000
  1
Profile: Run 1282ba0d-76f2-48ca-8d8c-014aecf77a94 (W) L=100.09ft
  0
TEXT
  8
AS-BUILT-LABELS
 10
975340.000000
 20
740567.450000
 30
0.000000
 40
1.0000
  1
Inv: 0.00
  0
TEXT
  8
AS-BUILT-LABELS
 10
975440.090000
 20
740567.450000
 30
0.000000
 40
1.0000
  1
Inv: 0.00
  0
LINE
  8
AS-BUILT-ANNOT
 62
     1
 10
975340.000000
 20
740640.450000
 30
0.000000
 11
975390.000000
 21
740640.450000
 31
0.000000
  0
LINE
  8
AS-BUILT-ANNOT
 62
     1
 10
975340.000000
 20
740640.450000
 30
0.000000
 11
975340.000000
 21
740690.450000
 31
0.000000
  0
LINE
  8
AS-BUILT-PIPES
 62
     5
 10
975340.000000
 20
740665.450000
 30
0.000000
 11
975390.000000
 21
740665.450000
 31
0.000000
  0
TEXT
  8
AS-BUILT-ANNOT
 10
975340.000000
 20
740635.450000
 30
0.000000
 40
2.0000
  1
Profile: Run 9583a367-d907-4579-aded-b126c5e40af1 (W) L=50.00ft
  0
TEXT
  8
AS-BUILT-LABELS
 10
975340.000000
 20
740667.450000
 30
0.000000
 40
1.0000
  1
Inv: 0.00
  0
TEXT
  8
AS-BUILT-LABELS
 10
975390.000000
 20
740667.450000
 30
0.000000
 40
1.0000
  1
Inv: 0.00
  0
LINE
  8
AS-BUILT-ANNOT
 62
     1
 10
975340.000000
 20
740740.450000
 30
0.000000
 11
975440.090000
 21
740740.450000
 31
0.000000
  0
LINE
  8
AS-BUILT-ANNOT
 62
     1
 10
975340.000000
 20
740740.450000
 30
0.000000
 11
975340.000000
 21
740790.450000
 31
0.000000
  0
LINE
  8
AS-BUILT-PIPES
 62
     5
 10
975340.000000
 20
740765.450000
 30
0.000000
 11
975440.090000
 21
740765.450000
 31
0.000000
  0
TEXT
  8
AS-BUILT-ANNOT
 10
975340.000000
 20
740735.450000
 30
0.000000
 40
2.0000
  1
Profile: Run f22594a2-8d2d-469a-9cee-644d058dfdb1 (W) L=100.09ft
  0
TEXT
  8
AS-BUILT-LABELS
 10
975340.000000
 20
740767.450000
 30
0.000000
 40
1.0000
  1
Inv: 0.00
  0
TEXT
  8
AS-BUILT-LABELS
 10
975440.090000
 20
740767.450000
 30
0.000000
 40
1.0000
  1
Inv: 0.00
  0
LINE
  8
AS-BUILT-ANNOT
 62
     1
 10
975340.000000
 20
740840.450000
 30
0.000000
 11
975390.000000
 21
740840.450000
 31
0.000000
  0
LINE
  8
AS-BUILT-ANNOT
 62
     1
 10
975340.000000
 20
740840.450000
 30
0.000000
 11
975340.000000
 21
740890.450000
 31
0.000000
  0
LINE
  8
AS-BUILT-PIPES
 62
     5
 10
975340.000000
 20
740865.450000
 30
0.000000
 11
975340.000000
 21
740865.450000
 31
0.000000
  0
TEXT
  8
AS-BUILT-ANNOT
 10
975340.000000
 20
740835.450000
 30
0.000000
 40
2.0000
  1
Profile: Run 6f1f76d8-f912-4823-8e0e-11b5b5d08d77 (W) L=0.00ft
  0
TEXT
  8
AS-BUILT-LABELS
 10
975340.000000
 20
740867.450000
 30
0.000000
 40
1.0000
  1
Inv: 0.00
  0
TEXT
  8
AS-BUILT-LABELS
 10
975340.000000
 20
740867.450000
 30
0.000000
 40
1.0000
  1
Inv: 0.00
  0
LINE
  8
AS-BUILT-ANNOT
 62
     1
 10
975340.000000
 20
740940.450000
 30
0.000000
 11
975390.000000
 21
740940.450000
 31
0.000000
  0
LINE
  8
AS-BUILT-ANNOT
 62
     1
 10
975340.000000
 20
740940.450000
 30
0.000000
 11
975340.000000
 21
740990.450000
 31
0.000000
  0
LINE
  8
AS-BUILT-PIPES
 62
     5
 10
975340.000000
 20
740965.450000
 30
0.000000
 11
975381.580000
 21
740965.450000
 31
0.000000
  0
TEXT
  8
AS-BUILT-ANNOT
 10
975340.000000
 20
740935.450000
 30
0.000000
 40
2.0000
  1
Profile: Run e1b87291-c06b-4aeb-894d-84a673a8bb42 (W) L=41.58ft
  0
TEXT
  8
AS-BUILT-LABELS
 10
975340.000000
 20
740967.450000
 30
0.000000
 40
1.0000
  1
Inv: 0.00
  0
TEXT
  8
AS-BUILT-LABELS
 10
975381.580000
 20
740967.450000
 30
0.000000
 40
1.0000
  1
Inv: 0.00
  0
LINE
  8
AS-BUILT-ANNOT
 62
     1
 10
975340.000000
 20
741040.450000
 30
0.000000
 11
975410.710678
 21
741040.450000
 31
0.000000
  0
LINE
  8
AS-BUILT-ANNOT
 62
     1
 10
975340.000000
 20
741040.450000
 30
0.000000
 11
975340.000000
 21
741090.450000
 31
0.000000
  0
LINE
  8
AS-BUILT-PIPES
 62
     5
 10
975340.000000
 20
741065.450000
 30
0.000000
 11
975410.710678
 21
741065.450000
 31
0.000000
  0
TEXT
  8
AS-BUILT-ANNOT
 10
975340.000000
 20
741035.450000
 30
0.000000
 40
2.0000
  1
Profile: Run 5eed54bf-5e54-468e-bf58-5a2634d99782 (W) L=70.71ft
  0
TEXT
  8
AS-BUILT-LABELS
 10
975340.000000
 20
741067.450000
 30
0.000000
 40
1.0000
  1
Inv: 0.00
  0
TEXT
  8
AS-BUILT-LABELS
 10
975410.710678
 20
741067.450000
 30
0.000000
 40
1.0000
  1
Inv: 0.00
  0
LINE
  8
AS-BUILT-ANNOT
 62
     1
 10
975340.000000
 20
741140.450000
 30
0.000000
 11
975390.000000
 21
741140.450000
 31
0.000000
  0
LINE
  8
AS-BUILT-ANNOT
 62
     1
 10
975340.000000
 20
741140.450000
 30
0.000000
 11
975340.000000
 21
741190.450000
 31
0.000000
  0
LINE
  8
AS-BUILT-PIPES
 62
     5
 10
975340.000000
 20
741165.450000
 30
0.000000
 11
975341.490000
 21
741165.450000
 31
0.000000
  0
TEXT
  8
AS-BUILT-ANNOT
 10
975340.000000
 20
741135.450000
 30
0.000000
 40
2.0000
  1
Profile: Run 88d75dc5-6eb8-49a1-8cd7-e53ebeb7a18e (W) L=1.49ft
  0
TEXT
  8
AS-BUILT-LABELS
 10
975340.000000
 20
741167.450000
 30
0.000000
 40
1.0000
  1
Inv: 0.00
  0
TEXT
  8
AS-BUILT-LABELS
 10
975341.490000
 20
741167.450000
 30
0.000000
 40
1.0000
  1
Inv: 0.00
  0
TEXT
  8
AS-BUILT-ANNOT
 10
-200.000000
 20
-44.000000
 30
0.000000
 40
1.2000
  1
JOB: JEA-OAKWOOD-PROFILE-TEST
  0
TEXT
  8
AS-BUILT-ANNOT
 10
-200.000000
 20
-45.200000
 30
0.000000
 40
1.2000
  1
CLIENT: 
  0
VIEWPORT
  8
VIEWPORTS
 67
     1
 10
17.0
 20
11.0
 30
0.0
 40
32.0
 41
20.0
 68
     2
 69
     1
 12
0.0
 22
0.0
  0
TEXT
  8
AS-BUILT-ANNOT
 67
     1
 10
31.000000
 20
3.000000
 30
0.000000
 40
0.4000
  1
BOUNDARY QC
  0
TEXT
  8
AS-BUILT-ANNOT
 67
     1
 10
31.000000
 20
2.500000
 30
0.000000
 40
0.3000
  1
JOB: JEA-OAKWOOD-PROFILE-TEST
  0
TEXT
  8
AS-BUILT-ANNOT
 67
     1
 10
31.000000
 20
2.000000
 30
0.000000
 40
0.3000
  1
CLIENT: 
  0
TEXT
  8
AS-BUILT-ANNOT
 67
     1
 10
31.000000
 20
1.500000
 30
0.000000
 40
0.3000
  1
DATE: 07/26/2026
  0
TEXT
  8
AS-BUILT-ANNOT
 67
     1
 10
31.000000
 20
1.000000
 30
0.000000
 40
0.3000
  1
DRAFTER: 
  0
TEXT
  8
AS-BUILT-ANNOT
 67
     1
 10
31.000000
 20
0.500000
 30
0.000000
 40
0.3000
  1
CHECKER: 
  0
TEXT
  8
AS-BUILT-ANNOT
 67
     1
 10
31.000000
 20
0.000000
 30
0.000000
 40
0.3000
  1
REV: 1
  0
LWPOLYLINE
  8
TITLE_BLOCK
 67
     1
 90
     4
 70
     1
 10
0.0
 20
0.0
 10
34.0
 20
0.0
 10
34.0
 20
22.0
 10
0.0
 20
22.0
  0
ENDSEC
  0
EOF
