  0
SECTION
  2
ENTITIES
  0
POLYLINE
  8
ORIGINAL
 66
1
 70
1
  0
VERTEX
  8
ORIGINAL
 10
0.0000
 20
0.0000
  0
VERTEX
  8
ORIGINAL
 10
-15.8013
 20
4.0417
  0
VERTEX
  8
ORIGINAL
 10
-39.4150
 20
12.2511
  0
VERTEX
  8
ORIGINAL
 10
26.7482
 20
270.9235
  0
VERTEX
  8
ORIGINAL
 10
-32.7243
 20
38.4090
  0
SEQEND
  8
ORIGINAL
  0
POLYLINE
  8
FIXED
 66
1
 70
1
 62
3
  0
VERTEX
  8
FIXED
 10
0.0000
 20
0.0000
  0
VERTEX
  8
FIXED
 10
-15.8013
 20
4.0417
  0
VERTEX
  8
FIXED
 10
-39.4150
 20
12.2511
  0
VERTEX
  8
FIXED
 10
26.7482
 20
270.9235
  0
VERTEX
  8
FIXED
 10
59.4725
 20
232.5146
  0
SEQEND
  8
FIXED
  0
TEXT
  8
FIXED_LABELS
 10
-7.9007
 20
2.0208
 40
2.0
  1
N75.3909W 16.31'
  0
TEXT
  8
FIXED_LABELS
 10
-27.6081
 20
8.1464
 40
2.0
  1
N70.4947W 25.00'
  0
TEXT
  8
FIXED_LABELS
 10
-6.3334
 20
141.5873
 40
2.0
  1
N14.2051E 267.00'
  0
TEXT
  8
FIXED_LABELS
 10
43.1104
 20
251.7190
 40
2.0
  1
s40.2551e 50.46' (auto-fix chord)
  0
TEXT
  8
FIXED_LABELS
 10
29.7363
 20
116.2573
 40
2.0
  1
S14.2051W 240.00'
  0
ENDSEC
  0
EOF
