0
SECTION
2
HEADER
9
$ACADVER
1
AC1009
0
ENDSEC
0
SECTION
2
BLOCKS
0
BLOCK
8
0
2
MANHOLE
70
0
10
0.0
20
0.0
30
0.0
0
CIRCLE
8
0
10
0.0000
20
0.0000
40
1.0000
0
TEXT
8
0
10
0.0000
20
0.0000
40
0.8000
1
M
0
ENDBLK
0
BLOCK
8
0
2
VALVE
70
0
10
0.0
20
0.0
30
0.0
0
LINE
8
0
10
-0.5000
20
-0.5000
11
0.5000
21
0.5000
0
LINE
8
0
10
-0.5000
20
0.5000
11
0.5000
21
-0.5000
0
LINE
8
0
10
-0.5000
20
-0.5000
11
-0.5000
21
0.5000
0
LINE
8
0
10
0.5000
20
-0.5000
11
0.5000
21
0.5000
0
ENDBLK
0
BLOCK
8
0
2
HYDRANT
70
0
10
0.0
20
0.0
30
0.0
0
CIRCLE
8
0
10
0.0000
20
0.0000
40
0.8000
0
LINE
8
0
10
-0.8000
20
0.0000
11
0.8000
21
0.0000
0
LINE
8
0
10
0.0000
20
-0.8000
11
0.0000
21
0.8000
0
ENDBLK
0
ENDSEC
0
SECTION
2
ENTITIES
0
POINT
8
POINTS
10
5000.0000
20
5000.0000
30
100.0000
0
TEXT
8
POINT_IDS
10
5001.0000
20
5001.0000
40
0.5000
1
1
0
TEXT
8
POINT_DESC
10
5001.0000
20
4999.0000
40
0.4000
1
WW Node A
0
POINT
8
POINTS
10
5150.0000
20
5000.0000
30
100.0000
0
TEXT
8
POINT_IDS
10
5151.0000
20
5001.0000
40
0.5000
1
2
0
TEXT
8
POINT_DESC
10
5151.0000
20
4999.0000
40
0.4000
1
WW Node B
0
POINT
8
POINTS
10
5300.0000
20
5000.0000
30
100.0000
0
TEXT
8
POINT_IDS
10
5301.0000
20
5001.0000
40
0.5000
1
3
0
TEXT
8
POINT_DESC
10
5301.0000
20
4999.0000
40
0.4000
1
WW Node C
0
POINT
8
POINTS
10
5000.0000
20
5050.0000
30
100.0000
0
TEXT
8
POINT_IDS
10
5001.0000
20
5051.0000
40
0.5000
1
4
0
TEXT
8
POINT_DESC
10
5001.0000
20
5049.0000
40
0.4000
1
W Node A
0
POINT
8
POINTS
10
5100.0000
20
5050.0000
30
100.0000
0
TEXT
8
POINT_IDS
10
5101.0000
20
5051.0000
40
0.5000
1
5
0
TEXT
8
POINT_DESC
10
5101.0000
20
5049.0000
40
0.4000
1
W Node B
0
POINT
8
POINTS
10
5200.0000
20
5050.0000
30
100.0000
0
TEXT
8
POINT_IDS
10
5201.0000
20
5051.0000
40
0.5000
1
6
0
TEXT
8
POINT_DESC
10
5201.0000
20
5049.0000
40
0.4000
1
Valve Point
0
POINT
8
POINTS
10
5300.0000
20
5050.0000
30
100.0000
0
TEXT
8
POINT_IDS
10
5301.0000
20
5051.0000
40
0.5000
1
7
0
TEXT
8
POINT_DESC
10
5301.0000
20
5049.0000
40
0.4000
1
W Node C
0
POINT
8
POINTS
10
5000.0000
20
4950.0000
30
98.0000
0
TEXT
8
POINT_IDS
10
5001.0000
20
4951.0000
40
0.5000
1
8
0
TEXT
8
POINT_DESC
10
5001.0000
20
4949.0000
40
0.4000
1
Storm A
0
POINT
8
POINTS
10
5150.0000
20
4950.0000
30
98.0000
0
TEXT
8
POINT_IDS
10
5151.0000
20
4951.0000
40
0.5000
1
9
0
TEXT
8
POINT_DESC
10
5151.0000
20
4949.0000
40
0.4000
1
Storm B
0
POINT
8
POINTS
10
5000.0000
20
4900.0000
30
102.0000
0
TEXT
8
POINT_IDS
10
5001.0000
20
4901.0000
40
0.5000
1
10
0
TEXT
8
POINT_DESC
10
5001.0000
20
4899.0000
40
0.4000
1
Reclaim A
0
POINT
8
POINTS
10
5200.0000
20
4900.0000
30
102.0000
0
TEXT
8
POINT_IDS
10
5201.0000
20
4901.0000
40
0.5000
1
11
0
TEXT
8
POINT_DESC
10
5201.0000
20
4899.0000
40
0.4000
1
Reclaim B
0
LINE
8
FIGURES
10
5000.0000
20
5000.0000
11
5150.0000
21
5000.0000
0
LINE
8
FIGURES
10
5150.0000
20
5000.0000
11
5300.0000
21
5000.0000
0
LINE
8
FIGURES
10
5000.0000
20
5050.0000
11
5100.0000
21
5050.0000
0
LINE
8
FIGURES
10
5100.0000
20
5050.0000
11
5200.0000
21
5050.0000
0
LINE
8
FIGURES
10
5200.0000
20
5050.0000
11
5300.0000
21
5050.0000
0
LINE
8
FIGURES
10
5000.0000
20
4950.0000
11
5150.0000
21
4950.0000
0
LINE
8
FIGURES
10
5000.0000
20
4900.0000
11
5200.0000
21
4900.0000
0
INSERT
8
STRUCTURES
2
MANHOLE
10
5000.0000
20
5000.0000
41
1.0000
42
1.0000
43
1.0000
0
INSERT
8
STRUCTURES
2
MANHOLE
10
5150.0000
20
5000.0000
41
1.0000
42
1.0000
43
1.0000
0
INSERT
8
STRUCTURES
2
MANHOLE
10
5300.0000
20
5000.0000
41
1.0000
42
1.0000
43
1.0000
0
INSERT
8
STRUCTURES
2
MANHOLE
10
5000.0000
20
5050.0000
41
1.0000
42
1.0000
43
1.0000
0
INSERT
8
STRUCTURES
2
MANHOLE
10
5100.0000
20
5050.0000
41
1.0000
42
1.0000
43
1.0000
0
INSERT
8
STRUCTURES
2
MANHOLE
10
5200.0000
20
5050.0000
41
1.0000
42
1.0000
43
1.0000
0
INSERT
8
STRUCTURES
2
MANHOLE
10
5300.0000
20
5050.0000
41
1.0000
42
1.0000
43
1.0000
0
INSERT
8
STRUCTURES
2
MANHOLE
10
5000.0000
20
4950.0000
41
1.0000
42
1.0000
43
1.0000
0
INSERT
8
STRUCTURES
2
MANHOLE
10
5150.0000
20
4950.0000
41
1.0000
42
1.0000
43
1.0000
0
INSERT
8
STRUCTURES
2
MANHOLE
10
5000.0000
20
4900.0000
41
1.0000
42
1.0000
43
1.0000
0
INSERT
8
STRUCTURES
2
MANHOLE
10
5200.0000
20
4900.0000
41
1.0000
42
1.0000
43
1.0000
0
ENDSEC
0
EOF
