0
SECTION
2
HEADER
9
$ACADVER
1
AC1009
0
ENDSEC
0
SECTION
2
BLOCKS
0
BLOCK
8
0
2
MANHOLE
70
0
10
0.0
20
0.0
30
0.0
0
CIRCLE
8
0
10
0.0000
20
0.0000
40
1.0000
0
TEXT
8
0
10
0.0000
20
0.0000
40
0.8000
1
M
0
ENDBLK
0
BLOCK
8
0
2
VALVE
70
0
10
0.0
20
0.0
30
0.0
0
LINE
8
0
10
-0.5000
20
-0.5000
11
0.5000
21
0.5000
0
LINE
8
0
10
-0.5000
20
0.5000
11
0.5000
21
-0.5000
0
LINE
8
0
10
-0.5000
20
-0.5000
11
-0.5000
21
0.5000
0
LINE
8
0
10
0.5000
20
-0.5000
11
0.5000
21
0.5000
0
ENDBLK
0
BLOCK
8
0
2
HYDRANT
70
0
10
0.0
20
0.0
30
0.0
0
CIRCLE
8
0
10
0.0000
20
0.0000
40
0.8000
0
LINE
8
0
10
-0.8000
20
0.0000
11
0.8000
21
0.0000
0
LINE
8
0
10
0.0000
20
-0.8000
11
0.0000
21
0.8000
0
ENDBLK
0
BLOCK
8
0
2
METER
70
0
10
0.0
20
0.0
30
0.0
0
LINE
8
0
10
-1.0000
20
-1.0000
11
1.0000
21
-1.0000
0
LINE
8
0
10
1.0000
20
-1.0000
11
1.0000
21
1.0000
0
LINE
8
0
10
1.0000
20
1.0000
11
-1.0000
21
1.0000
0
LINE
8
0
10
-1.0000
20
1.0000
11
-1.0000
21
-1.0000
0
TEXT
8
0
10
0.0000
20
0.0000
40
0.6000
1
Mtr
0
ENDBLK
0
BLOCK
8
0
2
BOX
70
0
10
0.0
20
0.0
30
0.0
0
LINE
8
0
10
-1.5000
20
-1.5000
11
1.5000
21
-1.5000
0
LINE
8
0
10
1.5000
20
-1.5000
11
1.5000
21
1.5000
0
LINE
8
0
10
1.5000
20
1.5000
11
-1.5000
21
1.5000
0
LINE
8
0
10
-1.5000
20
1.5000
11
-1.5000
21
-1.5000
0
LINE
8
0
10
-1.5000
20
-1.5000
11
1.5000
21
1.5000
0
LINE
8
0
10
-1.5000
20
1.5000
11
1.5000
21
-1.5000
0
ENDBLK
0
BLOCK
8
0
2
POLE
70
0
10
0.0
20
0.0
30
0.0
0
CIRCLE
8
0
10
0.0000
20
0.0000
40
0.5000
0
TEXT
8
0
10
0.0000
20
0.0000
40
0.4000
1
P
0
ENDBLK
0
BLOCK
8
0
2
FITTING
70
0
10
0.0
20
0.0
30
0.0
0
LINE
8
0
10
-0.5000
20
0.0000
11
0.5000
21
0.0000
0
LINE
8
0
10
0.0000
20
-0.5000
11
0.0000
21
0.5000
0
ENDBLK
0
ENDSEC
0
SECTION
2
ENTITIES
0
POINT
8
POINTS
10
950.0000
20
4975.0000
30
100.0000
0
TEXT
8
POINT_IDS
10
951.0000
20
4976.0000
40
0.5000
1
1
0
TEXT
8
POINT_DESC
10
951.0000
20
4974.0000
40
0.4000
1
ROW
0
POINT
8
POINTS
10
950.0000
20
5025.0000
30
100.0000
0
TEXT
8
POINT_IDS
10
951.0000
20
5026.0000
40
0.5000
1
2
0
TEXT
8
POINT_DESC
10
951.0000
20
5024.0000
40
0.4000
1
ROW
0
POINT
8
POINTS
10
1300.0000
20
4975.0000
30
100.0000
0
TEXT
8
POINT_IDS
10
1301.0000
20
4976.0000
40
0.5000
1
3
0
TEXT
8
POINT_DESC
10
1301.0000
20
4974.0000
40
0.4000
1
ROW
0
POINT
8
POINTS
10
1300.0000
20
5025.0000
30
100.0000
0
TEXT
8
POINT_IDS
10
1301.0000
20
5026.0000
40
0.5000
1
4
0
TEXT
8
POINT_DESC
10
1301.0000
20
5024.0000
40
0.4000
1
ROW
0
POINT
8
POINTS
10
1000.0000
20
5025.0000
30
100.0000
0
TEXT
8
POINT_IDS
10
1001.0000
20
5026.0000
40
0.5000
1
1001
0
TEXT
8
POINT_DESC
10
1001.0000
20
5024.0000
40
0.4000
1
CORNER
0
POINT
8
POINTS
10
1000.0000
20
5125.0000
30
100.0000
0
TEXT
8
POINT_IDS
10
1001.0000
20
5126.0000
40
0.5000
1
1002
0
TEXT
8
POINT_DESC
10
1001.0000
20
5124.0000
40
0.4000
1
CORNER
0
POINT
8
POINTS
10
1050.0000
20
5125.0000
30
100.0000
0
TEXT
8
POINT_IDS
10
1051.0000
20
5126.0000
40
0.5000
1
1003
0
TEXT
8
POINT_DESC
10
1051.0000
20
5124.0000
40
0.4000
1
CORNER
0
POINT
8
POINTS
10
1050.0000
20
5025.0000
30
100.0000
0
TEXT
8
POINT_IDS
10
1051.0000
20
5026.0000
40
0.5000
1
1004
0
TEXT
8
POINT_DESC
10
1051.0000
20
5024.0000
40
0.4000
1
CORNER
0
POINT
8
POINTS
10
1010.0000
20
5045.0000
30
101.0000
0
TEXT
8
POINT_IDS
10
1011.0000
20
5046.0000
40
0.5000
1
2001
0
TEXT
8
POINT_DESC
10
1011.0000
20
5044.0000
40
0.4000
1
BLDG
0
POINT
8
POINTS
10
1010.0000
20
5085.0000
30
101.0000
0
TEXT
8
POINT_IDS
10
1011.0000
20
5086.0000
40
0.5000
1
2002
0
TEXT
8
POINT_DESC
10
1011.0000
20
5084.0000
40
0.4000
1
BLDG
0
POINT
8
POINTS
10
1030.0000
20
5085.0000
30
101.0000
0
TEXT
8
POINT_IDS
10
1031.0000
20
5086.0000
40
0.5000
1
2003
0
TEXT
8
POINT_DESC
10
1031.0000
20
5084.0000
40
0.4000
1
BLDG
0
POINT
8
POINTS
10
1030.0000
20
5045.0000
30
101.0000
0
TEXT
8
POINT_IDS
10
1031.0000
20
5046.0000
40
0.5000
1
2004
0
TEXT
8
POINT_DESC
10
1031.0000
20
5044.0000
40
0.4000
1
BLDG
0
POINT
8
POINTS
10
1000.0000
20
4975.0000
30
100.0000
0
TEXT
8
POINT_IDS
10
1001.0000
20
4976.0000
40
0.5000
1
3001
0
TEXT
8
POINT_DESC
10
1001.0000
20
4974.0000
40
0.4000
1
CORNER
0
POINT
8
POINTS
10
1000.0000
20
4875.0000
30
100.0000
0
TEXT
8
POINT_IDS
10
1001.0000
20
4876.0000
40
0.5000
1
3002
0
TEXT
8
POINT_DESC
10
1001.0000
20
4874.0000
40
0.4000
1
CORNER
0
POINT
8
POINTS
10
1050.0000
20
4875.0000
30
100.0000
0
TEXT
8
POINT_IDS
10
1051.0000
20
4876.0000
40
0.5000
1
3003
0
TEXT
8
POINT_DESC
10
1051.0000
20
4874.0000
40
0.4000
1
CORNER
0
POINT
8
POINTS
10
1050.0000
20
4975.0000
30
100.0000
0
TEXT
8
POINT_IDS
10
1051.0000
20
4976.0000
40
0.5000
1
3004
0
TEXT
8
POINT_DESC
10
1051.0000
20
4974.0000
40
0.4000
1
CORNER
0
POINT
8
POINTS
10
1010.0000
20
4955.0000
30
101.0000
0
TEXT
8
POINT_IDS
10
1011.0000
20
4956.0000
40
0.5000
1
4001
0
TEXT
8
POINT_DESC
10
1011.0000
20
4954.0000
40
0.4000
1
BLDG
0
POINT
8
POINTS
10
1010.0000
20
4915.0000
30
101.0000
0
TEXT
8
POINT_IDS
10
1011.0000
20
4916.0000
40
0.5000
1
4002
0
TEXT
8
POINT_DESC
10
1011.0000
20
4914.0000
40
0.4000
1
BLDG
0
POINT
8
POINTS
10
1030.0000
20
4915.0000
30
101.0000
0
TEXT
8
POINT_IDS
10
1031.0000
20
4916.0000
40
0.5000
1
4003
0
TEXT
8
POINT_DESC
10
1031.0000
20
4914.0000
40
0.4000
1
BLDG
0
POINT
8
POINTS
10
1030.0000
20
4955.0000
30
101.0000
0
TEXT
8
POINT_IDS
10
1031.0000
20
4956.0000
40
0.5000
1
4004
0
TEXT
8
POINT_DESC
10
1031.0000
20
4954.0000
40
0.4000
1
BLDG
0
POINT
8
POINTS
10
1050.0000
20
5025.0000
30
100.0000
0
TEXT
8
POINT_IDS
10
1051.0000
20
5026.0000
40
0.5000
1
1011
0
TEXT
8
POINT_DESC
10
1051.0000
20
5024.0000
40
0.4000
1
CORNER
0
POINT
8
POINTS
10
1050.0000
20
5125.0000
30
100.0000
0
TEXT
8
POINT_IDS
10
1051.0000
20
5126.0000
40
0.5000
1
1012
0
TEXT
8
POINT_DESC
10
1051.0000
20
5124.0000
40
0.4000
1
CORNER
0
POINT
8
POINTS
10
1100.0000
20
5125.0000
30
100.0000
0
TEXT
8
POINT_IDS
10
1101.0000
20
5126.0000
40
0.5000
1
1013
0
TEXT
8
POINT_DESC
10
1101.0000
20
5124.0000
40
0.4000
1
CORNER
0
POINT
8
POINTS
10
1100.0000
20
5025.0000
30
100.0000
0
TEXT
8
POINT_IDS
10
1101.0000
20
5026.0000
40
0.5000
1
1014
0
TEXT
8
POINT_DESC
10
1101.0000
20
5024.0000
40
0.4000
1
CORNER
0
POINT
8
POINTS
10
1060.0000
20
5045.0000
30
101.0000
0
TEXT
8
POINT_IDS
10
1061.0000
20
5046.0000
40
0.5000
1
2011
0
TEXT
8
POINT_DESC
10
1061.0000
20
5044.0000
40
0.4000
1
BLDG
0
POINT
8
POINTS
10
1060.0000
20
5085.0000
30
101.0000
0
TEXT
8
POINT_IDS
10
1061.0000
20
5086.0000
40
0.5000
1
2012
0
TEXT
8
POINT_DESC
10
1061.0000
20
5084.0000
40
0.4000
1
BLDG
0
POINT
8
POINTS
10
1080.0000
20
5085.0000
30
101.0000
0
TEXT
8
POINT_IDS
10
1081.0000
20
5086.0000
40
0.5000
1
2013
0
TEXT
8
POINT_DESC
10
1081.0000
20
5084.0000
40
0.4000
1
BLDG
0
POINT
8
POINTS
10
1080.0000
20
5045.0000
30
101.0000
0
TEXT
8
POINT_IDS
10
1081.0000
20
5046.0000
40
0.5000
1
2014
0
TEXT
8
POINT_DESC
10
1081.0000
20
5044.0000
40
0.4000
1
BLDG
0
POINT
8
POINTS
10
1050.0000
20
4975.0000
30
100.0000
0
TEXT
8
POINT_IDS
10
1051.0000
20
4976.0000
40
0.5000
1
3011
0
TEXT
8
POINT_DESC
10
1051.0000
20
4974.0000
40
0.4000
1
CORNER
0
POINT
8
POINTS
10
1050.0000
20
4875.0000
30
100.0000
0
TEXT
8
POINT_IDS
10
1051.0000
20
4876.0000
40
0.5000
1
3012
0
TEXT
8
POINT_DESC
10
1051.0000
20
4874.0000
40
0.4000
1
CORNER
0
POINT
8
POINTS
10
1100.0000
20
4875.0000
30
100.0000
0
TEXT
8
POINT_IDS
10
1101.0000
20
4876.0000
40
0.5000
1
3013
0
TEXT
8
POINT_DESC
10
1101.0000
20
4874.0000
40
0.4000
1
CORNER
0
POINT
8
POINTS
10
1100.0000
20
4975.0000
30
100.0000
0
TEXT
8
POINT_IDS
10
1101.0000
20
4976.0000
40
0.5000
1
3014
0
TEXT
8
POINT_DESC
10
1101.0000
20
4974.0000
40
0.4000
1
CORNER
0
POINT
8
POINTS
10
1060.0000
20
4955.0000
30
101.0000
0
TEXT
8
POINT_IDS
10
1061.0000
20
4956.0000
40
0.5000
1
4011
0
TEXT
8
POINT_DESC
10
1061.0000
20
4954.0000
40
0.4000
1
BLDG
0
POINT
8
POINTS
10
1060.0000
20
4915.0000
30
101.0000
0
TEXT
8
POINT_IDS
10
1061.0000
20
4916.0000
40
0.5000
1
4012
0
TEXT
8
POINT_DESC
10
1061.0000
20
4914.0000
40
0.4000
1
BLDG
0
POINT
8
POINTS
10
1080.0000
20
4915.0000
30
101.0000
0
TEXT
8
POINT_IDS
10
1081.0000
20
4916.0000
40
0.5000
1
4013
0
TEXT
8
POINT_DESC
10
1081.0000
20
4914.0000
40
0.4000
1
BLDG
0
POINT
8
POINTS
10
1080.0000
20
4955.0000
30
101.0000
0
TEXT
8
POINT_IDS
10
1081.0000
20
4956.0000
40
0.5000
1
4014
0
TEXT
8
POINT_DESC
10
1081.0000
20
4954.0000
40
0.4000
1
BLDG
0
POINT
8
POINTS
10
1100.0000
20
5025.0000
30
100.0000
0
TEXT
8
POINT_IDS
10
1101.0000
20
5026.0000
40
0.5000
1
1021
0
TEXT
8
POINT_DESC
10
1101.0000
20
5024.0000
40
0.4000
1
CORNER
0
POINT
8
POINTS
10
1100.0000
20
5125.0000
30
100.0000
0
TEXT
8
POINT_IDS
10
1101.0000
20
5126.0000
40
0.5000
1
1022
0
TEXT
8
POINT_DESC
10
1101.0000
20
5124.0000
40
0.4000
1
CORNER
0
POINT
8
POINTS
10
1150.0000
20
5125.0000
30
100.0000
0
TEXT
8
POINT_IDS
10
1151.0000
20
5126.0000
40
0.5000
1
1023
0
TEXT
8
POINT_DESC
10
1151.0000
20
5124.0000
40
0.4000
1
CORNER
0
POINT
8
POINTS
10
1150.0000
20
5025.0000
30
100.0000
0
TEXT
8
POINT_IDS
10
1151.0000
20
5026.0000
40
0.5000
1
1024
0
TEXT
8
POINT_DESC
10
1151.0000
20
5024.0000
40
0.4000
1
CORNER
0
POINT
8
POINTS
10
1110.0000
20
5045.0000
30
101.0000
0
TEXT
8
POINT_IDS
10
1111.0000
20
5046.0000
40
0.5000
1
2021
0
TEXT
8
POINT_DESC
10
1111.0000
20
5044.0000
40
0.4000
1
BLDG
0
POINT
8
POINTS
10
1110.0000
20
5085.0000
30
101.0000
0
TEXT
8
POINT_IDS
10
1111.0000
20
5086.0000
40
0.5000
1
2022
0
TEXT
8
POINT_DESC
10
1111.0000
20
5084.0000
40
0.4000
1
BLDG
0
POINT
8
POINTS
10
1130.0000
20
5085.0000
30
101.0000
0
TEXT
8
POINT_IDS
10
1131.0000
20
5086.0000
40
0.5000
1
2023
0
TEXT
8
POINT_DESC
10
1131.0000
20
5084.0000
40
0.4000
1
BLDG
0
POINT
8
POINTS
10
1130.0000
20
5045.0000
30
101.0000
0
TEXT
8
POINT_IDS
10
1131.0000
20
5046.0000
40
0.5000
1
2024
0
TEXT
8
POINT_DESC
10
1131.0000
20
5044.0000
40
0.4000
1
BLDG
0
POINT
8
POINTS
10
1100.0000
20
4975.0000
30
100.0000
0
TEXT
8
POINT_IDS
10
1101.0000
20
4976.0000
40
0.5000
1
3021
0
TEXT
8
POINT_DESC
10
1101.0000
20
4974.0000
40
0.4000
1
CORNER
0
POINT
8
POINTS
10
1100.0000
20
4875.0000
30
100.0000
0
TEXT
8
POINT_IDS
10
1101.0000
20
4876.0000
40
0.5000
1
3022
0
TEXT
8
POINT_DESC
10
1101.0000
20
4874.0000
40
0.4000
1
CORNER
0
POINT
8
POINTS
10
1150.0000
20
4875.0000
30
100.0000
0
TEXT
8
POINT_IDS
10
1151.0000
20
4876.0000
40
0.5000
1
3023
0
TEXT
8
POINT_DESC
10
1151.0000
20
4874.0000
40
0.4000
1
CORNER
0
POINT
8
POINTS
10
1150.0000
20
4975.0000
30
100.0000
0
TEXT
8
POINT_IDS
10
1151.0000
20
4976.0000
40
0.5000
1
3024
0
TEXT
8
POINT_DESC
10
1151.0000
20
4974.0000
40
0.4000
1
CORNER
0
POINT
8
POINTS
10
1110.0000
20
4955.0000
30
101.0000
0
TEXT
8
POINT_IDS
10
1111.0000
20
4956.0000
40
0.5000
1
4021
0
TEXT
8
POINT_DESC
10
1111.0000
20
4954.0000
40
0.4000
1
BLDG
0
POINT
8
POINTS
10
1110.0000
20
4915.0000
30
101.0000
0
TEXT
8
POINT_IDS
10
1111.0000
20
4916.0000
40
0.5000
1
4022
0
TEXT
8
POINT_DESC
10
1111.0000
20
4914.0000
40
0.4000
1
BLDG
0
POINT
8
POINTS
10
1130.0000
20
4915.0000
30
101.0000
0
TEXT
8
POINT_IDS
10
1131.0000
20
4916.0000
40
0.5000
1
4023
0
TEXT
8
POINT_DESC
10
1131.0000
20
4914.0000
40
0.4000
1
BLDG
0
POINT
8
POINTS
10
1130.0000
20
4955.0000
30
101.0000
0
TEXT
8
POINT_IDS
10
1131.0000
20
4956.0000
40
0.5000
1
4024
0
TEXT
8
POINT_DESC
10
1131.0000
20
4954.0000
40
0.4000
1
BLDG
0
POINT
8
POINTS
10
1150.0000
20
5025.0000
30
100.0000
0
TEXT
8
POINT_IDS
10
1151.0000
20
5026.0000
40
0.5000
1
1031
0
TEXT
8
POINT_DESC
10
1151.0000
20
5024.0000
40
0.4000
1
CORNER
0
POINT
8
POINTS
10
1150.0000
20
5125.0000
30
100.0000
0
TEXT
8
POINT_IDS
10
1151.0000
20
5126.0000
40
0.5000
1
1032
0
TEXT
8
POINT_DESC
10
1151.0000
20
5124.0000
40
0.4000
1
CORNER
0
POINT
8
POINTS
10
1200.0000
20
5125.0000
30
100.0000
0
TEXT
8
POINT_IDS
10
1201.0000
20
5126.0000
40
0.5000
1
1033
0
TEXT
8
POINT_DESC
10
1201.0000
20
5124.0000
40
0.4000
1
CORNER
0
POINT
8
POINTS
10
1200.0000
20
5025.0000
30
100.0000
0
TEXT
8
POINT_IDS
10
1201.0000
20
5026.0000
40
0.5000
1
1034
0
TEXT
8
POINT_DESC
10
1201.0000
20
5024.0000
40
0.4000
1
CORNER
0
POINT
8
POINTS
10
1160.0000
20
5045.0000
30
101.0000
0
TEXT
8
POINT_IDS
10
1161.0000
20
5046.0000
40
0.5000
1
2031
0
TEXT
8
POINT_DESC
10
1161.0000
20
5044.0000
40
0.4000
1
BLDG
0
POINT
8
POINTS
10
1160.0000
20
5085.0000
30
101.0000
0
TEXT
8
POINT_IDS
10
1161.0000
20
5086.0000
40
0.5000
1
2032
0
TEXT
8
POINT_DESC
10
1161.0000
20
5084.0000
40
0.4000
1
BLDG
0
POINT
8
POINTS
10
1180.0000
20
5085.0000
30
101.0000
0
TEXT
8
POINT_IDS
10
1181.0000
20
5086.0000
40
0.5000
1
2033
0
TEXT
8
POINT_DESC
10
1181.0000
20
5084.0000
40
0.4000
1
BLDG
0
POINT
8
POINTS
10
1180.0000
20
5045.0000
30
101.0000
0
TEXT
8
POINT_IDS
10
1181.0000
20
5046.0000
40
0.5000
1
2034
0
TEXT
8
POINT_DESC
10
1181.0000
20
5044.0000
40
0.4000
1
BLDG
0
POINT
8
POINTS
10
1150.0000
20
4975.0000
30
100.0000
0
TEXT
8
POINT_IDS
10
1151.0000
20
4976.0000
40
0.5000
1
3031
0
TEXT
8
POINT_DESC
10
1151.0000
20
4974.0000
40
0.4000
1
CORNER
0
POINT
8
POINTS
10
1150.0000
20
4875.0000
30
100.0000
0
TEXT
8
POINT_IDS
10
1151.0000
20
4876.0000
40
0.5000
1
3032
0
TEXT
8
POINT_DESC
10
1151.0000
20
4874.0000
40
0.4000
1
CORNER
0
POINT
8
POINTS
10
1200.0000
20
4875.0000
30
100.0000
0
TEXT
8
POINT_IDS
10
1201.0000
20
4876.0000
40
0.5000
1
3033
0
TEXT
8
POINT_DESC
10
1201.0000
20
4874.0000
40
0.4000
1
CORNER
0
POINT
8
POINTS
10
1200.0000
20
4975.0000
30
100.0000
0
TEXT
8
POINT_IDS
10
1201.0000
20
4976.0000
40
0.5000
1
3034
0
TEXT
8
POINT_DESC
10
1201.0000
20
4974.0000
40
0.4000
1
CORNER
0
POINT
8
POINTS
10
1160.0000
20
4955.0000
30
101.0000
0
TEXT
8
POINT_IDS
10
1161.0000
20
4956.0000
40
0.5000
1
4031
0
TEXT
8
POINT_DESC
10
1161.0000
20
4954.0000
40
0.4000
1
BLDG
0
POINT
8
POINTS
10
1160.0000
20
4915.0000
30
101.0000
0
TEXT
8
POINT_IDS
10
1161.0000
20
4916.0000
40
0.5000
1
4032
0
TEXT
8
POINT_DESC
10
1161.0000
20
4914.0000
40
0.4000
1
BLDG
0
POINT
8
POINTS
10
1180.0000
20
4915.0000
30
101.0000
0
TEXT
8
POINT_IDS
10
1181.0000
20
4916.0000
40
0.5000
1
4033
0
TEXT
8
POINT_DESC
10
1181.0000
20
4914.0000
40
0.4000
1
BLDG
0
POINT
8
POINTS
10
1180.0000
20
4955.0000
30
101.0000
0
TEXT
8
POINT_IDS
10
1181.0000
20
4956.0000
40
0.5000
1
4034
0
TEXT
8
POINT_DESC
10
1181.0000
20
4954.0000
40
0.4000
1
BLDG
0
POINT
8
POINTS
10
1200.0000
20
5025.0000
30
100.0000
0
TEXT
8
POINT_IDS
10
1201.0000
20
5026.0000
40
0.5000
1
1041
0
TEXT
8
POINT_DESC
10
1201.0000
20
5024.0000
40
0.4000
1
CORNER
0
POINT
8
POINTS
10
1200.0000
20
5125.0000
30
100.0000
0
TEXT
8
POINT_IDS
10
1201.0000
20
5126.0000
40
0.5000
1
1042
0
TEXT
8
POINT_DESC
10
1201.0000
20
5124.0000
40
0.4000
1
CORNER
0
POINT
8
POINTS
10
1250.0000
20
5125.0000
30
100.0000
0
TEXT
8
POINT_IDS
10
1251.0000
20
5126.0000
40
0.5000
1
1043
0
TEXT
8
POINT_DESC
10
1251.0000
20
5124.0000
40
0.4000
1
CORNER
0
POINT
8
POINTS
10
1250.0000
20
5025.0000
30
100.0000
0
TEXT
8
POINT_IDS
10
1251.0000
20
5026.0000
40
0.5000
1
1044
0
TEXT
8
POINT_DESC
10
1251.0000
20
5024.0000
40
0.4000
1
CORNER
0
POINT
8
POINTS
10
1210.0000
20
5045.0000
30
101.0000
0
TEXT
8
POINT_IDS
10
1211.0000
20
5046.0000
40
0.5000
1
2041
0
TEXT
8
POINT_DESC
10
1211.0000
20
5044.0000
40
0.4000
1
BLDG
0
POINT
8
POINTS
10
1210.0000
20
5085.0000
30
101.0000
0
TEXT
8
POINT_IDS
10
1211.0000
20
5086.0000
40
0.5000
1
2042
0
TEXT
8
POINT_DESC
10
1211.0000
20
5084.0000
40
0.4000
1
BLDG
0
POINT
8
POINTS
10
1230.0000
20
5085.0000
30
101.0000
0
TEXT
8
POINT_IDS
10
1231.0000
20
5086.0000
40
0.5000
1
2043
0
TEXT
8
POINT_DESC
10
1231.0000
20
5084.0000
40
0.4000
1
BLDG
0
POINT
8
POINTS
10
1230.0000
20
5045.0000
30
101.0000
0
TEXT
8
POINT_IDS
10
1231.0000
20
5046.0000
40
0.5000
1
2044
0
TEXT
8
POINT_DESC
10
1231.0000
20
5044.0000
40
0.4000
1
BLDG
0
POINT
8
POINTS
10
1200.0000
20
4975.0000
30
100.0000
0
TEXT
8
POINT_IDS
10
1201.0000
20
4976.0000
40
0.5000
1
3041
0
TEXT
8
POINT_DESC
10
1201.0000
20
4974.0000
40
0.4000
1
CORNER
0
POINT
8
POINTS
10
1200.0000
20
4875.0000
30
100.0000
0
TEXT
8
POINT_IDS
10
1201.0000
20
4876.0000
40
0.5000
1
3042
0
TEXT
8
POINT_DESC
10
1201.0000
20
4874.0000
40
0.4000
1
CORNER
0
POINT
8
POINTS
10
1250.0000
20
4875.0000
30
100.0000
0
TEXT
8
POINT_IDS
10
1251.0000
20
4876.0000
40
0.5000
1
3043
0
TEXT
8
POINT_DESC
10
1251.0000
20
4874.0000
40
0.4000
1
CORNER
0
POINT
8
POINTS
10
1250.0000
20
4975.0000
30
100.0000
0
TEXT
8
POINT_IDS
10
1251.0000
20
4976.0000
40
0.5000
1
3044
0
TEXT
8
POINT_DESC
10
1251.0000
20
4974.0000
40
0.4000
1
CORNER
0
POINT
8
POINTS
10
1210.0000
20
4955.0000
30
101.0000
0
TEXT
8
POINT_IDS
10
1211.0000
20
4956.0000
40
0.5000
1
4041
0
TEXT
8
POINT_DESC
10
1211.0000
20
4954.0000
40
0.4000
1
BLDG
0
POINT
8
POINTS
10
1210.0000
20
4915.0000
30
101.0000
0
TEXT
8
POINT_IDS
10
1211.0000
20
4916.0000
40
0.5000
1
4042
0
TEXT
8
POINT_DESC
10
1211.0000
20
4914.0000
40
0.4000
1
BLDG
0
POINT
8
POINTS
10
1230.0000
20
4915.0000
30
101.0000
0
TEXT
8
POINT_IDS
10
1231.0000
20
4916.0000
40
0.5000
1
4043
0
TEXT
8
POINT_DESC
10
1231.0000
20
4914.0000
40
0.4000
1
BLDG
0
POINT
8
POINTS
10
1230.0000
20
4955.0000
30
101.0000
0
TEXT
8
POINT_IDS
10
1231.0000
20
4956.0000
40
0.5000
1
4044
0
TEXT
8
POINT_DESC
10
1231.0000
20
4954.0000
40
0.4000
1
BLDG
0
POINT
8
POINTS
10
950.0000
20
5000.0000
30
98.0000
0
TEXT
8
POINT_IDS
10
951.0000
20
5001.0000
40
0.5000
1
100
0
TEXT
8
POINT_DESC
10
951.0000
20
4999.0000
40
0.4000
1
WM
0
POINT
8
POINTS
10
1000.0000
20
5000.0000
30
98.0000
0
TEXT
8
POINT_IDS
10
1001.0000
20
5001.0000
40
0.5000
1
121
0
TEXT
8
POINT_DESC
10
1001.0000
20
4999.0000
40
0.4000
1
WF // Added: Subdivision South Hydrant Tapping Tee
0
POINT
8
POINTS
10
1020.0000
20
5000.0000
30
98.0000
0
TEXT
8
POINT_IDS
10
1021.0000
20
5001.0000
40
0.5000
1
101
0
TEXT
8
POINT_DESC
10
1021.0000
20
4999.0000
40
0.4000
1
WF
0
POINT
8
POINTS
10
1020.0000
20
5025.0000
30
100.0000
0
TEXT
8
POINT_IDS
10
1021.0000
20
5026.0000
40
0.5000
1
301
0
TEXT
8
POINT_DESC
10
1021.0000
20
5024.0000
40
0.4000
1
WMET
0
POINT
8
POINTS
10
1020.0000
20
5045.0000
30
101.0000
0
TEXT
8
POINT_IDS
10
1021.0000
20
5046.0000
40
0.5000
1
311
0
TEXT
8
POINT_DESC
10
1021.0000
20
5044.0000
40
0.4000
1
WAT
0
POINT
8
POINTS
10
1020.0000
20
4975.0000
30
100.0000
0
TEXT
8
POINT_IDS
10
1021.0000
20
4976.0000
40
0.5000
1
306
0
TEXT
8
POINT_DESC
10
1021.0000
20
4974.0000
40
0.4000
1
WMET
0
POINT
8
POINTS
10
1020.0000
20
4955.0000
30
101.0000
0
TEXT
8
POINT_IDS
10
1021.0000
20
4956.0000
40
0.5000
1
316
0
TEXT
8
POINT_DESC
10
1021.0000
20
4954.0000
40
0.4000
1
WAT
0
POINT
8
POINTS
10
1070.0000
20
5000.0000
30
98.0000
0
TEXT
8
POINT_IDS
10
1071.0000
20
5001.0000
40
0.5000
1
102
0
TEXT
8
POINT_DESC
10
1071.0000
20
4999.0000
40
0.4000
1
WF
0
POINT
8
POINTS
10
1070.0000
20
5025.0000
30
100.0000
0
TEXT
8
POINT_IDS
10
1071.0000
20
5026.0000
40
0.5000
1
302
0
TEXT
8
POINT_DESC
10
1071.0000
20
5024.0000
40
0.4000
1
WMET
0
POINT
8
POINTS
10
1070.0000
20
5045.0000
30
101.0000
0
TEXT
8
POINT_IDS
10
1071.0000
20
5046.0000
40
0.5000
1
312
0
TEXT
8
POINT_DESC
10
1071.0000
20
5044.0000
40
0.4000
1
WAT
0
POINT
8
POINTS
10
1070.0000
20
4975.0000
30
100.0000
0
TEXT
8
POINT_IDS
10
1071.0000
20
4976.0000
40
0.5000
1
307
0
TEXT
8
POINT_DESC
10
1071.0000
20
4974.0000
40
0.4000
1
WMET
0
POINT
8
POINTS
10
1070.0000
20
4955.0000
30
101.0000
0
TEXT
8
POINT_IDS
10
1071.0000
20
4956.0000
40
0.5000
1
317
0
TEXT
8
POINT_DESC
10
1071.0000
20
4954.0000
40
0.4000
1
WAT
0
POINT
8
POINTS
10
1120.0000
20
5000.0000
30
98.0000
0
TEXT
8
POINT_IDS
10
1121.0000
20
5001.0000
40
0.5000
1
103
0
TEXT
8
POINT_DESC
10
1121.0000
20
4999.0000
40
0.4000
1
WF
0
POINT
8
POINTS
10
1120.0000
20
5025.0000
30
100.0000
0
TEXT
8
POINT_IDS
10
1121.0000
20
5026.0000
40
0.5000
1
303
0
TEXT
8
POINT_DESC
10
1121.0000
20
5024.0000
40
0.4000
1
WMET
0
POINT
8
POINTS
10
1120.0000
20
5045.0000
30
101.0000
0
TEXT
8
POINT_IDS
10
1121.0000
20
5046.0000
40
0.5000
1
313
0
TEXT
8
POINT_DESC
10
1121.0000
20
5044.0000
40
0.4000
1
WAT
0
POINT
8
POINTS
10
1120.0000
20
4975.0000
30
100.0000
0
TEXT
8
POINT_IDS
10
1121.0000
20
4976.0000
40
0.5000
1
308
0
TEXT
8
POINT_DESC
10
1121.0000
20
4974.0000
40
0.4000
1
WMET
0
POINT
8
POINTS
10
1120.0000
20
4955.0000
30
101.0000
0
TEXT
8
POINT_IDS
10
1121.0000
20
4956.0000
40
0.5000
1
318
0
TEXT
8
POINT_DESC
10
1121.0000
20
4954.0000
40
0.4000
1
WAT
0
POINT
8
POINTS
10
1170.0000
20
5000.0000
30
98.0000
0
TEXT
8
POINT_IDS
10
1171.0000
20
5001.0000
40
0.5000
1
104
0
TEXT
8
POINT_DESC
10
1171.0000
20
4999.0000
40
0.4000
1
WF
0
POINT
8
POINTS
10
1170.0000
20
5025.0000
30
100.0000
0
TEXT
8
POINT_IDS
10
1171.0000
20
5026.0000
40
0.5000
1
304
0
TEXT
8
POINT_DESC
10
1171.0000
20
5024.0000
40
0.4000
1
WMET
0
POINT
8
POINTS
10
1170.0000
20
5045.0000
30
101.0000
0
TEXT
8
POINT_IDS
10
1171.0000
20
5046.0000
40
0.5000
1
314
0
TEXT
8
POINT_DESC
10
1171.0000
20
5044.0000
40
0.4000
1
WAT
0
POINT
8
POINTS
10
1170.0000
20
4975.0000
30
100.0000
0
TEXT
8
POINT_IDS
10
1171.0000
20
4976.0000
40
0.5000
1
309
0
TEXT
8
POINT_DESC
10
1171.0000
20
4974.0000
40
0.4000
1
WMET
0
POINT
8
POINTS
10
1170.0000
20
4955.0000
30
101.0000
0
TEXT
8
POINT_IDS
10
1171.0000
20
4956.0000
40
0.5000
1
319
0
TEXT
8
POINT_DESC
10
1171.0000
20
4954.0000
40
0.4000
1
WAT
0
POINT
8
POINTS
10
1220.0000
20
5000.0000
30
98.0000
0
TEXT
8
POINT_IDS
10
1221.0000
20
5001.0000
40
0.5000
1
105
0
TEXT
8
POINT_DESC
10
1221.0000
20
4999.0000
40
0.4000
1
WF
0
POINT
8
POINTS
10
1220.0000
20
5025.0000
30
100.0000
0
TEXT
8
POINT_IDS
10
1221.0000
20
5026.0000
40
0.5000
1
305
0
TEXT
8
POINT_DESC
10
1221.0000
20
5024.0000
40
0.4000
1
WMET
0
POINT
8
POINTS
10
1220.0000
20
5045.0000
30
101.0000
0
TEXT
8
POINT_IDS
10
1221.0000
20
5046.0000
40
0.5000
1
315
0
TEXT
8
POINT_DESC
10
1221.0000
20
5044.0000
40
0.4000
1
WAT
0
POINT
8
POINTS
10
1220.0000
20
4975.0000
30
100.0000
0
TEXT
8
POINT_IDS
10
1221.0000
20
4976.0000
40
0.5000
1
310
0
TEXT
8
POINT_DESC
10
1221.0000
20
4974.0000
40
0.4000
1
WMET
0
POINT
8
POINTS
10
1220.0000
20
4955.0000
30
101.0000
0
TEXT
8
POINT_IDS
10
1221.0000
20
4956.0000
40
0.5000
1
320
0
TEXT
8
POINT_DESC
10
1221.0000
20
4954.0000
40
0.4000
1
WAT
0
POINT
8
POINTS
10
1250.0000
20
5000.0000
30
98.0000
0
TEXT
8
POINT_IDS
10
1251.0000
20
5001.0000
40
0.5000
1
120
0
TEXT
8
POINT_DESC
10
1251.0000
20
4999.0000
40
0.4000
1
WF // Added: Subdivision North Hydrant Tapping Tee
0
POINT
8
POINTS
10
1300.0000
20
5000.0000
30
98.0000
0
TEXT
8
POINT_IDS
10
1301.0000
20
5001.0000
40
0.5000
1
106
0
TEXT
8
POINT_DESC
10
1301.0000
20
4999.0000
40
0.4000
1
WM
0
POINT
8
POINTS
10
1250.0000
20
5010.0000
30
98.0000
0
TEXT
8
POINT_IDS
10
1251.0000
20
5011.0000
40
0.5000
1
130
0
TEXT
8
POINT_DESC
10
1251.0000
20
5009.0000
40
0.4000
1
WV // NE Valve
0
POINT
8
POINTS
10
1250.0000
20
5125.0000
30
98.0000
0
TEXT
8
POINT_IDS
10
1251.0000
20
5126.0000
40
0.5000
1
131
0
TEXT
8
POINT_DESC
10
1251.0000
20
5124.0000
40
0.4000
1
HYD // NE Hydrant
0
POINT
8
POINTS
10
1250.0000
20
4990.0000
30
98.0000
0
TEXT
8
POINT_IDS
10
1251.0000
20
4991.0000
40
0.5000
1
132
0
TEXT
8
POINT_DESC
10
1251.0000
20
4989.0000
40
0.4000
1
WV // NW Valve
0
POINT
8
POINTS
10
1250.0000
20
4875.0000
30
98.0000
0
TEXT
8
POINT_IDS
10
1251.0000
20
4876.0000
40
0.5000
1
133
0
TEXT
8
POINT_DESC
10
1251.0000
20
4874.0000
40
0.4000
1
HYD // NW Hydrant
0
POINT
8
POINTS
10
1000.0000
20
5010.0000
30
98.0000
0
TEXT
8
POINT_IDS
10
1001.0000
20
5011.0000
40
0.5000
1
134
0
TEXT
8
POINT_DESC
10
1001.0000
20
5009.0000
40
0.4000
1
WV // SE Valve
0
POINT
8
POINTS
10
1000.0000
20
5125.0000
30
98.0000
0
TEXT
8
POINT_IDS
10
1001.0000
20
5126.0000
40
0.5000
1
135
0
TEXT
8
POINT_DESC
10
1001.0000
20
5124.0000
40
0.4000
1
HYD // SE Hydrant
0
POINT
8
POINTS
10
1000.0000
20
4990.0000
30
98.0000
0
TEXT
8
POINT_IDS
10
1001.0000
20
4991.0000
40
0.5000
1
136
0
TEXT
8
POINT_DESC
10
1001.0000
20
4989.0000
40
0.4000
1
WV // SW Valve
0
POINT
8
POINTS
10
1000.0000
20
4875.0000
30
98.0000
0
TEXT
8
POINT_IDS
10
1001.0000
20
4876.0000
40
0.5000
1
137
0
TEXT
8
POINT_DESC
10
1001.0000
20
4874.0000
40
0.4000
1
HYD // SW Hydrant
0
POINT
8
POINTS
10
1300.0000
20
4990.0000
30
90.0000
0
TEXT
8
POINT_IDS
10
1301.0000
20
4991.0000
40
0.5000
1
200
0
TEXT
8
POINT_DESC
10
1301.0000
20
4989.0000
40
0.4000
1
WWM
0
POINT
8
POINTS
10
1210.0000
20
4990.0000
30
89.5000
0
TEXT
8
POINT_IDS
10
1211.0000
20
4991.0000
40
0.5000
1
201
0
TEXT
8
POINT_DESC
10
1211.0000
20
4989.0000
40
0.4000
1
WWM
0
POINT
8
POINTS
10
1210.0000
20
5025.0000
30
90.5000
0
TEXT
8
POINT_IDS
10
1211.0000
20
5026.0000
40
0.5000
1
405
0
TEXT
8
POINT_DESC
10
1211.0000
20
5024.0000
40
0.4000
1
SEW
0
POINT
8
POINTS
10
1210.0000
20
5045.0000
30
92.5000
0
TEXT
8
POINT_IDS
10
1211.0000
20
5046.0000
40
0.5000
1
415
0
TEXT
8
POINT_DESC
10
1211.0000
20
5044.0000
40
0.4000
1
SEW
0
POINT
8
POINTS
10
1210.0000
20
4975.0000
30
90.5000
0
TEXT
8
POINT_IDS
10
1211.0000
20
4976.0000
40
0.5000
1
410
0
TEXT
8
POINT_DESC
10
1211.0000
20
4974.0000
40
0.4000
1
SEW
0
POINT
8
POINTS
10
1210.0000
20
4955.0000
30
92.5000
0
TEXT
8
POINT_IDS
10
1211.0000
20
4956.0000
40
0.5000
1
420
0
TEXT
8
POINT_DESC
10
1211.0000
20
4954.0000
40
0.4000
1
SEW
0
POINT
8
POINTS
10
1160.0000
20
4990.0000
30
89.0000
0
TEXT
8
POINT_IDS
10
1161.0000
20
4991.0000
40
0.5000
1
202
0
TEXT
8
POINT_DESC
10
1161.0000
20
4989.0000
40
0.4000
1
WWM
0
POINT
8
POINTS
10
1160.0000
20
5025.0000
30
90.0000
0
TEXT
8
POINT_IDS
10
1161.0000
20
5026.0000
40
0.5000
1
404
0
TEXT
8
POINT_DESC
10
1161.0000
20
5024.0000
40
0.4000
1
SEW
0
POINT
8
POINTS
10
1160.0000
20
5045.0000
30
92.0000
0
TEXT
8
POINT_IDS
10
1161.0000
20
5046.0000
40
0.5000
1
414
0
TEXT
8
POINT_DESC
10
1161.0000
20
5044.0000
40
0.4000
1
SEW
0
POINT
8
POINTS
10
1160.0000
20
4975.0000
30
90.0000
0
TEXT
8
POINT_IDS
10
1161.0000
20
4976.0000
40
0.5000
1
409
0
TEXT
8
POINT_DESC
10
1161.0000
20
4974.0000
40
0.4000
1
SEW
0
POINT
8
POINTS
10
1160.0000
20
4955.0000
30
92.0000
0
TEXT
8
POINT_IDS
10
1161.0000
20
4956.0000
40
0.5000
1
419
0
TEXT
8
POINT_DESC
10
1161.0000
20
4954.0000
40
0.4000
1
SEW
0
POINT
8
POINTS
10
1110.0000
20
4990.0000
30
88.5000
0
TEXT
8
POINT_IDS
10
1111.0000
20
4991.0000
40
0.5000
1
203
0
TEXT
8
POINT_DESC
10
1111.0000
20
4989.0000
40
0.4000
1
WWM
0
POINT
8
POINTS
10
1110.0000
20
5025.0000
30
89.5000
0
TEXT
8
POINT_IDS
10
1111.0000
20
5026.0000
40
0.5000
1
403
0
TEXT
8
POINT_DESC
10
1111.0000
20
5024.0000
40
0.4000
1
SEW
0
POINT
8
POINTS
10
1110.0000
20
5045.0000
30
91.5000
0
TEXT
8
POINT_IDS
10
1111.0000
20
5046.0000
40
0.5000
1
413
0
TEXT
8
POINT_DESC
10
1111.0000
20
5044.0000
40
0.4000
1
SEW
0
POINT
8
POINTS
10
1110.0000
20
4975.0000
30
89.5000
0
TEXT
8
POINT_IDS
10
1111.0000
20
4976.0000
40
0.5000
1
408
0
TEXT
8
POINT_DESC
10
1111.0000
20
4974.0000
40
0.4000
1
SEW
0
POINT
8
POINTS
10
1110.0000
20
4955.0000
30
91.5000
0
TEXT
8
POINT_IDS
10
1111.0000
20
4956.0000
40
0.5000
1
418
0
TEXT
8
POINT_DESC
10
1111.0000
20
4954.0000
40
0.4000
1
SEW
0
POINT
8
POINTS
10
1060.0000
20
4990.0000
30
88.0000
0
TEXT
8
POINT_IDS
10
1061.0000
20
4991.0000
40
0.5000
1
204
0
TEXT
8
POINT_DESC
10
1061.0000
20
4989.0000
40
0.4000
1
WWM
0
POINT
8
POINTS
10
1060.0000
20
5025.0000
30
89.0000
0
TEXT
8
POINT_IDS
10
1061.0000
20
5026.0000
40
0.5000
1
402
0
TEXT
8
POINT_DESC
10
1061.0000
20
5024.0000
40
0.4000
1
SEW
0
POINT
8
POINTS
10
1060.0000
20
5045.0000
30
91.0000
0
TEXT
8
POINT_IDS
10
1061.0000
20
5046.0000
40
0.5000
1
412
0
TEXT
8
POINT_DESC
10
1061.0000
20
5044.0000
40
0.4000
1
SEW
0
POINT
8
POINTS
10
1060.0000
20
4975.0000
30
89.0000
0
TEXT
8
POINT_IDS
10
1061.0000
20
4976.0000
40
0.5000
1
407
0
TEXT
8
POINT_DESC
10
1061.0000
20
4974.0000
40
0.4000
1
SEW
0
POINT
8
POINTS
10
1060.0000
20
4955.0000
30
91.0000
0
TEXT
8
POINT_IDS
10
1061.0000
20
4956.0000
40
0.5000
1
417
0
TEXT
8
POINT_DESC
10
1061.0000
20
4954.0000
40
0.4000
1
SEW
0
POINT
8
POINTS
10
1010.0000
20
4990.0000
30
87.5000
0
TEXT
8
POINT_IDS
10
1011.0000
20
4991.0000
40
0.5000
1
205
0
TEXT
8
POINT_DESC
10
1011.0000
20
4989.0000
40
0.4000
1
WWM
0
POINT
8
POINTS
10
1010.0000
20
5025.0000
30
88.5000
0
TEXT
8
POINT_IDS
10
1011.0000
20
5026.0000
40
0.5000
1
401
0
TEXT
8
POINT_DESC
10
1011.0000
20
5024.0000
40
0.4000
1
SEW
0
POINT
8
POINTS
10
1010.0000
20
5045.0000
30
90.5000
0
TEXT
8
POINT_IDS
10
1011.0000
20
5046.0000
40
0.5000
1
411
0
TEXT
8
POINT_DESC
10
1011.0000
20
5044.0000
40
0.4000
1
SEW
0
POINT
8
POINTS
10
1010.0000
20
4975.0000
30
88.5000
0
TEXT
8
POINT_IDS
10
1011.0000
20
4976.0000
40
0.5000
1
406
0
TEXT
8
POINT_DESC
10
1011.0000
20
4974.0000
40
0.4000
1
SEW
0
POINT
8
POINTS
10
1010.0000
20
4955.0000
30
90.5000
0
TEXT
8
POINT_IDS
10
1011.0000
20
4956.0000
40
0.5000
1
416
0
TEXT
8
POINT_DESC
10
1011.0000
20
4954.0000
40
0.4000
1
SEW
0
POINT
8
POINTS
10
950.0000
20
4990.0000
30
87.0000
0
TEXT
8
POINT_IDS
10
951.0000
20
4991.0000
40
0.5000
1
206
0
TEXT
8
POINT_DESC
10
951.0000
20
4989.0000
40
0.4000
1
WWM
0
POINT
8
POINTS
10
1300.0000
20
5010.0000
30
95.0000
0
TEXT
8
POINT_IDS
10
1301.0000
20
5011.0000
40
0.5000
1
500
0
TEXT
8
POINT_DESC
10
1301.0000
20
5009.0000
40
0.4000
1
INLET
0
POINT
8
POINTS
10
1225.0000
20
5010.0000
30
94.5000
0
TEXT
8
POINT_IDS
10
1226.0000
20
5011.0000
40
0.5000
1
501
0
TEXT
8
POINT_DESC
10
1226.0000
20
5009.0000
40
0.4000
1
INLET
0
POINT
8
POINTS
10
1175.0000
20
5010.0000
30
94.0000
0
TEXT
8
POINT_IDS
10
1176.0000
20
5011.0000
40
0.5000
1
502
0
TEXT
8
POINT_DESC
10
1176.0000
20
5009.0000
40
0.4000
1
INLET
0
POINT
8
POINTS
10
1125.0000
20
5010.0000
30
93.5000
0
TEXT
8
POINT_IDS
10
1126.0000
20
5011.0000
40
0.5000
1
503
0
TEXT
8
POINT_DESC
10
1126.0000
20
5009.0000
40
0.4000
1
INLET
0
POINT
8
POINTS
10
1075.0000
20
5010.0000
30
93.0000
0
TEXT
8
POINT_IDS
10
1076.0000
20
5011.0000
40
0.5000
1
504
0
TEXT
8
POINT_DESC
10
1076.0000
20
5009.0000
40
0.4000
1
INLET
0
POINT
8
POINTS
10
1025.0000
20
5010.0000
30
92.5000
0
TEXT
8
POINT_IDS
10
1026.0000
20
5011.0000
40
0.5000
1
505
0
TEXT
8
POINT_DESC
10
1026.0000
20
5009.0000
40
0.4000
1
INLET
0
POINT
8
POINTS
10
950.0000
20
5010.0000
30
92.0000
0
TEXT
8
POINT_IDS
10
951.0000
20
5011.0000
40
0.5000
1
506
0
TEXT
8
POINT_DESC
10
951.0000
20
5009.0000
40
0.4000
1
INLET
0
POINT
8
POINTS
10
1025.0000
20
5120.0000
30
120.0000
0
TEXT
8
POINT_IDS
10
1026.0000
20
5121.0000
40
0.5000
1
601
0
TEXT
8
POINT_DESC
10
1026.0000
20
5119.0000
40
0.4000
1
EPOLE
0
POINT
8
POINTS
10
1025.0000
20
4880.0000
30
120.0000
0
TEXT
8
POINT_IDS
10
1026.0000
20
4881.0000
40
0.5000
1
606
0
TEXT
8
POINT_DESC
10
1026.0000
20
4879.0000
40
0.4000
1
EPOLE
0
POINT
8
POINTS
10
1075.0000
20
5120.0000
30
120.0000
0
TEXT
8
POINT_IDS
10
1076.0000
20
5121.0000
40
0.5000
1
602
0
TEXT
8
POINT_DESC
10
1076.0000
20
5119.0000
40
0.4000
1
EPOLE
0
POINT
8
POINTS
10
1075.0000
20
4880.0000
30
120.0000
0
TEXT
8
POINT_IDS
10
1076.0000
20
4881.0000
40
0.5000
1
607
0
TEXT
8
POINT_DESC
10
1076.0000
20
4879.0000
40
0.4000
1
EPOLE
0
POINT
8
POINTS
10
1125.0000
20
5120.0000
30
120.0000
0
TEXT
8
POINT_IDS
10
1126.0000
20
5121.0000
40
0.5000
1
603
0
TEXT
8
POINT_DESC
10
1126.0000
20
5119.0000
40
0.4000
1
EPOLE
0
POINT
8
POINTS
10
1125.0000
20
4880.0000
30
120.0000
0
TEXT
8
POINT_IDS
10
1126.0000
20
4881.0000
40
0.5000
1
608
0
TEXT
8
POINT_DESC
10
1126.0000
20
4879.0000
40
0.4000
1
EPOLE
0
POINT
8
POINTS
10
1175.0000
20
5120.0000
30
120.0000
0
TEXT
8
POINT_IDS
10
1176.0000
20
5121.0000
40
0.5000
1
604
0
TEXT
8
POINT_DESC
10
1176.0000
20
5119.0000
40
0.4000
1
EPOLE
0
POINT
8
POINTS
10
1175.0000
20
4880.0000
30
120.0000
0
TEXT
8
POINT_IDS
10
1176.0000
20
4881.0000
40
0.5000
1
609
0
TEXT
8
POINT_DESC
10
1176.0000
20
4879.0000
40
0.4000
1
EPOLE
0
POINT
8
POINTS
10
1225.0000
20
5120.0000
30
120.0000
0
TEXT
8
POINT_IDS
10
1226.0000
20
5121.0000
40
0.5000
1
605
0
TEXT
8
POINT_DESC
10
1226.0000
20
5119.0000
40
0.4000
1
EPOLE
0
POINT
8
POINTS
10
1225.0000
20
4880.0000
30
120.0000
0
TEXT
8
POINT_IDS
10
1226.0000
20
4881.0000
40
0.5000
1
610
0
TEXT
8
POINT_DESC
10
1226.0000
20
4879.0000
40
0.4000
1
EPOLE
0
LINE
8
FIGURES
10
950.0000
20
4975.0000
11
1300.0000
21
4975.0000
0
LINE
8
FIGURES
10
950.0000
20
5025.0000
11
1300.0000
21
5025.0000
0
LINE
8
FIGURES
10
1000.0000
20
5025.0000
11
1000.0000
21
5125.0000
0
LINE
8
FIGURES
10
1000.0000
20
5125.0000
11
1050.0000
21
5125.0000
0
LINE
8
FIGURES
10
1050.0000
20
5125.0000
11
1050.0000
21
5025.0000
0
LINE
8
FIGURES
10
1050.0000
20
5025.0000
11
1000.0000
21
5025.0000
0
LINE
8
FIGURES
10
1010.0000
20
5045.0000
11
1010.0000
21
5085.0000
0
LINE
8
FIGURES
10
1010.0000
20
5085.0000
11
1030.0000
21
5085.0000
0
LINE
8
FIGURES
10
1030.0000
20
5085.0000
11
1030.0000
21
5045.0000
0
LINE
8
FIGURES
10
1030.0000
20
5045.0000
11
1010.0000
21
5045.0000
0
LINE
8
FIGURES
10
1000.0000
20
4975.0000
11
1000.0000
21
4875.0000
0
LINE
8
FIGURES
10
1000.0000
20
4875.0000
11
1050.0000
21
4875.0000
0
LINE
8
FIGURES
10
1050.0000
20
4875.0000
11
1050.0000
21
4975.0000
0
LINE
8
FIGURES
10
1050.0000
20
4975.0000
11
1000.0000
21
4975.0000
0
LINE
8
FIGURES
10
1010.0000
20
4955.0000
11
1010.0000
21
4915.0000
0
LINE
8
FIGURES
10
1010.0000
20
4915.0000
11
1030.0000
21
4915.0000
0
LINE
8
FIGURES
10
1030.0000
20
4915.0000
11
1030.0000
21
4955.0000
0
LINE
8
FIGURES
10
1030.0000
20
4955.0000
11
1010.0000
21
4955.0000
0
LINE
8
FIGURES
10
1050.0000
20
5025.0000
11
1050.0000
21
5125.0000
0
LINE
8
FIGURES
10
1050.0000
20
5125.0000
11
1100.0000
21
5125.0000
0
LINE
8
FIGURES
10
1100.0000
20
5125.0000
11
1100.0000
21
5025.0000
0
LINE
8
FIGURES
10
1100.0000
20
5025.0000
11
1050.0000
21
5025.0000
0
LINE
8
FIGURES
10
1060.0000
20
5045.0000
11
1060.0000
21
5085.0000
0
LINE
8
FIGURES
10
1060.0000
20
5085.0000
11
1080.0000
21
5085.0000
0
LINE
8
FIGURES
10
1080.0000
20
5085.0000
11
1080.0000
21
5045.0000
0
LINE
8
FIGURES
10
1080.0000
20
5045.0000
11
1060.0000
21
5045.0000
0
LINE
8
FIGURES
10
1050.0000
20
4975.0000
11
1050.0000
21
4875.0000
0
LINE
8
FIGURES
10
1050.0000
20
4875.0000
11
1100.0000
21
4875.0000
0
LINE
8
FIGURES
10
1100.0000
20
4875.0000
11
1100.0000
21
4975.0000
0
LINE
8
FIGURES
10
1100.0000
20
4975.0000
11
1050.0000
21
4975.0000
0
LINE
8
FIGURES
10
1060.0000
20
4955.0000
11
1060.0000
21
4915.0000
0
LINE
8
FIGURES
10
1060.0000
20
4915.0000
11
1080.0000
21
4915.0000
0
LINE
8
FIGURES
10
1080.0000
20
4915.0000
11
1080.0000
21
4955.0000
0
LINE
8
FIGURES
10
1080.0000
20
4955.0000
11
1060.0000
21
4955.0000
0
LINE
8
FIGURES
10
1100.0000
20
5025.0000
11
1100.0000
21
5125.0000
0
LINE
8
FIGURES
10
1100.0000
20
5125.0000
11
1150.0000
21
5125.0000
0
LINE
8
FIGURES
10
1150.0000
20
5125.0000
11
1150.0000
21
5025.0000
0
LINE
8
FIGURES
10
1150.0000
20
5025.0000
11
1100.0000
21
5025.0000
0
LINE
8
FIGURES
10
1110.0000
20
5045.0000
11
1110.0000
21
5085.0000
0
LINE
8
FIGURES
10
1110.0000
20
5085.0000
11
1130.0000
21
5085.0000
0
LINE
8
FIGURES
10
1130.0000
20
5085.0000
11
1130.0000
21
5045.0000
0
LINE
8
FIGURES
10
1130.0000
20
5045.0000
11
1110.0000
21
5045.0000
0
LINE
8
FIGURES
10
1100.0000
20
4975.0000
11
1100.0000
21
4875.0000
0
LINE
8
FIGURES
10
1100.0000
20
4875.0000
11
1150.0000
21
4875.0000
0
LINE
8
FIGURES
10
1150.0000
20
4875.0000
11
1150.0000
21
4975.0000
0
LINE
8
FIGURES
10
1150.0000
20
4975.0000
11
1100.0000
21
4975.0000
0
LINE
8
FIGURES
10
1110.0000
20
4955.0000
11
1110.0000
21
4915.0000
0
LINE
8
FIGURES
10
1110.0000
20
4915.0000
11
1130.0000
21
4915.0000
0
LINE
8
FIGURES
10
1130.0000
20
4915.0000
11
1130.0000
21
4955.0000
0
LINE
8
FIGURES
10
1130.0000
20
4955.0000
11
1110.0000
21
4955.0000
0
LINE
8
FIGURES
10
1150.0000
20
5025.0000
11
1150.0000
21
5125.0000
0
LINE
8
FIGURES
10
1150.0000
20
5125.0000
11
1200.0000
21
5125.0000
0
LINE
8
FIGURES
10
1200.0000
20
5125.0000
11
1200.0000
21
5025.0000
0
LINE
8
FIGURES
10
1200.0000
20
5025.0000
11
1150.0000
21
5025.0000
0
LINE
8
FIGURES
10
1160.0000
20
5045.0000
11
1160.0000
21
5085.0000
0
LINE
8
FIGURES
10
1160.0000
20
5085.0000
11
1180.0000
21
5085.0000
0
LINE
8
FIGURES
10
1180.0000
20
5085.0000
11
1180.0000
21
5045.0000
0
LINE
8
FIGURES
10
1180.0000
20
5045.0000
11
1160.0000
21
5045.0000
0
LINE
8
FIGURES
10
1150.0000
20
4975.0000
11
1150.0000
21
4875.0000
0
LINE
8
FIGURES
10
1150.0000
20
4875.0000
11
1200.0000
21
4875.0000
0
LINE
8
FIGURES
10
1200.0000
20
4875.0000
11
1200.0000
21
4975.0000
0
LINE
8
FIGURES
10
1200.0000
20
4975.0000
11
1150.0000
21
4975.0000
0
LINE
8
FIGURES
10
1160.0000
20
4955.0000
11
1160.0000
21
4915.0000
0
LINE
8
FIGURES
10
1160.0000
20
4915.0000
11
1180.0000
21
4915.0000
0
LINE
8
FIGURES
10
1180.0000
20
4915.0000
11
1180.0000
21
4955.0000
0
LINE
8
FIGURES
10
1180.0000
20
4955.0000
11
1160.0000
21
4955.0000
0
LINE
8
FIGURES
10
1200.0000
20
5025.0000
11
1200.0000
21
5125.0000
0
LINE
8
FIGURES
10
1200.0000
20
5125.0000
11
1250.0000
21
5125.0000
0
LINE
8
FIGURES
10
1250.0000
20
5125.0000
11
1250.0000
21
5025.0000
0
LINE
8
FIGURES
10
1250.0000
20
5025.0000
11
1200.0000
21
5025.0000
0
LINE
8
FIGURES
10
1210.0000
20
5045.0000
11
1210.0000
21
5085.0000
0
LINE
8
FIGURES
10
1210.0000
20
5085.0000
11
1230.0000
21
5085.0000
0
LINE
8
FIGURES
10
1230.0000
20
5085.0000
11
1230.0000
21
5045.0000
0
LINE
8
FIGURES
10
1230.0000
20
5045.0000
11
1210.0000
21
5045.0000
0
LINE
8
FIGURES
10
1200.0000
20
4975.0000
11
1200.0000
21
4875.0000
0
LINE
8
FIGURES
10
1200.0000
20
4875.0000
11
1250.0000
21
4875.0000
0
LINE
8
FIGURES
10
1250.0000
20
4875.0000
11
1250.0000
21
4975.0000
0
LINE
8
FIGURES
10
1250.0000
20
4975.0000
11
1200.0000
21
4975.0000
0
LINE
8
FIGURES
10
1210.0000
20
4955.0000
11
1210.0000
21
4915.0000
0
LINE
8
FIGURES
10
1210.0000
20
4915.0000
11
1230.0000
21
4915.0000
0
LINE
8
FIGURES
10
1230.0000
20
4915.0000
11
1230.0000
21
4955.0000
0
LINE
8
FIGURES
10
1230.0000
20
4955.0000
11
1210.0000
21
4955.0000
0
LINE
8
FIGURES
10
950.0000
20
5000.0000
11
1000.0000
21
5000.0000
0
LINE
8
FIGURES
10
1000.0000
20
5000.0000
11
1020.0000
21
5000.0000
0
LINE
8
FIGURES
10
1020.0000
20
5000.0000
11
1070.0000
21
5000.0000
0
LINE
8
FIGURES
10
1070.0000
20
5000.0000
11
1120.0000
21
5000.0000
0
LINE
8
FIGURES
10
1120.0000
20
5000.0000
11
1170.0000
21
5000.0000
0
LINE
8
FIGURES
10
1170.0000
20
5000.0000
11
1220.0000
21
5000.0000
0
LINE
8
FIGURES
10
1220.0000
20
5000.0000
11
1250.0000
21
5000.0000
0
LINE
8
FIGURES
10
1250.0000
20
5000.0000
11
1300.0000
21
5000.0000
0
LINE
8
FIGURES
10
1250.0000
20
5000.0000
11
1250.0000
21
5010.0000
0
LINE
8
FIGURES
10
1250.0000
20
5010.0000
11
1250.0000
21
5125.0000
0
LINE
8
FIGURES
10
1250.0000
20
5000.0000
11
1250.0000
21
4990.0000
0
LINE
8
FIGURES
10
1250.0000
20
4990.0000
11
1250.0000
21
4875.0000
0
LINE
8
FIGURES
10
1000.0000
20
5000.0000
11
1000.0000
21
5010.0000
0
LINE
8
FIGURES
10
1000.0000
20
5010.0000
11
1000.0000
21
5125.0000
0
LINE
8
FIGURES
10
1000.0000
20
5000.0000
11
1000.0000
21
4990.0000
0
LINE
8
FIGURES
10
1000.0000
20
4990.0000
11
1000.0000
21
4875.0000
0
LINE
8
FIGURES
10
1020.0000
20
4955.0000
11
1020.0000
21
4975.0000
0
LINE
8
FIGURES
10
1020.0000
20
4975.0000
11
1020.0000
21
5000.0000
0
LINE
8
FIGURES
10
1020.0000
20
5000.0000
11
1020.0000
21
5025.0000
0
LINE
8
FIGURES
10
1020.0000
20
5025.0000
11
1020.0000
21
5045.0000
0
LINE
8
FIGURES
10
1070.0000
20
4955.0000
11
1070.0000
21
4975.0000
0
LINE
8
FIGURES
10
1070.0000
20
4975.0000
11
1070.0000
21
5000.0000
0
LINE
8
FIGURES
10
1070.0000
20
5000.0000
11
1070.0000
21
5025.0000
0
LINE
8
FIGURES
10
1070.0000
20
5025.0000
11
1070.0000
21
5045.0000
0
LINE
8
FIGURES
10
1120.0000
20
4955.0000
11
1120.0000
21
4975.0000
0
LINE
8
FIGURES
10
1120.0000
20
4975.0000
11
1120.0000
21
5000.0000
0
LINE
8
FIGURES
10
1120.0000
20
5000.0000
11
1120.0000
21
5025.0000
0
LINE
8
FIGURES
10
1120.0000
20
5025.0000
11
1120.0000
21
5045.0000
0
LINE
8
FIGURES
10
1170.0000
20
4955.0000
11
1170.0000
21
4975.0000
0
LINE
8
FIGURES
10
1170.0000
20
4975.0000
11
1170.0000
21
5000.0000
0
LINE
8
FIGURES
10
1170.0000
20
5000.0000
11
1170.0000
21
5025.0000
0
LINE
8
FIGURES
10
1170.0000
20
5025.0000
11
1170.0000
21
5045.0000
0
LINE
8
FIGURES
10
1220.0000
20
4955.0000
11
1220.0000
21
4975.0000
0
LINE
8
FIGURES
10
1220.0000
20
4975.0000
11
1220.0000
21
5000.0000
0
LINE
8
FIGURES
10
1220.0000
20
5000.0000
11
1220.0000
21
5025.0000
0
LINE
8
FIGURES
10
1220.0000
20
5025.0000
11
1220.0000
21
5045.0000
0
LINE
8
FIGURES
10
1300.0000
20
4990.0000
11
1210.0000
21
4990.0000
0
LINE
8
FIGURES
10
1210.0000
20
4990.0000
11
1160.0000
21
4990.0000
0
LINE
8
FIGURES
10
1160.0000
20
4990.0000
11
1110.0000
21
4990.0000
0
LINE
8
FIGURES
10
1110.0000
20
4990.0000
11
1060.0000
21
4990.0000
0
LINE
8
FIGURES
10
1060.0000
20
4990.0000
11
1010.0000
21
4990.0000
0
LINE
8
FIGURES
10
1010.0000
20
4990.0000
11
950.0000
21
4990.0000
0
LINE
8
FIGURES
10
1210.0000
20
5045.0000
11
1210.0000
21
5025.0000
0
LINE
8
FIGURES
10
1210.0000
20
5025.0000
11
1210.0000
21
4990.0000
0
LINE
8
FIGURES
10
1210.0000
20
4955.0000
11
1210.0000
21
4975.0000
0
LINE
8
FIGURES
10
1210.0000
20
4975.0000
11
1210.0000
21
4990.0000
0
LINE
8
FIGURES
10
1160.0000
20
5045.0000
11
1160.0000
21
5025.0000
0
LINE
8
FIGURES
10
1160.0000
20
5025.0000
11
1160.0000
21
4990.0000
0
LINE
8
FIGURES
10
1160.0000
20
4955.0000
11
1160.0000
21
4975.0000
0
LINE
8
FIGURES
10
1160.0000
20
4975.0000
11
1160.0000
21
4990.0000
0
LINE
8
FIGURES
10
1110.0000
20
5045.0000
11
1110.0000
21
5025.0000
0
LINE
8
FIGURES
10
1110.0000
20
5025.0000
11
1110.0000
21
4990.0000
0
LINE
8
FIGURES
10
1110.0000
20
4955.0000
11
1110.0000
21
4975.0000
0
LINE
8
FIGURES
10
1110.0000
20
4975.0000
11
1110.0000
21
4990.0000
0
LINE
8
FIGURES
10
1060.0000
20
5045.0000
11
1060.0000
21
5025.0000
0
LINE
8
FIGURES
10
1060.0000
20
5025.0000
11
1060.0000
21
4990.0000
0
LINE
8
FIGURES
10
1060.0000
20
4955.0000
11
1060.0000
21
4975.0000
0
LINE
8
FIGURES
10
1060.0000
20
4975.0000
11
1060.0000
21
4990.0000
0
LINE
8
FIGURES
10
1010.0000
20
5045.0000
11
1010.0000
21
5025.0000
0
LINE
8
FIGURES
10
1010.0000
20
5025.0000
11
1010.0000
21
4990.0000
0
LINE
8
FIGURES
10
1010.0000
20
4955.0000
11
1010.0000
21
4975.0000
0
LINE
8
FIGURES
10
1010.0000
20
4975.0000
11
1010.0000
21
4990.0000
0
LINE
8
FIGURES
10
1300.0000
20
5010.0000
11
1225.0000
21
5010.0000
0
LINE
8
FIGURES
10
1225.0000
20
5010.0000
11
1175.0000
21
5010.0000
0
LINE
8
FIGURES
10
1175.0000
20
5010.0000
11
1125.0000
21
5010.0000
0
LINE
8
FIGURES
10
1125.0000
20
5010.0000
11
1075.0000
21
5010.0000
0
LINE
8
FIGURES
10
1075.0000
20
5010.0000
11
1025.0000
21
5010.0000
0
LINE
8
FIGURES
10
1025.0000
20
5010.0000
11
950.0000
21
5010.0000
0
LINE
8
FIGURES
10
1025.0000
20
5120.0000
11
1075.0000
21
5120.0000
0
LINE
8
FIGURES
10
1075.0000
20
5120.0000
11
1125.0000
21
5120.0000
0
LINE
8
FIGURES
10
1125.0000
20
5120.0000
11
1175.0000
21
5120.0000
0
LINE
8
FIGURES
10
1175.0000
20
5120.0000
11
1225.0000
21
5120.0000
0
LINE
8
FIGURES
10
1025.0000
20
4880.0000
11
1075.0000
21
4880.0000
0
LINE
8
FIGURES
10
1075.0000
20
4880.0000
11
1125.0000
21
4880.0000
0
LINE
8
FIGURES
10
1125.0000
20
4880.0000
11
1175.0000
21
4880.0000
0
LINE
8
FIGURES
10
1175.0000
20
4880.0000
11
1225.0000
21
4880.0000
0
LINE
8
PIPE_W_6_PVC
10
950.0000
20
5000.0000
11
1000.0000
21
5000.0000
0
TEXT
8
PIPE_W_6_PVC_TEXT
10
975.0000
20
5000.0000
40
1.5000
1
6" PVC W
0
LINE
8
PIPE_W_6_PVC
10
1000.0000
20
5000.0000
11
1020.0000
21
5000.0000
0
TEXT
8
PIPE_W_6_PVC_TEXT
10
1010.0000
20
5000.0000
40
1.5000
1
6" PVC W
0
LINE
8
PIPE_W_6_PVC
10
1020.0000
20
5000.0000
11
1070.0000
21
5000.0000
0
TEXT
8
PIPE_W_6_PVC_TEXT
10
1045.0000
20
5000.0000
40
1.5000
1
6" PVC W
0
LINE
8
PIPE_W_6_PVC
10
1070.0000
20
5000.0000
11
1120.0000
21
5000.0000
0
TEXT
8
PIPE_W_6_PVC_TEXT
10
1095.0000
20
5000.0000
40
1.5000
1
6" PVC W
0
LINE
8
PIPE_W_6_PVC
10
1120.0000
20
5000.0000
11
1170.0000
21
5000.0000
0
TEXT
8
PIPE_W_6_PVC_TEXT
10
1145.0000
20
5000.0000
40
1.5000
1
6" PVC W
0
LINE
8
PIPE_W_6_PVC
10
1170.0000
20
5000.0000
11
1220.0000
21
5000.0000
0
TEXT
8
PIPE_W_6_PVC_TEXT
10
1195.0000
20
5000.0000
40
1.5000
1
6" PVC W
0
LINE
8
PIPE_W_6_PVC
10
1220.0000
20
5000.0000
11
1250.0000
21
5000.0000
0
TEXT
8
PIPE_W_6_PVC_TEXT
10
1235.0000
20
5000.0000
40
1.5000
1
6" PVC W
0
LINE
8
PIPE_W_6_PVC
10
1250.0000
20
5000.0000
11
1300.0000
21
5000.0000
0
TEXT
8
PIPE_W_6_PVC_TEXT
10
1275.0000
20
5000.0000
40
1.5000
1
6" PVC W
0
LINE
8
PIPE_W_6_PVC
10
1250.0000
20
5000.0000
11
1250.0000
21
5010.0000
0
TEXT
8
PIPE_W_6_PVC_TEXT
10
1250.0000
20
5005.0000
40
1.5000
1
6" PVC W
0
LINE
8
PIPE_W_6_PVC
10
1250.0000
20
5010.0000
11
1250.0000
21
5125.0000
0
TEXT
8
PIPE_W_6_PVC_TEXT
10
1250.0000
20
5067.5000
40
1.5000
1
6" PVC W
0
LINE
8
PIPE_W_6_PVC
10
1250.0000
20
5000.0000
11
1250.0000
21
4990.0000
0
TEXT
8
PIPE_W_6_PVC_TEXT
10
1250.0000
20
4995.0000
40
1.5000
1
6" PVC W
0
LINE
8
PIPE_W_6_PVC
10
1250.0000
20
4990.0000
11
1250.0000
21
4875.0000
0
TEXT
8
PIPE_W_6_PVC_TEXT
10
1250.0000
20
4932.5000
40
1.5000
1
6" PVC W
0
LINE
8
PIPE_W_6_PVC
10
1000.0000
20
5000.0000
11
1000.0000
21
5010.0000
0
TEXT
8
PIPE_W_6_PVC_TEXT
10
1000.0000
20
5005.0000
40
1.5000
1
6" PVC W
0
LINE
8
PIPE_W_6_PVC
10
1000.0000
20
5010.0000
11
1000.0000
21
5125.0000
0
TEXT
8
PIPE_W_6_PVC_TEXT
10
1000.0000
20
5067.5000
40
1.5000
1
6" PVC W
0
LINE
8
PIPE_W_6_PVC
10
1000.0000
20
5000.0000
11
1000.0000
21
4990.0000
0
TEXT
8
PIPE_W_6_PVC_TEXT
10
1000.0000
20
4995.0000
40
1.5000
1
6" PVC W
0
LINE
8
PIPE_W_6_PVC
10
1000.0000
20
4990.0000
11
1000.0000
21
4875.0000
0
TEXT
8
PIPE_W_6_PVC_TEXT
10
1000.0000
20
4932.5000
40
1.5000
1
6" PVC W
0
LINE
8
PIPE_W_2_PE
10
1020.0000
20
4955.0000
11
1020.0000
21
4975.0000
0
TEXT
8
PIPE_W_2_PE_TEXT
10
1020.0000
20
4965.0000
40
1.5000
1
2" PE W
0
LINE
8
PIPE_W_2_PE
10
1020.0000
20
4975.0000
11
1020.0000
21
5000.0000
0
TEXT
8
PIPE_W_2_PE_TEXT
10
1020.0000
20
4987.5000
40
1.5000
1
2" PE W
0
LINE
8
PIPE_W_2_PE
10
1020.0000
20
5000.0000
11
1020.0000
21
5025.0000
0
TEXT
8
PIPE_W_2_PE_TEXT
10
1020.0000
20
5012.5000
40
1.5000
1
2" PE W
0
LINE
8
PIPE_W_2_PE
10
1020.0000
20
5025.0000
11
1020.0000
21
5045.0000
0
TEXT
8
PIPE_W_2_PE_TEXT
10
1020.0000
20
5035.0000
40
1.5000
1
2" PE W
0
LINE
8
PIPE_W_2_PE
10
1070.0000
20
4955.0000
11
1070.0000
21
4975.0000
0
TEXT
8
PIPE_W_2_PE_TEXT
10
1070.0000
20
4965.0000
40
1.5000
1
2" PE W
0
LINE
8
PIPE_W_2_PE
10
1070.0000
20
4975.0000
11
1070.0000
21
5000.0000
0
TEXT
8
PIPE_W_2_PE_TEXT
10
1070.0000
20
4987.5000
40
1.5000
1
2" PE W
0
LINE
8
PIPE_W_2_PE
10
1070.0000
20
5000.0000
11
1070.0000
21
5025.0000
0
TEXT
8
PIPE_W_2_PE_TEXT
10
1070.0000
20
5012.5000
40
1.5000
1
2" PE W
0
LINE
8
PIPE_W_2_PE
10
1070.0000
20
5025.0000
11
1070.0000
21
5045.0000
0
TEXT
8
PIPE_W_2_PE_TEXT
10
1070.0000
20
5035.0000
40
1.5000
1
2" PE W
0
LINE
8
PIPE_W_2_PE
10
1120.0000
20
4955.0000
11
1120.0000
21
4975.0000
0
TEXT
8
PIPE_W_2_PE_TEXT
10
1120.0000
20
4965.0000
40
1.5000
1
2" PE W
0
LINE
8
PIPE_W_2_PE
10
1120.0000
20
4975.0000
11
1120.0000
21
5000.0000
0
TEXT
8
PIPE_W_2_PE_TEXT
10
1120.0000
20
4987.5000
40
1.5000
1
2" PE W
0
LINE
8
PIPE_W_2_PE
10
1120.0000
20
5000.0000
11
1120.0000
21
5025.0000
0
TEXT
8
PIPE_W_2_PE_TEXT
10
1120.0000
20
5012.5000
40
1.5000
1
2" PE W
0
LINE
8
PIPE_W_2_PE
10
1120.0000
20
5025.0000
11
1120.0000
21
5045.0000
0
TEXT
8
PIPE_W_2_PE_TEXT
10
1120.0000
20
5035.0000
40
1.5000
1
2" PE W
0
LINE
8
PIPE_W_2_PE
10
1170.0000
20
4955.0000
11
1170.0000
21
4975.0000
0
TEXT
8
PIPE_W_2_PE_TEXT
10
1170.0000
20
4965.0000
40
1.5000
1
2" PE W
0
LINE
8
PIPE_W_2_PE
10
1170.0000
20
4975.0000
11
1170.0000
21
5000.0000
0
TEXT
8
PIPE_W_2_PE_TEXT
10
1170.0000
20
4987.5000
40
1.5000
1
2" PE W
0
LINE
8
PIPE_W_2_PE
10
1170.0000
20
5000.0000
11
1170.0000
21
5025.0000
0
TEXT
8
PIPE_W_2_PE_TEXT
10
1170.0000
20
5012.5000
40
1.5000
1
2" PE W
0
LINE
8
PIPE_W_2_PE
10
1170.0000
20
5025.0000
11
1170.0000
21
5045.0000
0
TEXT
8
PIPE_W_2_PE_TEXT
10
1170.0000
20
5035.0000
40
1.5000
1
2" PE W
0
LINE
8
PIPE_W_2_PE
10
1220.0000
20
4955.0000
11
1220.0000
21
4975.0000
0
TEXT
8
PIPE_W_2_PE_TEXT
10
1220.0000
20
4965.0000
40
1.5000
1
2" PE W
0
LINE
8
PIPE_W_2_PE
10
1220.0000
20
4975.0000
11
1220.0000
21
5000.0000
0
TEXT
8
PIPE_W_2_PE_TEXT
10
1220.0000
20
4987.5000
40
1.5000
1
2" PE W
0
LINE
8
PIPE_W_2_PE
10
1220.0000
20
5000.0000
11
1220.0000
21
5025.0000
0
TEXT
8
PIPE_W_2_PE_TEXT
10
1220.0000
20
5012.5000
40
1.5000
1
2" PE W
0
LINE
8
PIPE_W_2_PE
10
1220.0000
20
5025.0000
11
1220.0000
21
5045.0000
0
TEXT
8
PIPE_W_2_PE_TEXT
10
1220.0000
20
5035.0000
40
1.5000
1
2" PE W
0
LINE
8
PIPE_WW_8_PVC
10
1300.0000
20
4990.0000
11
1210.0000
21
4990.0000
0
TEXT
8
PIPE_WW_8_PVC_TEXT
10
1255.0000
20
4990.0000
40
1.5000
1
8" PVC WW
0
LINE
8
PIPE_WW_8_PVC
10
1210.0000
20
4990.0000
11
1160.0000
21
4990.0000
0
TEXT
8
PIPE_WW_8_PVC_TEXT
10
1185.0000
20
4990.0000
40
1.5000
1
8" PVC WW
0
LINE
8
PIPE_WW_8_PVC
10
1160.0000
20
4990.0000
11
1110.0000
21
4990.0000
0
TEXT
8
PIPE_WW_8_PVC_TEXT
10
1135.0000
20
4990.0000
40
1.5000
1
8" PVC WW
0
LINE
8
PIPE_WW_8_PVC
10
1110.0000
20
4990.0000
11
1060.0000
21
4990.0000
0
TEXT
8
PIPE_WW_8_PVC_TEXT
10
1085.0000
20
4990.0000
40
1.5000
1
8" PVC WW
0
LINE
8
PIPE_WW_8_PVC
10
1060.0000
20
4990.0000
11
1010.0000
21
4990.0000
0
TEXT
8
PIPE_WW_8_PVC_TEXT
10
1035.0000
20
4990.0000
40
1.5000
1
8" PVC WW
0
LINE
8
PIPE_WW_8_PVC
10
1010.0000
20
4990.0000
11
950.0000
21
4990.0000
0
TEXT
8
PIPE_WW_8_PVC_TEXT
10
980.0000
20
4990.0000
40
1.5000
1
8" PVC WW
0
LINE
8
PIPE_WW_4_PVC
10
1210.0000
20
5045.0000
11
1210.0000
21
5025.0000
0
TEXT
8
PIPE_WW_4_PVC_TEXT
10
1210.0000
20
5035.0000
40
1.5000
1
4" PVC WW
0
LINE
8
PIPE_WW_4_PVC
10
1210.0000
20
5025.0000
11
1210.0000
21
4990.0000
0
TEXT
8
PIPE_WW_4_PVC_TEXT
10
1210.0000
20
5007.5000
40
1.5000
1
4" PVC WW
0
LINE
8
PIPE_WW_4_PVC
10
1210.0000
20
4955.0000
11
1210.0000
21
4975.0000
0
TEXT
8
PIPE_WW_4_PVC_TEXT
10
1210.0000
20
4965.0000
40
1.5000
1
4" PVC WW
0
LINE
8
PIPE_WW_4_PVC
10
1210.0000
20
4975.0000
11
1210.0000
21
4990.0000
0
TEXT
8
PIPE_WW_4_PVC_TEXT
10
1210.0000
20
4982.5000
40
1.5000
1
4" PVC WW
0
LINE
8
PIPE_WW_4_PVC
10
1160.0000
20
5045.0000
11
1160.0000
21
5025.0000
0
TEXT
8
PIPE_WW_4_PVC_TEXT
10
1160.0000
20
5035.0000
40
1.5000
1
4" PVC WW
0
LINE
8
PIPE_WW_4_PVC
10
1160.0000
20
5025.0000
11
1160.0000
21
4990.0000
0
TEXT
8
PIPE_WW_4_PVC_TEXT
10
1160.0000
20
5007.5000
40
1.5000
1
4" PVC WW
0
LINE
8
PIPE_WW_4_PVC
10
1160.0000
20
4955.0000
11
1160.0000
21
4975.0000
0
TEXT
8
PIPE_WW_4_PVC_TEXT
10
1160.0000
20
4965.0000
40
1.5000
1
4" PVC WW
0
LINE
8
PIPE_WW_4_PVC
10
1160.0000
20
4975.0000
11
1160.0000
21
4990.0000
0
TEXT
8
PIPE_WW_4_PVC_TEXT
10
1160.0000
20
4982.5000
40
1.5000
1
4" PVC WW
0
LINE
8
PIPE_WW_4_PVC
10
1110.0000
20
5045.0000
11
1110.0000
21
5025.0000
0
TEXT
8
PIPE_WW_4_PVC_TEXT
10
1110.0000
20
5035.0000
40
1.5000
1
4" PVC WW
0
LINE
8
PIPE_WW_4_PVC
10
1110.0000
20
5025.0000
11
1110.0000
21
4990.0000
0
TEXT
8
PIPE_WW_4_PVC_TEXT
10
1110.0000
20
5007.5000
40
1.5000
1
4" PVC WW
0
LINE
8
PIPE_WW_4_PVC
10
1110.0000
20
4955.0000
11
1110.0000
21
4975.0000
0
TEXT
8
PIPE_WW_4_PVC_TEXT
10
1110.0000
20
4965.0000
40
1.5000
1
4" PVC WW
0
LINE
8
PIPE_WW_4_PVC
10
1110.0000
20
4975.0000
11
1110.0000
21
4990.0000
0
TEXT
8
PIPE_WW_4_PVC_TEXT
10
1110.0000
20
4982.5000
40
1.5000
1
4" PVC WW
0
LINE
8
PIPE_WW_4_PVC
10
1060.0000
20
5045.0000
11
1060.0000
21
5025.0000
0
TEXT
8
PIPE_WW_4_PVC_TEXT
10
1060.0000
20
5035.0000
40
1.5000
1
4" PVC WW
0
LINE
8
PIPE_WW_4_PVC
10
1060.0000
20
5025.0000
11
1060.0000
21
4990.0000
0
TEXT
8
PIPE_WW_4_PVC_TEXT
10
1060.0000
20
5007.5000
40
1.5000
1
4" PVC WW
0
LINE
8
PIPE_WW_4_PVC
10
1060.0000
20
4955.0000
11
1060.0000
21
4975.0000
0
TEXT
8
PIPE_WW_4_PVC_TEXT
10
1060.0000
20
4965.0000
40
1.5000
1
4" PVC WW
0
LINE
8
PIPE_WW_4_PVC
10
1060.0000
20
4975.0000
11
1060.0000
21
4990.0000
0
TEXT
8
PIPE_WW_4_PVC_TEXT
10
1060.0000
20
4982.5000
40
1.5000
1
4" PVC WW
0
LINE
8
PIPE_WW_4_PVC
10
1010.0000
20
5045.0000
11
1010.0000
21
5025.0000
0
TEXT
8
PIPE_WW_4_PVC_TEXT
10
1010.0000
20
5035.0000
40
1.5000
1
4" PVC WW
0
LINE
8
PIPE_WW_4_PVC
10
1010.0000
20
5025.0000
11
1010.0000
21
4990.0000
0
TEXT
8
PIPE_WW_4_PVC_TEXT
10
1010.0000
20
5007.5000
40
1.5000
1
4" PVC WW
0
LINE
8
PIPE_WW_4_PVC
10
1010.0000
20
4955.0000
11
1010.0000
21
4975.0000
0
TEXT
8
PIPE_WW_4_PVC_TEXT
10
1010.0000
20
4965.0000
40
1.5000
1
4" PVC WW
0
LINE
8
PIPE_WW_4_PVC
10
1010.0000
20
4975.0000
11
1010.0000
21
4990.0000
0
TEXT
8
PIPE_WW_4_PVC_TEXT
10
1010.0000
20
4982.5000
40
1.5000
1
4" PVC WW
0
LINE
8
PIPE_ST_18_RCP
10
1300.0000
20
5010.0000
11
1225.0000
21
5010.0000
0
TEXT
8
PIPE_ST_18_RCP_TEXT
10
1262.5000
20
5010.0000
40
1.5000
1
18" RCP ST
0
LINE
8
PIPE_ST_18_RCP
10
1225.0000
20
5010.0000
11
1175.0000
21
5010.0000
0
TEXT
8
PIPE_ST_18_RCP_TEXT
10
1200.0000
20
5010.0000
40
1.5000
1
18" RCP ST
0
LINE
8
PIPE_ST_18_RCP
10
1175.0000
20
5010.0000
11
1125.0000
21
5010.0000
0
TEXT
8
PIPE_ST_18_RCP_TEXT
10
1150.0000
20
5010.0000
40
1.5000
1
18" RCP ST
0
LINE
8
PIPE_ST_18_RCP
10
1125.0000
20
5010.0000
11
1075.0000
21
5010.0000
0
TEXT
8
PIPE_ST_18_RCP_TEXT
10
1100.0000
20
5010.0000
40
1.5000
1
18" RCP ST
0
LINE
8
PIPE_ST_18_RCP
10
1075.0000
20
5010.0000
11
1025.0000
21
5010.0000
0
TEXT
8
PIPE_ST_18_RCP_TEXT
10
1050.0000
20
5010.0000
40
1.5000
1
18" RCP ST
0
LINE
8
PIPE_ST_18_RCP
10
1025.0000
20
5010.0000
11
950.0000
21
5010.0000
0
TEXT
8
PIPE_ST_18_RCP_TEXT
10
987.5000
20
5010.0000
40
1.5000
1
18" RCP ST
0
LINE
8
PIPE_E_2_ALUM
10
1025.0000
20
5120.0000
11
1075.0000
21
5120.0000
0
TEXT
8
PIPE_E_2_ALUM_TEXT
10
1050.0000
20
5120.0000
40
1.5000
1
2" ALUM E
0
LINE
8
PIPE_E_2_ALUM
10
1075.0000
20
5120.0000
11
1125.0000
21
5120.0000
0
TEXT
8
PIPE_E_2_ALUM_TEXT
10
1100.0000
20
5120.0000
40
1.5000
1
2" ALUM E
0
LINE
8
PIPE_E_2_ALUM
10
1125.0000
20
5120.0000
11
1175.0000
21
5120.0000
0
TEXT
8
PIPE_E_2_ALUM_TEXT
10
1150.0000
20
5120.0000
40
1.5000
1
2" ALUM E
0
LINE
8
PIPE_E_2_ALUM
10
1175.0000
20
5120.0000
11
1225.0000
21
5120.0000
0
TEXT
8
PIPE_E_2_ALUM_TEXT
10
1200.0000
20
5120.0000
40
1.5000
1
2" ALUM E
0
LINE
8
PIPE_E_2_ALUM
10
1025.0000
20
4880.0000
11
1075.0000
21
4880.0000
0
TEXT
8
PIPE_E_2_ALUM_TEXT
10
1050.0000
20
4880.0000
40
1.5000
1
2" ALUM E
0
LINE
8
PIPE_E_2_ALUM
10
1075.0000
20
4880.0000
11
1125.0000
21
4880.0000
0
TEXT
8
PIPE_E_2_ALUM_TEXT
10
1100.0000
20
4880.0000
40
1.5000
1
2" ALUM E
0
LINE
8
PIPE_E_2_ALUM
10
1125.0000
20
4880.0000
11
1175.0000
21
4880.0000
0
TEXT
8
PIPE_E_2_ALUM_TEXT
10
1150.0000
20
4880.0000
40
1.5000
1
2" ALUM E
0
LINE
8
PIPE_E_2_ALUM
10
1175.0000
20
4880.0000
11
1225.0000
21
4880.0000
0
TEXT
8
PIPE_E_2_ALUM_TEXT
10
1200.0000
20
4880.0000
40
1.5000
1
2" ALUM E
0
INSERT
8
STRUCT_W_WM
2
MANHOLE
10
950.0000
20
5000.0000
41
1.0000
42
1.0000
43
1.0000
0
INSERT
8
STRUCT_W_WF____Added__Subdivision_South_Hydrant_Tapping_Tee
2
HYDRANT
10
1000.0000
20
5000.0000
41
1.0000
42
1.0000
43
1.0000
0
INSERT
8
STRUCT_W_WF
2
FITTING
10
1020.0000
20
5000.0000
41
1.0000
42
1.0000
43
1.0000
0
INSERT
8
STRUCT_W_WF
2
FITTING
10
1070.0000
20
5000.0000
41
1.0000
42
1.0000
43
1.0000
0
INSERT
8
STRUCT_W_WF
2
FITTING
10
1120.0000
20
5000.0000
41
1.0000
42
1.0000
43
1.0000
0
INSERT
8
STRUCT_W_WF
2
FITTING
10
1170.0000
20
5000.0000
41
1.0000
42
1.0000
43
1.0000
0
INSERT
8
STRUCT_W_WF
2
FITTING
10
1220.0000
20
5000.0000
41
1.0000
42
1.0000
43
1.0000
0
INSERT
8
STRUCT_W_WF____Added__Subdivision_North_Hydrant_Tapping_Tee
2
HYDRANT
10
1250.0000
20
5000.0000
41
1.0000
42
1.0000
43
1.0000
0
INSERT
8
STRUCT_W_WM
2
MANHOLE
10
1300.0000
20
5000.0000
41
1.0000
42
1.0000
43
1.0000
0
INSERT
8
STRUCT_W_WV____NE_Valve
2
VALVE
10
1250.0000
20
5010.0000
41
1.0000
42
1.0000
43
1.0000
0
INSERT
8
STRUCT_W_HYD____NE_Hydrant
2
HYDRANT
10
1250.0000
20
5125.0000
41
1.0000
42
1.0000
43
1.0000
0
INSERT
8
STRUCT_W_WV____NW_Valve
2
VALVE
10
1250.0000
20
4990.0000
41
1.0000
42
1.0000
43
1.0000
0
INSERT
8
STRUCT_W_HYD____NW_Hydrant
2
HYDRANT
10
1250.0000
20
4875.0000
41
1.0000
42
1.0000
43
1.0000
0
INSERT
8
STRUCT_W_WV____SE_Valve
2
VALVE
10
1000.0000
20
5010.0000
41
1.0000
42
1.0000
43
1.0000
0
INSERT
8
STRUCT_W_HYD____SE_Hydrant
2
HYDRANT
10
1000.0000
20
5125.0000
41
1.0000
42
1.0000
43
1.0000
0
INSERT
8
STRUCT_W_WV____SW_Valve
2
VALVE
10
1000.0000
20
4990.0000
41
1.0000
42
1.0000
43
1.0000
0
INSERT
8
STRUCT_W_HYD____SW_Hydrant
2
HYDRANT
10
1000.0000
20
4875.0000
41
1.0000
42
1.0000
43
1.0000
0
INSERT
8
STRUCT_W_WAT
2
MANHOLE
10
1020.0000
20
4955.0000
41
1.0000
42
1.0000
43
1.0000
0
INSERT
8
STRUCT_W_WMET
2
MANHOLE
10
1020.0000
20
4975.0000
41
1.0000
42
1.0000
43
1.0000
0
INSERT
8
STRUCT_W_WMET
2
MANHOLE
10
1020.0000
20
5025.0000
41
1.0000
42
1.0000
43
1.0000
0
INSERT
8
STRUCT_W_WAT
2
MANHOLE
10
1020.0000
20
5045.0000
41
1.0000
42
1.0000
43
1.0000
0
INSERT
8
STRUCT_W_WAT
2
MANHOLE
10
1070.0000
20
4955.0000
41
1.0000
42
1.0000
43
1.0000
0
INSERT
8
STRUCT_W_WMET
2
MANHOLE
10
1070.0000
20
4975.0000
41
1.0000
42
1.0000
43
1.0000
0
INSERT
8
STRUCT_W_WMET
2
MANHOLE
10
1070.0000
20
5025.0000
41
1.0000
42
1.0000
43
1.0000
0
INSERT
8
STRUCT_W_WAT
2
MANHOLE
10
1070.0000
20
5045.0000
41
1.0000
42
1.0000
43
1.0000
0
INSERT
8
STRUCT_W_WAT
2
MANHOLE
10
1120.0000
20
4955.0000
41
1.0000
42
1.0000
43
1.0000
0
INSERT
8
STRUCT_W_WMET
2
MANHOLE
10
1120.0000
20
4975.0000
41
1.0000
42
1.0000
43
1.0000
0
INSERT
8
STRUCT_W_WMET
2
MANHOLE
10
1120.0000
20
5025.0000
41
1.0000
42
1.0000
43
1.0000
0
INSERT
8
STRUCT_W_WAT
2
MANHOLE
10
1120.0000
20
5045.0000
41
1.0000
42
1.0000
43
1.0000
0
INSERT
8
STRUCT_W_WAT
2
MANHOLE
10
1170.0000
20
4955.0000
41
1.0000
42
1.0000
43
1.0000
0
INSERT
8
STRUCT_W_WMET
2
MANHOLE
10
1170.0000
20
4975.0000
41
1.0000
42
1.0000
43
1.0000
0
INSERT
8
STRUCT_W_WMET
2
MANHOLE
10
1170.0000
20
5025.0000
41
1.0000
42
1.0000
43
1.0000
0
INSERT
8
STRUCT_W_WAT
2
MANHOLE
10
1170.0000
20
5045.0000
41
1.0000
42
1.0000
43
1.0000
0
INSERT
8
STRUCT_W_WAT
2
MANHOLE
10
1220.0000
20
4955.0000
41
1.0000
42
1.0000
43
1.0000
0
INSERT
8
STRUCT_W_WMET
2
MANHOLE
10
1220.0000
20
4975.0000
41
1.0000
42
1.0000
43
1.0000
0
INSERT
8
STRUCT_W_WMET
2
MANHOLE
10
1220.0000
20
5025.0000
41
1.0000
42
1.0000
43
1.0000
0
INSERT
8
STRUCT_W_WAT
2
MANHOLE
10
1220.0000
20
5045.0000
41
1.0000
42
1.0000
43
1.0000
0
INSERT
8
STRUCT_WW_WWM
2
MANHOLE
10
1300.0000
20
4990.0000
41
1.0000
42
1.0000
43
1.0000
0
INSERT
8
STRUCT_WW_WWM
2
MANHOLE
10
1210.0000
20
4990.0000
41
1.0000
42
1.0000
43
1.0000
0
INSERT
8
STRUCT_WW_WWM
2
MANHOLE
10
1160.0000
20
4990.0000
41
1.0000
42
1.0000
43
1.0000
0
INSERT
8
STRUCT_WW_WWM
2
MANHOLE
10
1110.0000
20
4990.0000
41
1.0000
42
1.0000
43
1.0000
0
INSERT
8
STRUCT_WW_WWM
2
MANHOLE
10
1060.0000
20
4990.0000
41
1.0000
42
1.0000
43
1.0000
0
INSERT
8
STRUCT_WW_WWM
2
MANHOLE
10
1010.0000
20
4990.0000
41
1.0000
42
1.0000
43
1.0000
0
INSERT
8
STRUCT_WW_WWM
2
MANHOLE
10
950.0000
20
4990.0000
41
1.0000
42
1.0000
43
1.0000
0
INSERT
8
STRUCT_WW_SEW
2
MANHOLE
10
1210.0000
20
5045.0000
41
1.0000
42
1.0000
43
1.0000
0
INSERT
8
STRUCT_WW_SEW
2
MANHOLE
10
1210.0000
20
5025.0000
41
1.0000
42
1.0000
43
1.0000
0
INSERT
8
STRUCT_WW_SEW
2
MANHOLE
10
1210.0000
20
4955.0000
41
1.0000
42
1.0000
43
1.0000
0
INSERT
8
STRUCT_WW_SEW
2
MANHOLE
10
1210.0000
20
4975.0000
41
1.0000
42
1.0000
43
1.0000
0
INSERT
8
STRUCT_WW_SEW
2
MANHOLE
10
1160.0000
20
5045.0000
41
1.0000
42
1.0000
43
1.0000
0
INSERT
8
STRUCT_WW_SEW
2
MANHOLE
10
1160.0000
20
5025.0000
41
1.0000
42
1.0000
43
1.0000
0
INSERT
8
STRUCT_WW_SEW
2
MANHOLE
10
1160.0000
20
4955.0000
41
1.0000
42
1.0000
43
1.0000
0
INSERT
8
STRUCT_WW_SEW
2
MANHOLE
10
1160.0000
20
4975.0000
41
1.0000
42
1.0000
43
1.0000
0
INSERT
8
STRUCT_WW_SEW
2
MANHOLE
10
1110.0000
20
5045.0000
41
1.0000
42
1.0000
43
1.0000
0
INSERT
8
STRUCT_WW_SEW
2
MANHOLE
10
1110.0000
20
5025.0000
41
1.0000
42
1.0000
43
1.0000
0
INSERT
8
STRUCT_WW_SEW
2
MANHOLE
10
1110.0000
20
4955.0000
41
1.0000
42
1.0000
43
1.0000
0
INSERT
8
STRUCT_WW_SEW
2
MANHOLE
10
1110.0000
20
4975.0000
41
1.0000
42
1.0000
43
1.0000
0
INSERT
8
STRUCT_WW_SEW
2
MANHOLE
10
1060.0000
20
5045.0000
41
1.0000
42
1.0000
43
1.0000
0
INSERT
8
STRUCT_WW_SEW
2
MANHOLE
10
1060.0000
20
5025.0000
41
1.0000
42
1.0000
43
1.0000
0
INSERT
8
STRUCT_WW_SEW
2
MANHOLE
10
1060.0000
20
4955.0000
41
1.0000
42
1.0000
43
1.0000
0
INSERT
8
STRUCT_WW_SEW
2
MANHOLE
10
1060.0000
20
4975.0000
41
1.0000
42
1.0000
43
1.0000
0
INSERT
8
STRUCT_WW_SEW
2
MANHOLE
10
1010.0000
20
5045.0000
41
1.0000
42
1.0000
43
1.0000
0
INSERT
8
STRUCT_WW_SEW
2
MANHOLE
10
1010.0000
20
5025.0000
41
1.0000
42
1.0000
43
1.0000
0
INSERT
8
STRUCT_WW_SEW
2
MANHOLE
10
1010.0000
20
4955.0000
41
1.0000
42
1.0000
43
1.0000
0
INSERT
8
STRUCT_WW_SEW
2
MANHOLE
10
1010.0000
20
4975.0000
41
1.0000
42
1.0000
43
1.0000
0
INSERT
8
STRUCT_ST_INLET
2
MANHOLE
10
1300.0000
20
5010.0000
41
1.0000
42
1.0000
43
1.0000
0
INSERT
8
STRUCT_ST_INLET
2
MANHOLE
10
1225.0000
20
5010.0000
41
1.0000
42
1.0000
43
1.0000
0
INSERT
8
STRUCT_ST_INLET
2
MANHOLE
10
1175.0000
20
5010.0000
41
1.0000
42
1.0000
43
1.0000
0
INSERT
8
STRUCT_ST_INLET
2
MANHOLE
10
1125.0000
20
5010.0000
41
1.0000
42
1.0000
43
1.0000
0
INSERT
8
STRUCT_ST_INLET
2
MANHOLE
10
1075.0000
20
5010.0000
41
1.0000
42
1.0000
43
1.0000
0
INSERT
8
STRUCT_ST_INLET
2
MANHOLE
10
1025.0000
20
5010.0000
41
1.0000
42
1.0000
43
1.0000
0
INSERT
8
STRUCT_ST_INLET
2
MANHOLE
10
950.0000
20
5010.0000
41
1.0000
42
1.0000
43
1.0000
0
INSERT
8
STRUCT_E_EPOLE
2
POLE
10
1025.0000
20
5120.0000
41
1.0000
42
1.0000
43
1.0000
0
INSERT
8
STRUCT_E_EPOLE
2
POLE
10
1075.0000
20
5120.0000
41
1.0000
42
1.0000
43
1.0000
0
INSERT
8
STRUCT_E_EPOLE
2
POLE
10
1125.0000
20
5120.0000
41
1.0000
42
1.0000
43
1.0000
0
INSERT
8
STRUCT_E_EPOLE
2
POLE
10
1175.0000
20
5120.0000
41
1.0000
42
1.0000
43
1.0000
0
INSERT
8
STRUCT_E_EPOLE
2
POLE
10
1225.0000
20
5120.0000
41
1.0000
42
1.0000
43
1.0000
0
INSERT
8
STRUCT_E_EPOLE
2
POLE
10
1025.0000
20
4880.0000
41
1.0000
42
1.0000
43
1.0000
0
INSERT
8
STRUCT_E_EPOLE
2
POLE
10
1075.0000
20
4880.0000
41
1.0000
42
1.0000
43
1.0000
0
INSERT
8
STRUCT_E_EPOLE
2
POLE
10
1125.0000
20
4880.0000
41
1.0000
42
1.0000
43
1.0000
0
INSERT
8
STRUCT_E_EPOLE
2
POLE
10
1175.0000
20
4880.0000
41
1.0000
42
1.0000
43
1.0000
0
INSERT
8
STRUCT_E_EPOLE
2
POLE
10
1225.0000
20
4880.0000
41
1.0000
42
1.0000
43
1.0000
0
ENDSEC
0
EOF
