0
SECTION
2
HEADER
9
$ACADVER
1
AC1015
9
$INSUNITS
70
2
0
ENDSEC
0
SECTION
2
TABLES
0
TABLE
2
LTYPE
70
1
0
LTYPE
2
CONTINUOUS
70
0
3
Solid line
72
65
73
0
40
0.0
0
ENDTAB
0
TABLE
2
LAYER
70
4
0
LAYER
2
TABLE_BORDER
70
0
62
6
6
CONTINUOUS
0
LAYER
2
TABLE_TITLE
70
0
62
4
6
CONTINUOUS
0
LAYER
2
TABLE_HEADER
70
0
62
4
6
CONTINUOUS
0
LAYER
2
TABLE_DATA
70
0
62
7
6
CONTINUOUS
0
ENDTAB
0
TABLE
2
STYLE
70
3
0
STYLE
2
STANDARD
70
0
40
0.0
41
1.0
3
txt
4

0
STYLE
2
SIMPLEX
70
0
40
0.0
41
1.0
3
simplex.shx
4

0
STYLE
2
ROMAND
70
0
40
0.0
41
1.0
3
romand.shx
4

0
ENDTAB
0
ENDSEC
0
SECTION
2
ENTITIES
0
SOLID
8
TABLE_TITLE
62
6
10
0.0000
20
-0.3500
30
0.0
11
11.7800
21
-0.3500
31
0.0
12
0.0000
22
0.0000
32
0.0
13
11.7800
23
0.0000
33
0.0
0
TEXT
8
TABLE_TITLE
62
4
10
5.8900
20
-0.1750
30
0.0
40
0.1400
1
WATER MAIN FITTING LOCATION TABLE
7
ROMAND
72
1
11
5.8900
21
-0.1750
31
0.0
0
LINE
8
TABLE_BORDER
62
6
10
0.0000
20
-0.3500
30
0.0
11
11.7800
21
-0.3500
31
0.0
0
LINE
8
TABLE_BORDER
62
6
10
0.0000
20
-0.7500
30
0.0
11
11.7800
21
-0.7500
31
0.0
0
LINE
8
TABLE_BORDER
62
6
10
0.0000
20
-0.3500
30
0.0
11
0.0000
21
-0.7500
31
0.0
0
LINE
8
TABLE_BORDER
62
6
10
11.7800
20
-0.3500
30
0.0
11
11.7800
21
-0.7500
31
0.0
0
TEXT
8
TABLE_HEADER
62
4
10
0.1500
20
-0.5500
30
0.0
40
0.0900
1
NO.
7
ROMAND
72
1
11
0.1500
21
-0.5500
31
0.0
0
TEXT
8
TABLE_HEADER
62
4
10
0.7750
20
-0.5500
30
0.0
40
0.0900
1
FITTING DESCRIPTION
7
ROMAND
72
1
11
0.7750
21
-0.5500
31
0.0
0
TEXT
8
TABLE_HEADER
62
4
10
1.5750
20
-0.5500
30
0.0
40
0.0900
1
FACILITY OWNER
7
ROMAND
72
1
11
1.5750
21
-0.5500
31
0.0
0
TEXT
8
TABLE_HEADER
62
4
10
2.2600
20
-0.5500
30
0.0
40
0.0900
1
FITTING SIZE PRIMARY (INCH)
7
ROMAND
72
1
11
2.2600
21
-0.5500
31
0.0
0
TEXT
8
TABLE_HEADER
62
4
10
3.0200
20
-0.5500
30
0.0
40
0.0900
1
FITTING SIZE SECONDARY (INCH)
7
ROMAND
72
1
11
3.0200
21
-0.5500
31
0.0
0
TEXT
8
TABLE_HEADER
62
4
10
3.8700
20
-0.5500
30
0.0
40
0.0900
1
FITTING TYPE
7
ROMAND
72
1
11
3.8700
21
-0.5500
31
0.0
0
TEXT
8
TABLE_HEADER
62
4
10
4.7700
20
-0.5500
30
0.0
40
0.0900
1
MANUFACTURER
7
ROMAND
72
1
11
4.7700
21
-0.5500
31
0.0
0
TEXT
8
TABLE_HEADER
62
4
10
5.5600
20
-0.5500
30
0.0
40
0.0900
1
FITTING MATERIAL
7
ROMAND
72
1
11
5.5600
21
-0.5500
31
0.0
0
TEXT
8
TABLE_HEADER
62
4
10
6.2400
20
-0.5500
30
0.0
40
0.0900
1
LINING MATERIAL
7
ROMAND
72
1
11
6.2400
21
-0.5500
31
0.0
0
TEXT
8
TABLE_HEADER
62
4
10
6.9800
20
-0.5500
30
0.0
40
0.0900
1
TOP FITTING ELEVATION (FEET)
7
ROMAND
72
1
11
6.9800
21
-0.5500
31
0.0
0
TEXT
8
TABLE_HEADER
62
4
10
7.6550
20
-0.5500
30
0.0
40
0.0900
1
FINISH GRADE
7
ROMAND
72
1
11
7.6550
21
-0.5500
31
0.0
0
TEXT
8
TABLE_HEADER
62
4
10
8.1800
20
-0.5500
30
0.0
40
0.0900
1
DEPTH (FEET)
7
ROMAND
72
1
11
8.1800
21
-0.5500
31
0.0
0
TEXT
8
TABLE_HEADER
62
4
10
8.8050
20
-0.5500
30
0.0
40
0.0900
1
EASTING
7
ROMAND
72
1
11
8.8050
21
-0.5500
31
0.0
0
TEXT
8
TABLE_HEADER
62
4
10
9.5550
20
-0.5500
30
0.0
40
0.0900
1
NORTHING
7
ROMAND
72
1
11
9.5550
21
-0.5500
31
0.0
0
TEXT
8
TABLE_HEADER
62
4
10
10.3800
20
-0.5500
30
0.0
40
0.0900
1
LATITUDE (DECIMAL DEGREE)
7
ROMAND
72
1
11
10.3800
21
-0.5500
31
0.0
0
TEXT
8
TABLE_HEADER
62
4
10
11.3050
20
-0.5500
30
0.0
40
0.0900
1
LONGITUDE (DECIMAL DEGREES)
7
ROMAND
72
1
11
11.3050
21
-0.5500
31
0.0
0
LINE
8
TABLE_BORDER
62
6
10
0.0000
20
-0.3500
30
0.0
11
0.0000
21
-0.7500
31
0.0
0
LINE
8
TABLE_BORDER
62
6
10
0.3000
20
-0.3500
30
0.0
11
0.3000
21
-0.7500
31
0.0
0
LINE
8
TABLE_BORDER
62
6
10
1.2500
20
-0.3500
30
0.0
11
1.2500
21
-0.7500
31
0.0
0
LINE
8
TABLE_BORDER
62
6
10
1.9000
20
-0.3500
30
0.0
11
1.9000
21
-0.7500
31
0.0
0
LINE
8
TABLE_BORDER
62
6
10
2.6200
20
-0.3500
30
0.0
11
2.6200
21
-0.7500
31
0.0
0
LINE
8
TABLE_BORDER
62
6
10
3.4200
20
-0.3500
30
0.0
11
3.4200
21
-0.7500
31
0.0
0
LINE
8
TABLE_BORDER
62
6
10
4.3200
20
-0.3500
30
0.0
11
4.3200
21
-0.7500
31
0.0
0
LINE
8
TABLE_BORDER
62
6
10
5.2200
20
-0.3500
30
0.0
11
5.2200
21
-0.7500
31
0.0
0
LINE
8
TABLE_BORDER
62
6
10
5.9000
20
-0.3500
30
0.0
11
5.9000
21
-0.7500
31
0.0
0
LINE
8
TABLE_BORDER
62
6
10
6.5800
20
-0.3500
30
0.0
11
6.5800
21
-0.7500
31
0.0
0
LINE
8
TABLE_BORDER
62
6
10
7.3800
20
-0.3500
30
0.0
11
7.3800
21
-0.7500
31
0.0
0
LINE
8
TABLE_BORDER
62
6
10
7.9300
20
-0.3500
30
0.0
11
7.9300
21
-0.7500
31
0.0
0
LINE
8
TABLE_BORDER
62
6
10
8.4300
20
-0.3500
30
0.0
11
8.4300
21
-0.7500
31
0.0
0
LINE
8
TABLE_BORDER
62
6
10
9.1800
20
-0.3500
30
0.0
11
9.1800
21
-0.7500
31
0.0
0
LINE
8
TABLE_BORDER
62
6
10
9.9300
20
-0.3500
30
0.0
11
9.9300
21
-0.7500
31
0.0
0
LINE
8
TABLE_BORDER
62
6
10
10.8300
20
-0.3500
30
0.0
11
10.8300
21
-0.7500
31
0.0
0
LINE
8
TABLE_BORDER
62
6
10
11.7800
20
-0.3500
30
0.0
11
11.7800
21
-0.7500
31
0.0
0
LINE
8
TABLE_BORDER
62
6
10
0.0000
20
-0.7500
30
0.0
11
11.7800
21
-0.7500
31
0.0
0
LINE
8
TABLE_BORDER
62
6
10
0.0000
20
-1.0300
30
0.0
11
11.7800
21
-1.0300
31
0.0
0
LINE
8
TABLE_BORDER
62
6
10
0.0000
20
-0.7500
30
0.0
11
0.0000
21
-1.0300
31
0.0
0
LINE
8
TABLE_BORDER
62
6
10
11.7800
20
-0.7500
30
0.0
11
11.7800
21
-1.0300
31
0.0
0
TEXT
8
TABLE_DATA
62
7
10
0.0400
20
-0.8900
30
0.0
40
0.1000
1
1
7
SIMPLEX
72
0
11
0.0400
21
-0.8900
31
0.0
0
LINE
8
TABLE_BORDER
62
6
10
0.0000
20
-0.7500
30
0.0
11
0.0000
21
-1.0300
31
0.0
0
LINE
8
TABLE_BORDER
62
6
10
0.3000
20
-0.7500
30
0.0
11
0.3000
21
-1.0300
31
0.0
0
TEXT
8
TABLE_DATA
62
7
10
1.2900
20
-0.8900
30
0.0
40
0.1000
1
Other
7
SIMPLEX
72
0
11
1.2900
21
-0.8900
31
0.0
0
LINE
8
TABLE_BORDER
62
6
10
1.2500
20
-0.7500
30
0.0
11
1.2500
21
-1.0300
31
0.0
0
TEXT
8
TABLE_DATA
62
7
10
1.9400
20
-0.8900
30
0.0
40
0.1000
1
JEA
7
SIMPLEX
72
0
11
1.9400
21
-0.8900
31
0.0
0
LINE
8
TABLE_BORDER
62
6
10
1.9000
20
-0.7500
30
0.0
11
1.9000
21
-1.0300
31
0.0
0
TEXT
8
TABLE_DATA
62
7
10
2.6600
20
-0.8900
30
0.0
40
0.1000
1
OPERATING
7
SIMPLEX
72
0
11
2.6600
21
-0.8900
31
0.0
0
LINE
8
TABLE_BORDER
62
6
10
2.6200
20
-0.7500
30
0.0
11
2.6200
21
-1.0300
31
0.0
0
TEXT
8
TABLE_DATA
62
7
10
3.4600
20
-0.8900
30
0.0
40
0.1000
1
FITTING
7
SIMPLEX
72
0
11
3.4600
21
-0.8900
31
0.0
0
LINE
8
TABLE_BORDER
62
6
10
3.4200
20
-0.7500
30
0.0
11
3.4200
21
-1.0300
31
0.0
0
LINE
8
TABLE_BORDER
62
6
10
4.3200
20
-0.7500
30
0.0
11
4.3200
21
-1.0300
31
0.0
0
TEXT
8
TABLE_DATA
62
7
10
5.2600
20
-0.8900
30
0.0
40
0.1000
1
1"
7
SIMPLEX
72
0
11
5.2600
21
-0.8900
31
0.0
0
LINE
8
TABLE_BORDER
62
6
10
5.2200
20
-0.7500
30
0.0
11
5.2200
21
-1.0300
31
0.0
0
LINE
8
TABLE_BORDER
62
6
10
5.9000
20
-0.7500
30
0.0
11
5.9000
21
-1.0300
31
0.0
0
LINE
8
TABLE_BORDER
62
6
10
6.5800
20
-0.7500
30
0.0
11
6.5800
21
-1.0300
31
0.0
0
LINE
8
TABLE_BORDER
62
6
10
7.3800
20
-0.7500
30
0.0
11
7.3800
21
-1.0300
31
0.0
0
LINE
8
TABLE_BORDER
62
6
10
7.9300
20
-0.7500
30
0.0
11
7.9300
21
-1.0300
31
0.0
0
LINE
8
TABLE_BORDER
62
6
10
8.4300
20
-0.7500
30
0.0
11
8.4300
21
-1.0300
31
0.0
0
LINE
8
TABLE_BORDER
62
6
10
9.1800
20
-0.7500
30
0.0
11
9.1800
21
-1.0300
31
0.0
0
LINE
8
TABLE_BORDER
62
6
10
9.9300
20
-0.7500
30
0.0
11
9.9300
21
-1.0300
31
0.0
0
LINE
8
TABLE_BORDER
62
6
10
10.8300
20
-0.7500
30
0.0
11
10.8300
21
-1.0300
31
0.0
0
LINE
8
TABLE_BORDER
62
6
10
11.7800
20
-0.7500
30
0.0
11
11.7800
21
-1.0300
31
0.0
0
LINE
8
TABLE_BORDER
62
6
10
0.0000
20
-1.0300
30
0.0
11
11.7800
21
-1.0300
31
0.0
0
LINE
8
TABLE_BORDER
62
6
10
0.0000
20
-1.3100
30
0.0
11
11.7800
21
-1.3100
31
0.0
0
LINE
8
TABLE_BORDER
62
6
10
0.0000
20
-1.0300
30
0.0
11
0.0000
21
-1.3100
31
0.0
0
LINE
8
TABLE_BORDER
62
6
10
11.7800
20
-1.0300
30
0.0
11
11.7800
21
-1.3100
31
0.0
0
TEXT
8
TABLE_DATA
62
7
10
0.0400
20
-1.1700
30
0.0
40
0.1000
1
2
7
SIMPLEX
72
0
11
0.0400
21
-1.1700
31
0.0
0
LINE
8
TABLE_BORDER
62
6
10
0.0000
20
-1.0300
30
0.0
11
0.0000
21
-1.3100
31
0.0
0
LINE
8
TABLE_BORDER
62
6
10
0.3000
20
-1.0300
30
0.0
11
0.3000
21
-1.3100
31
0.0
0
TEXT
8
TABLE_DATA
62
7
10
1.2900
20
-1.1700
30
0.0
40
0.1000
1
Elbow 22.5
7
SIMPLEX
72
0
11
1.2900
21
-1.1700
31
0.0
0
LINE
8
TABLE_BORDER
62
6
10
1.2500
20
-1.0300
30
0.0
11
1.2500
21
-1.3100
31
0.0
0
TEXT
8
TABLE_DATA
62
7
10
1.9400
20
-1.1700
30
0.0
40
0.1000
1
JEA
7
SIMPLEX
72
0
11
1.9400
21
-1.1700
31
0.0
0
LINE
8
TABLE_BORDER
62
6
10
1.9000
20
-1.0300
30
0.0
11
1.9000
21
-1.3100
31
0.0
0
TEXT
8
TABLE_DATA
62
7
10
2.6600
20
-1.1700
30
0.0
40
0.1000
1
OPERATING
7
SIMPLEX
72
0
11
2.6600
21
-1.1700
31
0.0
0
LINE
8
TABLE_BORDER
62
6
10
2.6200
20
-1.0300
30
0.0
11
2.6200
21
-1.3100
31
0.0
0
TEXT
8
TABLE_DATA
62
7
10
3.4600
20
-1.1700
30
0.0
40
0.1000
1
FITTING
7
SIMPLEX
72
0
11
3.4600
21
-1.1700
31
0.0
0
LINE
8
TABLE_BORDER
62
6
10
3.4200
20
-1.0300
30
0.0
11
3.4200
21
-1.3100
31
0.0
0
LINE
8
TABLE_BORDER
62
6
10
4.3200
20
-1.0300
30
0.0
11
4.3200
21
-1.3100
31
0.0
0
TEXT
8
TABLE_DATA
62
7
10
5.2600
20
-1.1700
30
0.0
40
0.1000
1
8"
7
SIMPLEX
72
0
11
5.2600
21
-1.1700
31
0.0
0
LINE
8
TABLE_BORDER
62
6
10
5.2200
20
-1.0300
30
0.0
11
5.2200
21
-1.3100
31
0.0
0
LINE
8
TABLE_BORDER
62
6
10
5.9000
20
-1.0300
30
0.0
11
5.9000
21
-1.3100
31
0.0
0
LINE
8
TABLE_BORDER
62
6
10
6.5800
20
-1.0300
30
0.0
11
6.5800
21
-1.3100
31
0.0
0
LINE
8
TABLE_BORDER
62
6
10
7.3800
20
-1.0300
30
0.0
11
7.3800
21
-1.3100
31
0.0
0
LINE
8
TABLE_BORDER
62
6
10
7.9300
20
-1.0300
30
0.0
11
7.9300
21
-1.3100
31
0.0
0
LINE
8
TABLE_BORDER
62
6
10
8.4300
20
-1.0300
30
0.0
11
8.4300
21
-1.3100
31
0.0
0
LINE
8
TABLE_BORDER
62
6
10
9.1800
20
-1.0300
30
0.0
11
9.1800
21
-1.3100
31
0.0
0
LINE
8
TABLE_BORDER
62
6
10
9.9300
20
-1.0300
30
0.0
11
9.9300
21
-1.3100
31
0.0
0
LINE
8
TABLE_BORDER
62
6
10
10.8300
20
-1.0300
30
0.0
11
10.8300
21
-1.3100
31
0.0
0
LINE
8
TABLE_BORDER
62
6
10
11.7800
20
-1.0300
30
0.0
11
11.7800
21
-1.3100
31
0.0
0
LINE
8
TABLE_BORDER
62
6
10
0.0000
20
-1.3100
30
0.0
11
11.7800
21
-1.3100
31
0.0
0
LINE
8
TABLE_BORDER
62
6
10
0.0000
20
-1.5900
30
0.0
11
11.7800
21
-1.5900
31
0.0
0
LINE
8
TABLE_BORDER
62
6
10
0.0000
20
-1.3100
30
0.0
11
0.0000
21
-1.5900
31
0.0
0
LINE
8
TABLE_BORDER
62
6
10
11.7800
20
-1.3100
30
0.0
11
11.7800
21
-1.5900
31
0.0
0
TEXT
8
TABLE_DATA
62
7
10
0.0400
20
-1.4500
30
0.0
40
0.1000
1
3
7
SIMPLEX
72
0
11
0.0400
21
-1.4500
31
0.0
0
LINE
8
TABLE_BORDER
62
6
10
0.0000
20
-1.3100
30
0.0
11
0.0000
21
-1.5900
31
0.0
0
LINE
8
TABLE_BORDER
62
6
10
0.3000
20
-1.3100
30
0.0
11
0.3000
21
-1.5900
31
0.0
0
TEXT
8
TABLE_DATA
62
7
10
1.2900
20
-1.4500
30
0.0
40
0.1000
1
Elbow 22.5
7
SIMPLEX
72
0
11
1.2900
21
-1.4500
31
0.0
0
LINE
8
TABLE_BORDER
62
6
10
1.2500
20
-1.3100
30
0.0
11
1.2500
21
-1.5900
31
0.0
0
TEXT
8
TABLE_DATA
62
7
10
1.9400
20
-1.4500
30
0.0
40
0.1000
1
JEA
7
SIMPLEX
72
0
11
1.9400
21
-1.4500
31
0.0
0
LINE
8
TABLE_BORDER
62
6
10
1.9000
20
-1.3100
30
0.0
11
1.9000
21
-1.5900
31
0.0
0
TEXT
8
TABLE_DATA
62
7
10
2.6600
20
-1.4500
30
0.0
40
0.1000
1
OPERATING
7
SIMPLEX
72
0
11
2.6600
21
-1.4500
31
0.0
0
LINE
8
TABLE_BORDER
62
6
10
2.6200
20
-1.3100
30
0.0
11
2.6200
21
-1.5900
31
0.0
0
TEXT
8
TABLE_DATA
62
7
10
3.4600
20
-1.4500
30
0.0
40
0.1000
1
FITTING
7
SIMPLEX
72
0
11
3.4600
21
-1.4500
31
0.0
0
LINE
8
TABLE_BORDER
62
6
10
3.4200
20
-1.3100
30
0.0
11
3.4200
21
-1.5900
31
0.0
0
LINE
8
TABLE_BORDER
62
6
10
4.3200
20
-1.3100
30
0.0
11
4.3200
21
-1.5900
31
0.0
0
TEXT
8
TABLE_DATA
62
7
10
5.2600
20
-1.4500
30
0.0
40
0.1000
1
8"
7
SIMPLEX
72
0
11
5.2600
21
-1.4500
31
0.0
0
LINE
8
TABLE_BORDER
62
6
10
5.2200
20
-1.3100
30
0.0
11
5.2200
21
-1.5900
31
0.0
0
LINE
8
TABLE_BORDER
62
6
10
5.9000
20
-1.3100
30
0.0
11
5.9000
21
-1.5900
31
0.0
0
LINE
8
TABLE_BORDER
62
6
10
6.5800
20
-1.3100
30
0.0
11
6.5800
21
-1.5900
31
0.0
0
LINE
8
TABLE_BORDER
62
6
10
7.3800
20
-1.3100
30
0.0
11
7.3800
21
-1.5900
31
0.0
0
LINE
8
TABLE_BORDER
62
6
10
7.9300
20
-1.3100
30
0.0
11
7.9300
21
-1.5900
31
0.0
0
LINE
8
TABLE_BORDER
62
6
10
8.4300
20
-1.3100
30
0.0
11
8.4300
21
-1.5900
31
0.0
0
LINE
8
TABLE_BORDER
62
6
10
9.1800
20
-1.3100
30
0.0
11
9.1800
21
-1.5900
31
0.0
0
LINE
8
TABLE_BORDER
62
6
10
9.9300
20
-1.3100
30
0.0
11
9.9300
21
-1.5900
31
0.0
0
LINE
8
TABLE_BORDER
62
6
10
10.8300
20
-1.3100
30
0.0
11
10.8300
21
-1.5900
31
0.0
0
LINE
8
TABLE_BORDER
62
6
10
11.7800
20
-1.3100
30
0.0
11
11.7800
21
-1.5900
31
0.0
0
LINE
8
TABLE_BORDER
62
6
10
0.0000
20
-1.5900
30
0.0
11
11.7800
21
-1.5900
31
0.0
0
LINE
8
TABLE_BORDER
62
6
10
0.0000
20
-1.8700
30
0.0
11
11.7800
21
-1.8700
31
0.0
0
LINE
8
TABLE_BORDER
62
6
10
0.0000
20
-1.5900
30
0.0
11
0.0000
21
-1.8700
31
0.0
0
LINE
8
TABLE_BORDER
62
6
10
11.7800
20
-1.5900
30
0.0
11
11.7800
21
-1.8700
31
0.0
0
TEXT
8
TABLE_DATA
62
7
10
0.0400
20
-1.7300
30
0.0
40
0.1000
1
4
7
SIMPLEX
72
0
11
0.0400
21
-1.7300
31
0.0
0
LINE
8
TABLE_BORDER
62
6
10
0.0000
20
-1.5900
30
0.0
11
0.0000
21
-1.8700
31
0.0
0
LINE
8
TABLE_BORDER
62
6
10
0.3000
20
-1.5900
30
0.0
11
0.3000
21
-1.8700
31
0.0
0
TEXT
8
TABLE_DATA
62
7
10
1.2900
20
-1.7300
30
0.0
40
0.1000
1
Elbow 45
7
SIMPLEX
72
0
11
1.2900
21
-1.7300
31
0.0
0
LINE
8
TABLE_BORDER
62
6
10
1.2500
20
-1.5900
30
0.0
11
1.2500
21
-1.8700
31
0.0
0
TEXT
8
TABLE_DATA
62
7
10
1.9400
20
-1.7300
30
0.0
40
0.1000
1
JEA
7
SIMPLEX
72
0
11
1.9400
21
-1.7300
31
0.0
0
LINE
8
TABLE_BORDER
62
6
10
1.9000
20
-1.5900
30
0.0
11
1.9000
21
-1.8700
31
0.0
0
TEXT
8
TABLE_DATA
62
7
10
2.6600
20
-1.7300
30
0.0
40
0.1000
1
OPERATING
7
SIMPLEX
72
0
11
2.6600
21
-1.7300
31
0.0
0
LINE
8
TABLE_BORDER
62
6
10
2.6200
20
-1.5900
30
0.0
11
2.6200
21
-1.8700
31
0.0
0
TEXT
8
TABLE_DATA
62
7
10
3.4600
20
-1.7300
30
0.0
40
0.1000
1
FITTING
7
SIMPLEX
72
0
11
3.4600
21
-1.7300
31
0.0
0
LINE
8
TABLE_BORDER
62
6
10
3.4200
20
-1.5900
30
0.0
11
3.4200
21
-1.8700
31
0.0
0
LINE
8
TABLE_BORDER
62
6
10
4.3200
20
-1.5900
30
0.0
11
4.3200
21
-1.8700
31
0.0
0
TEXT
8
TABLE_DATA
62
7
10
5.2600
20
-1.7300
30
0.0
40
0.1000
1
8"
7
SIMPLEX
72
0
11
5.2600
21
-1.7300
31
0.0
0
LINE
8
TABLE_BORDER
62
6
10
5.2200
20
-1.5900
30
0.0
11
5.2200
21
-1.8700
31
0.0
0
LINE
8
TABLE_BORDER
62
6
10
5.9000
20
-1.5900
30
0.0
11
5.9000
21
-1.8700
31
0.0
0
LINE
8
TABLE_BORDER
62
6
10
6.5800
20
-1.5900
30
0.0
11
6.5800
21
-1.8700
31
0.0
0
LINE
8
TABLE_BORDER
62
6
10
7.3800
20
-1.5900
30
0.0
11
7.3800
21
-1.8700
31
0.0
0
LINE
8
TABLE_BORDER
62
6
10
7.9300
20
-1.5900
30
0.0
11
7.9300
21
-1.8700
31
0.0
0
LINE
8
TABLE_BORDER
62
6
10
8.4300
20
-1.5900
30
0.0
11
8.4300
21
-1.8700
31
0.0
0
LINE
8
TABLE_BORDER
62
6
10
9.1800
20
-1.5900
30
0.0
11
9.1800
21
-1.8700
31
0.0
0
LINE
8
TABLE_BORDER
62
6
10
9.9300
20
-1.5900
30
0.0
11
9.9300
21
-1.8700
31
0.0
0
LINE
8
TABLE_BORDER
62
6
10
10.8300
20
-1.5900
30
0.0
11
10.8300
21
-1.8700
31
0.0
0
LINE
8
TABLE_BORDER
62
6
10
11.7800
20
-1.5900
30
0.0
11
11.7800
21
-1.8700
31
0.0
0
LINE
8
TABLE_BORDER
62
6
10
0.0000
20
-1.8700
30
0.0
11
11.7800
21
-1.8700
31
0.0
0
LINE
8
TABLE_BORDER
62
6
10
0.0000
20
-2.1500
30
0.0
11
11.7800
21
-2.1500
31
0.0
0
LINE
8
TABLE_BORDER
62
6
10
0.0000
20
-1.8700
30
0.0
11
0.0000
21
-2.1500
31
0.0
0
LINE
8
TABLE_BORDER
62
6
10
11.7800
20
-1.8700
30
0.0
11
11.7800
21
-2.1500
31
0.0
0
TEXT
8
TABLE_DATA
62
7
10
0.0400
20
-2.0100
30
0.0
40
0.1000
1
5
7
SIMPLEX
72
0
11
0.0400
21
-2.0100
31
0.0
0
LINE
8
TABLE_BORDER
62
6
10
0.0000
20
-1.8700
30
0.0
11
0.0000
21
-2.1500
31
0.0
0
LINE
8
TABLE_BORDER
62
6
10
0.3000
20
-1.8700
30
0.0
11
0.3000
21
-2.1500
31
0.0
0
TEXT
8
TABLE_DATA
62
7
10
1.2900
20
-2.0100
30
0.0
40
0.1000
1
Elbow 45
7
SIMPLEX
72
0
11
1.2900
21
-2.0100
31
0.0
0
LINE
8
TABLE_BORDER
62
6
10
1.2500
20
-1.8700
30
0.0
11
1.2500
21
-2.1500
31
0.0
0
TEXT
8
TABLE_DATA
62
7
10
1.9400
20
-2.0100
30
0.0
40
0.1000
1
JEA
7
SIMPLEX
72
0
11
1.9400
21
-2.0100
31
0.0
0
LINE
8
TABLE_BORDER
62
6
10
1.9000
20
-1.8700
30
0.0
11
1.9000
21
-2.1500
31
0.0
0
TEXT
8
TABLE_DATA
62
7
10
2.6600
20
-2.0100
30
0.0
40
0.1000
1
OPERATING
7
SIMPLEX
72
0
11
2.6600
21
-2.0100
31
0.0
0
LINE
8
TABLE_BORDER
62
6
10
2.6200
20
-1.8700
30
0.0
11
2.6200
21
-2.1500
31
0.0
0
TEXT
8
TABLE_DATA
62
7
10
3.4600
20
-2.0100
30
0.0
40
0.1000
1
FITTING
7
SIMPLEX
72
0
11
3.4600
21
-2.0100
31
0.0
0
LINE
8
TABLE_BORDER
62
6
10
3.4200
20
-1.8700
30
0.0
11
3.4200
21
-2.1500
31
0.0
0
LINE
8
TABLE_BORDER
62
6
10
4.3200
20
-1.8700
30
0.0
11
4.3200
21
-2.1500
31
0.0
0
TEXT
8
TABLE_DATA
62
7
10
5.2600
20
-2.0100
30
0.0
40
0.1000
1
8"
7
SIMPLEX
72
0
11
5.2600
21
-2.0100
31
0.0
0
LINE
8
TABLE_BORDER
62
6
10
5.2200
20
-1.8700
30
0.0
11
5.2200
21
-2.1500
31
0.0
0
LINE
8
TABLE_BORDER
62
6
10
5.9000
20
-1.8700
30
0.0
11
5.9000
21
-2.1500
31
0.0
0
LINE
8
TABLE_BORDER
62
6
10
6.5800
20
-1.8700
30
0.0
11
6.5800
21
-2.1500
31
0.0
0
LINE
8
TABLE_BORDER
62
6
10
7.3800
20
-1.8700
30
0.0
11
7.3800
21
-2.1500
31
0.0
0
LINE
8
TABLE_BORDER
62
6
10
7.9300
20
-1.8700
30
0.0
11
7.9300
21
-2.1500
31
0.0
0
LINE
8
TABLE_BORDER
62
6
10
8.4300
20
-1.8700
30
0.0
11
8.4300
21
-2.1500
31
0.0
0
LINE
8
TABLE_BORDER
62
6
10
9.1800
20
-1.8700
30
0.0
11
9.1800
21
-2.1500
31
0.0
0
LINE
8
TABLE_BORDER
62
6
10
9.9300
20
-1.8700
30
0.0
11
9.9300
21
-2.1500
31
0.0
0
LINE
8
TABLE_BORDER
62
6
10
10.8300
20
-1.8700
30
0.0
11
10.8300
21
-2.1500
31
0.0
0
LINE
8
TABLE_BORDER
62
6
10
11.7800
20
-1.8700
30
0.0
11
11.7800
21
-2.1500
31
0.0
0
LINE
8
TABLE_BORDER
62
6
10
0.0000
20
-2.1500
30
0.0
11
11.7800
21
-2.1500
31
0.0
0
LINE
8
TABLE_BORDER
62
6
10
0.0000
20
-2.4300
30
0.0
11
11.7800
21
-2.4300
31
0.0
0
LINE
8
TABLE_BORDER
62
6
10
0.0000
20
-2.1500
30
0.0
11
0.0000
21
-2.4300
31
0.0
0
LINE
8
TABLE_BORDER
62
6
10
11.7800
20
-2.1500
30
0.0
11
11.7800
21
-2.4300
31
0.0
0
TEXT
8
TABLE_DATA
62
7
10
0.0400
20
-2.2900
30
0.0
40
0.1000
1
6
7
SIMPLEX
72
0
11
0.0400
21
-2.2900
31
0.0
0
LINE
8
TABLE_BORDER
62
6
10
0.0000
20
-2.1500
30
0.0
11
0.0000
21
-2.4300
31
0.0
0
LINE
8
TABLE_BORDER
62
6
10
0.3000
20
-2.1500
30
0.0
11
0.3000
21
-2.4300
31
0.0
0
TEXT
8
TABLE_DATA
62
7
10
1.2900
20
-2.2900
30
0.0
40
0.1000
1
Reducer
7
SIMPLEX
72
0
11
1.2900
21
-2.2900
31
0.0
0
LINE
8
TABLE_BORDER
62
6
10
1.2500
20
-2.1500
30
0.0
11
1.2500
21
-2.4300
31
0.0
0
TEXT
8
TABLE_DATA
62
7
10
1.9400
20
-2.2900
30
0.0
40
0.1000
1
JEA
7
SIMPLEX
72
0
11
1.9400
21
-2.2900
31
0.0
0
LINE
8
TABLE_BORDER
62
6
10
1.9000
20
-2.1500
30
0.0
11
1.9000
21
-2.4300
31
0.0
0
TEXT
8
TABLE_DATA
62
7
10
2.6600
20
-2.2900
30
0.0
40
0.1000
1
OPERATING
7
SIMPLEX
72
0
11
2.6600
21
-2.2900
31
0.0
0
LINE
8
TABLE_BORDER
62
6
10
2.6200
20
-2.1500
30
0.0
11
2.6200
21
-2.4300
31
0.0
0
TEXT
8
TABLE_DATA
62
7
10
3.4600
20
-2.2900
30
0.0
40
0.1000
1
FITTING
7
SIMPLEX
72
0
11
3.4600
21
-2.2900
31
0.0
0
LINE
8
TABLE_BORDER
62
6
10
3.4200
20
-2.1500
30
0.0
11
3.4200
21
-2.4300
31
0.0
0
LINE
8
TABLE_BORDER
62
6
10
4.3200
20
-2.1500
30
0.0
11
4.3200
21
-2.4300
31
0.0
0
TEXT
8
TABLE_DATA
62
7
10
5.2600
20
-2.2900
30
0.0
40
0.1000
1
10"
7
SIMPLEX
72
0
11
5.2600
21
-2.2900
31
0.0
0
LINE
8
TABLE_BORDER
62
6
10
5.2200
20
-2.1500
30
0.0
11
5.2200
21
-2.4300
31
0.0
0
LINE
8
TABLE_BORDER
62
6
10
5.9000
20
-2.1500
30
0.0
11
5.9000
21
-2.4300
31
0.0
0
LINE
8
TABLE_BORDER
62
6
10
6.5800
20
-2.1500
30
0.0
11
6.5800
21
-2.4300
31
0.0
0
LINE
8
TABLE_BORDER
62
6
10
7.3800
20
-2.1500
30
0.0
11
7.3800
21
-2.4300
31
0.0
0
LINE
8
TABLE_BORDER
62
6
10
7.9300
20
-2.1500
30
0.0
11
7.9300
21
-2.4300
31
0.0
0
LINE
8
TABLE_BORDER
62
6
10
8.4300
20
-2.1500
30
0.0
11
8.4300
21
-2.4300
31
0.0
0
LINE
8
TABLE_BORDER
62
6
10
9.1800
20
-2.1500
30
0.0
11
9.1800
21
-2.4300
31
0.0
0
LINE
8
TABLE_BORDER
62
6
10
9.9300
20
-2.1500
30
0.0
11
9.9300
21
-2.4300
31
0.0
0
LINE
8
TABLE_BORDER
62
6
10
10.8300
20
-2.1500
30
0.0
11
10.8300
21
-2.4300
31
0.0
0
LINE
8
TABLE_BORDER
62
6
10
11.7800
20
-2.1500
30
0.0
11
11.7800
21
-2.4300
31
0.0
0
LINE
8
TABLE_BORDER
62
6
10
0.0000
20
-2.4300
30
0.0
11
11.7800
21
-2.4300
31
0.0
0
LINE
8
TABLE_BORDER
62
6
10
0.0000
20
-2.7100
30
0.0
11
11.7800
21
-2.7100
31
0.0
0
LINE
8
TABLE_BORDER
62
6
10
0.0000
20
-2.4300
30
0.0
11
0.0000
21
-2.7100
31
0.0
0
LINE
8
TABLE_BORDER
62
6
10
11.7800
20
-2.4300
30
0.0
11
11.7800
21
-2.7100
31
0.0
0
TEXT
8
TABLE_DATA
62
7
10
0.0400
20
-2.5700
30
0.0
40
0.1000
1
7
7
SIMPLEX
72
0
11
0.0400
21
-2.5700
31
0.0
0
LINE
8
TABLE_BORDER
62
6
10
0.0000
20
-2.4300
30
0.0
11
0.0000
21
-2.7100
31
0.0
0
LINE
8
TABLE_BORDER
62
6
10
0.3000
20
-2.4300
30
0.0
11
0.3000
21
-2.7100
31
0.0
0
TEXT
8
TABLE_DATA
62
7
10
1.2900
20
-2.5700
30
0.0
40
0.1000
1
Reducer
7
SIMPLEX
72
0
11
1.2900
21
-2.5700
31
0.0
0
LINE
8
TABLE_BORDER
62
6
10
1.2500
20
-2.4300
30
0.0
11
1.2500
21
-2.7100
31
0.0
0
TEXT
8
TABLE_DATA
62
7
10
1.9400
20
-2.5700
30
0.0
40
0.1000
1
JEA
7
SIMPLEX
72
0
11
1.9400
21
-2.5700
31
0.0
0
LINE
8
TABLE_BORDER
62
6
10
1.9000
20
-2.4300
30
0.0
11
1.9000
21
-2.7100
31
0.0
0
TEXT
8
TABLE_DATA
62
7
10
2.6600
20
-2.5700
30
0.0
40
0.1000
1
OPERATING
7
SIMPLEX
72
0
11
2.6600
21
-2.5700
31
0.0
0
LINE
8
TABLE_BORDER
62
6
10
2.6200
20
-2.4300
30
0.0
11
2.6200
21
-2.7100
31
0.0
0
TEXT
8
TABLE_DATA
62
7
10
3.4600
20
-2.5700
30
0.0
40
0.1000
1
FITTING
7
SIMPLEX
72
0
11
3.4600
21
-2.5700
31
0.0
0
LINE
8
TABLE_BORDER
62
6
10
3.4200
20
-2.4300
30
0.0
11
3.4200
21
-2.7100
31
0.0
0
LINE
8
TABLE_BORDER
62
6
10
4.3200
20
-2.4300
30
0.0
11
4.3200
21
-2.7100
31
0.0
0
TEXT
8
TABLE_DATA
62
7
10
5.2600
20
-2.5700
30
0.0
40
0.1000
1
10"
7
SIMPLEX
72
0
11
5.2600
21
-2.5700
31
0.0
0
LINE
8
TABLE_BORDER
62
6
10
5.2200
20
-2.4300
30
0.0
11
5.2200
21
-2.7100
31
0.0
0
LINE
8
TABLE_BORDER
62
6
10
5.9000
20
-2.4300
30
0.0
11
5.9000
21
-2.7100
31
0.0
0
LINE
8
TABLE_BORDER
62
6
10
6.5800
20
-2.4300
30
0.0
11
6.5800
21
-2.7100
31
0.0
0
LINE
8
TABLE_BORDER
62
6
10
7.3800
20
-2.4300
30
0.0
11
7.3800
21
-2.7100
31
0.0
0
LINE
8
TABLE_BORDER
62
6
10
7.9300
20
-2.4300
30
0.0
11
7.9300
21
-2.7100
31
0.0
0
LINE
8
TABLE_BORDER
62
6
10
8.4300
20
-2.4300
30
0.0
11
8.4300
21
-2.7100
31
0.0
0
LINE
8
TABLE_BORDER
62
6
10
9.1800
20
-2.4300
30
0.0
11
9.1800
21
-2.7100
31
0.0
0
LINE
8
TABLE_BORDER
62
6
10
9.9300
20
-2.4300
30
0.0
11
9.9300
21
-2.7100
31
0.0
0
LINE
8
TABLE_BORDER
62
6
10
10.8300
20
-2.4300
30
0.0
11
10.8300
21
-2.7100
31
0.0
0
LINE
8
TABLE_BORDER
62
6
10
11.7800
20
-2.4300
30
0.0
11
11.7800
21
-2.7100
31
0.0
0
LINE
8
TABLE_BORDER
62
6
10
0.0000
20
-2.7100
30
0.0
11
11.7800
21
-2.7100
31
0.0
0
LINE
8
TABLE_BORDER
62
6
10
0.0000
20
-2.9900
30
0.0
11
11.7800
21
-2.9900
31
0.0
0
LINE
8
TABLE_BORDER
62
6
10
0.0000
20
-2.7100
30
0.0
11
0.0000
21
-2.9900
31
0.0
0
LINE
8
TABLE_BORDER
62
6
10
11.7800
20
-2.7100
30
0.0
11
11.7800
21
-2.9900
31
0.0
0
TEXT
8
TABLE_DATA
62
7
10
0.0400
20
-2.8500
30
0.0
40
0.1000
1
8
7
SIMPLEX
72
0
11
0.0400
21
-2.8500
31
0.0
0
LINE
8
TABLE_BORDER
62
6
10
0.0000
20
-2.7100
30
0.0
11
0.0000
21
-2.9900
31
0.0
0
LINE
8
TABLE_BORDER
62
6
10
0.3000
20
-2.7100
30
0.0
11
0.3000
21
-2.9900
31
0.0
0
TEXT
8
TABLE_DATA
62
7
10
1.2900
20
-2.8500
30
0.0
40
0.1000
1
Reducer
7
SIMPLEX
72
0
11
1.2900
21
-2.8500
31
0.0
0
LINE
8
TABLE_BORDER
62
6
10
1.2500
20
-2.7100
30
0.0
11
1.2500
21
-2.9900
31
0.0
0
TEXT
8
TABLE_DATA
62
7
10
1.9400
20
-2.8500
30
0.0
40
0.1000
1
JEA
7
SIMPLEX
72
0
11
1.9400
21
-2.8500
31
0.0
0
LINE
8
TABLE_BORDER
62
6
10
1.9000
20
-2.7100
30
0.0
11
1.9000
21
-2.9900
31
0.0
0
TEXT
8
TABLE_DATA
62
7
10
2.6600
20
-2.8500
30
0.0
40
0.1000
1
OPERATING
7
SIMPLEX
72
0
11
2.6600
21
-2.8500
31
0.0
0
LINE
8
TABLE_BORDER
62
6
10
2.6200
20
-2.7100
30
0.0
11
2.6200
21
-2.9900
31
0.0
0
TEXT
8
TABLE_DATA
62
7
10
3.4600
20
-2.8500
30
0.0
40
0.1000
1
FITTING
7
SIMPLEX
72
0
11
3.4600
21
-2.8500
31
0.0
0
LINE
8
TABLE_BORDER
62
6
10
3.4200
20
-2.7100
30
0.0
11
3.4200
21
-2.9900
31
0.0
0
LINE
8
TABLE_BORDER
62
6
10
4.3200
20
-2.7100
30
0.0
11
4.3200
21
-2.9900
31
0.0
0
TEXT
8
TABLE_DATA
62
7
10
5.2600
20
-2.8500
30
0.0
40
0.1000
1
10"
7
SIMPLEX
72
0
11
5.2600
21
-2.8500
31
0.0
0
LINE
8
TABLE_BORDER
62
6
10
5.2200
20
-2.7100
30
0.0
11
5.2200
21
-2.9900
31
0.0
0
LINE
8
TABLE_BORDER
62
6
10
5.9000
20
-2.7100
30
0.0
11
5.9000
21
-2.9900
31
0.0
0
LINE
8
TABLE_BORDER
62
6
10
6.5800
20
-2.7100
30
0.0
11
6.5800
21
-2.9900
31
0.0
0
LINE
8
TABLE_BORDER
62
6
10
7.3800
20
-2.7100
30
0.0
11
7.3800
21
-2.9900
31
0.0
0
LINE
8
TABLE_BORDER
62
6
10
7.9300
20
-2.7100
30
0.0
11
7.9300
21
-2.9900
31
0.0
0
LINE
8
TABLE_BORDER
62
6
10
8.4300
20
-2.7100
30
0.0
11
8.4300
21
-2.9900
31
0.0
0
LINE
8
TABLE_BORDER
62
6
10
9.1800
20
-2.7100
30
0.0
11
9.1800
21
-2.9900
31
0.0
0
LINE
8
TABLE_BORDER
62
6
10
9.9300
20
-2.7100
30
0.0
11
9.9300
21
-2.9900
31
0.0
0
LINE
8
TABLE_BORDER
62
6
10
10.8300
20
-2.7100
30
0.0
11
10.8300
21
-2.9900
31
0.0
0
LINE
8
TABLE_BORDER
62
6
10
11.7800
20
-2.7100
30
0.0
11
11.7800
21
-2.9900
31
0.0
0
LINE
8
TABLE_BORDER
62
6
10
0.0000
20
-2.9900
30
0.0
11
11.7800
21
-2.9900
31
0.0
0
LINE
8
TABLE_BORDER
62
6
10
0.0000
20
-3.2700
30
0.0
11
11.7800
21
-3.2700
31
0.0
0
LINE
8
TABLE_BORDER
62
6
10
0.0000
20
-2.9900
30
0.0
11
0.0000
21
-3.2700
31
0.0
0
LINE
8
TABLE_BORDER
62
6
10
11.7800
20
-2.9900
30
0.0
11
11.7800
21
-3.2700
31
0.0
0
TEXT
8
TABLE_DATA
62
7
10
0.0400
20
-3.1300
30
0.0
40
0.1000
1
9
7
SIMPLEX
72
0
11
0.0400
21
-3.1300
31
0.0
0
LINE
8
TABLE_BORDER
62
6
10
0.0000
20
-2.9900
30
0.0
11
0.0000
21
-3.2700
31
0.0
0
LINE
8
TABLE_BORDER
62
6
10
0.3000
20
-2.9900
30
0.0
11
0.3000
21
-3.2700
31
0.0
0
TEXT
8
TABLE_DATA
62
7
10
1.2900
20
-3.1300
30
0.0
40
0.1000
1
Reducer
7
SIMPLEX
72
0
11
1.2900
21
-3.1300
31
0.0
0
LINE
8
TABLE_BORDER
62
6
10
1.2500
20
-2.9900
30
0.0
11
1.2500
21
-3.2700
31
0.0
0
TEXT
8
TABLE_DATA
62
7
10
1.9400
20
-3.1300
30
0.0
40
0.1000
1
JEA
7
SIMPLEX
72
0
11
1.9400
21
-3.1300
31
0.0
0
LINE
8
TABLE_BORDER
62
6
10
1.9000
20
-2.9900
30
0.0
11
1.9000
21
-3.2700
31
0.0
0
TEXT
8
TABLE_DATA
62
7
10
2.6600
20
-3.1300
30
0.0
40
0.1000
1
OPERATING
7
SIMPLEX
72
0
11
2.6600
21
-3.1300
31
0.0
0
LINE
8
TABLE_BORDER
62
6
10
2.6200
20
-2.9900
30
0.0
11
2.6200
21
-3.2700
31
0.0
0
TEXT
8
TABLE_DATA
62
7
10
3.4600
20
-3.1300
30
0.0
40
0.1000
1
FITTING
7
SIMPLEX
72
0
11
3.4600
21
-3.1300
31
0.0
0
LINE
8
TABLE_BORDER
62
6
10
3.4200
20
-2.9900
30
0.0
11
3.4200
21
-3.2700
31
0.0
0
LINE
8
TABLE_BORDER
62
6
10
4.3200
20
-2.9900
30
0.0
11
4.3200
21
-3.2700
31
0.0
0
TEXT
8
TABLE_DATA
62
7
10
5.2600
20
-3.1300
30
0.0
40
0.1000
1
10"
7
SIMPLEX
72
0
11
5.2600
21
-3.1300
31
0.0
0
LINE
8
TABLE_BORDER
62
6
10
5.2200
20
-2.9900
30
0.0
11
5.2200
21
-3.2700
31
0.0
0
LINE
8
TABLE_BORDER
62
6
10
5.9000
20
-2.9900
30
0.0
11
5.9000
21
-3.2700
31
0.0
0
LINE
8
TABLE_BORDER
62
6
10
6.5800
20
-2.9900
30
0.0
11
6.5800
21
-3.2700
31
0.0
0
LINE
8
TABLE_BORDER
62
6
10
7.3800
20
-2.9900
30
0.0
11
7.3800
21
-3.2700
31
0.0
0
LINE
8
TABLE_BORDER
62
6
10
7.9300
20
-2.9900
30
0.0
11
7.9300
21
-3.2700
31
0.0
0
LINE
8
TABLE_BORDER
62
6
10
8.4300
20
-2.9900
30
0.0
11
8.4300
21
-3.2700
31
0.0
0
LINE
8
TABLE_BORDER
62
6
10
9.1800
20
-2.9900
30
0.0
11
9.1800
21
-3.2700
31
0.0
0
LINE
8
TABLE_BORDER
62
6
10
9.9300
20
-2.9900
30
0.0
11
9.9300
21
-3.2700
31
0.0
0
LINE
8
TABLE_BORDER
62
6
10
10.8300
20
-2.9900
30
0.0
11
10.8300
21
-3.2700
31
0.0
0
LINE
8
TABLE_BORDER
62
6
10
11.7800
20
-2.9900
30
0.0
11
11.7800
21
-3.2700
31
0.0
0
LINE
8
TABLE_BORDER
62
6
10
0.0000
20
-3.2700
30
0.0
11
11.7800
21
-3.2700
31
0.0
0
LINE
8
TABLE_BORDER
62
6
10
0.0000
20
-3.5500
30
0.0
11
11.7800
21
-3.5500
31
0.0
0
LINE
8
TABLE_BORDER
62
6
10
0.0000
20
-3.2700
30
0.0
11
0.0000
21
-3.5500
31
0.0
0
LINE
8
TABLE_BORDER
62
6
10
11.7800
20
-3.2700
30
0.0
11
11.7800
21
-3.5500
31
0.0
0
TEXT
8
TABLE_DATA
62
7
10
0.0400
20
-3.4100
30
0.0
40
0.1000
1
10
7
SIMPLEX
72
0
11
0.0400
21
-3.4100
31
0.0
0
LINE
8
TABLE_BORDER
62
6
10
0.0000
20
-3.2700
30
0.0
11
0.0000
21
-3.5500
31
0.0
0
LINE
8
TABLE_BORDER
62
6
10
0.3000
20
-3.2700
30
0.0
11
0.3000
21
-3.5500
31
0.0
0
TEXT
8
TABLE_DATA
62
7
10
1.2900
20
-3.4100
30
0.0
40
0.1000
1
Sleeve
7
SIMPLEX
72
0
11
1.2900
21
-3.4100
31
0.0
0
LINE
8
TABLE_BORDER
62
6
10
1.2500
20
-3.2700
30
0.0
11
1.2500
21
-3.5500
31
0.0
0
TEXT
8
TABLE_DATA
62
7
10
1.9400
20
-3.4100
30
0.0
40
0.1000
1
JEA
7
SIMPLEX
72
0
11
1.9400
21
-3.4100
31
0.0
0
LINE
8
TABLE_BORDER
62
6
10
1.9000
20
-3.2700
30
0.0
11
1.9000
21
-3.5500
31
0.0
0
TEXT
8
TABLE_DATA
62
7
10
2.6600
20
-3.4100
30
0.0
40
0.1000
1
OPERATING
7
SIMPLEX
72
0
11
2.6600
21
-3.4100
31
0.0
0
LINE
8
TABLE_BORDER
62
6
10
2.6200
20
-3.2700
30
0.0
11
2.6200
21
-3.5500
31
0.0
0
TEXT
8
TABLE_DATA
62
7
10
3.4600
20
-3.4100
30
0.0
40
0.1000
1
FITTING
7
SIMPLEX
72
0
11
3.4600
21
-3.4100
31
0.0
0
LINE
8
TABLE_BORDER
62
6
10
3.4200
20
-3.2700
30
0.0
11
3.4200
21
-3.5500
31
0.0
0
LINE
8
TABLE_BORDER
62
6
10
4.3200
20
-3.2700
30
0.0
11
4.3200
21
-3.5500
31
0.0
0
TEXT
8
TABLE_DATA
62
7
10
5.2600
20
-3.4100
30
0.0
40
0.1000
1
6"
7
SIMPLEX
72
0
11
5.2600
21
-3.4100
31
0.0
0
LINE
8
TABLE_BORDER
62
6
10
5.2200
20
-3.2700
30
0.0
11
5.2200
21
-3.5500
31
0.0
0
LINE
8
TABLE_BORDER
62
6
10
5.9000
20
-3.2700
30
0.0
11
5.9000
21
-3.5500
31
0.0
0
LINE
8
TABLE_BORDER
62
6
10
6.5800
20
-3.2700
30
0.0
11
6.5800
21
-3.5500
31
0.0
0
LINE
8
TABLE_BORDER
62
6
10
7.3800
20
-3.2700
30
0.0
11
7.3800
21
-3.5500
31
0.0
0
LINE
8
TABLE_BORDER
62
6
10
7.9300
20
-3.2700
30
0.0
11
7.9300
21
-3.5500
31
0.0
0
LINE
8
TABLE_BORDER
62
6
10
8.4300
20
-3.2700
30
0.0
11
8.4300
21
-3.5500
31
0.0
0
LINE
8
TABLE_BORDER
62
6
10
9.1800
20
-3.2700
30
0.0
11
9.1800
21
-3.5500
31
0.0
0
LINE
8
TABLE_BORDER
62
6
10
9.9300
20
-3.2700
30
0.0
11
9.9300
21
-3.5500
31
0.0
0
LINE
8
TABLE_BORDER
62
6
10
10.8300
20
-3.2700
30
0.0
11
10.8300
21
-3.5500
31
0.0
0
LINE
8
TABLE_BORDER
62
6
10
11.7800
20
-3.2700
30
0.0
11
11.7800
21
-3.5500
31
0.0
0
LINE
8
TABLE_BORDER
62
6
10
0.0000
20
-3.5500
30
0.0
11
11.7800
21
-3.5500
31
0.0
0
LINE
8
TABLE_BORDER
62
6
10
0.0000
20
-3.8300
30
0.0
11
11.7800
21
-3.8300
31
0.0
0
LINE
8
TABLE_BORDER
62
6
10
0.0000
20
-3.5500
30
0.0
11
0.0000
21
-3.8300
31
0.0
0
LINE
8
TABLE_BORDER
62
6
10
11.7800
20
-3.5500
30
0.0
11
11.7800
21
-3.8300
31
0.0
0
TEXT
8
TABLE_DATA
62
7
10
0.0400
20
-3.6900
30
0.0
40
0.1000
1
11
7
SIMPLEX
72
0
11
0.0400
21
-3.6900
31
0.0
0
LINE
8
TABLE_BORDER
62
6
10
0.0000
20
-3.5500
30
0.0
11
0.0000
21
-3.8300
31
0.0
0
LINE
8
TABLE_BORDER
62
6
10
0.3000
20
-3.5500
30
0.0
11
0.3000
21
-3.8300
31
0.0
0
TEXT
8
TABLE_DATA
62
7
10
1.2900
20
-3.6900
30
0.0
40
0.1000
1
Sleeve
7
SIMPLEX
72
0
11
1.2900
21
-3.6900
31
0.0
0
LINE
8
TABLE_BORDER
62
6
10
1.2500
20
-3.5500
30
0.0
11
1.2500
21
-3.8300
31
0.0
0
TEXT
8
TABLE_DATA
62
7
10
1.9400
20
-3.6900
30
0.0
40
0.1000
1
JEA
7
SIMPLEX
72
0
11
1.9400
21
-3.6900
31
0.0
0
LINE
8
TABLE_BORDER
62
6
10
1.9000
20
-3.5500
30
0.0
11
1.9000
21
-3.8300
31
0.0
0
TEXT
8
TABLE_DATA
62
7
10
2.6600
20
-3.6900
30
0.0
40
0.1000
1
OPERATING
7
SIMPLEX
72
0
11
2.6600
21
-3.6900
31
0.0
0
LINE
8
TABLE_BORDER
62
6
10
2.6200
20
-3.5500
30
0.0
11
2.6200
21
-3.8300
31
0.0
0
TEXT
8
TABLE_DATA
62
7
10
3.4600
20
-3.6900
30
0.0
40
0.1000
1
FITTING
7
SIMPLEX
72
0
11
3.4600
21
-3.6900
31
0.0
0
LINE
8
TABLE_BORDER
62
6
10
3.4200
20
-3.5500
30
0.0
11
3.4200
21
-3.8300
31
0.0
0
LINE
8
TABLE_BORDER
62
6
10
4.3200
20
-3.5500
30
0.0
11
4.3200
21
-3.8300
31
0.0
0
TEXT
8
TABLE_DATA
62
7
10
5.2600
20
-3.6900
30
0.0
40
0.1000
1
8"
7
SIMPLEX
72
0
11
5.2600
21
-3.6900
31
0.0
0
LINE
8
TABLE_BORDER
62
6
10
5.2200
20
-3.5500
30
0.0
11
5.2200
21
-3.8300
31
0.0
0
LINE
8
TABLE_BORDER
62
6
10
5.9000
20
-3.5500
30
0.0
11
5.9000
21
-3.8300
31
0.0
0
LINE
8
TABLE_BORDER
62
6
10
6.5800
20
-3.5500
30
0.0
11
6.5800
21
-3.8300
31
0.0
0
LINE
8
TABLE_BORDER
62
6
10
7.3800
20
-3.5500
30
0.0
11
7.3800
21
-3.8300
31
0.0
0
LINE
8
TABLE_BORDER
62
6
10
7.9300
20
-3.5500
30
0.0
11
7.9300
21
-3.8300
31
0.0
0
LINE
8
TABLE_BORDER
62
6
10
8.4300
20
-3.5500
30
0.0
11
8.4300
21
-3.8300
31
0.0
0
LINE
8
TABLE_BORDER
62
6
10
9.1800
20
-3.5500
30
0.0
11
9.1800
21
-3.8300
31
0.0
0
LINE
8
TABLE_BORDER
62
6
10
9.9300
20
-3.5500
30
0.0
11
9.9300
21
-3.8300
31
0.0
0
LINE
8
TABLE_BORDER
62
6
10
10.8300
20
-3.5500
30
0.0
11
10.8300
21
-3.8300
31
0.0
0
LINE
8
TABLE_BORDER
62
6
10
11.7800
20
-3.5500
30
0.0
11
11.7800
21
-3.8300
31
0.0
0
LINE
8
TABLE_BORDER
62
6
10
0.0000
20
-3.8300
30
0.0
11
11.7800
21
-3.8300
31
0.0
0
LINE
8
TABLE_BORDER
62
6
10
0.0000
20
-4.1100
30
0.0
11
11.7800
21
-4.1100
31
0.0
0
LINE
8
TABLE_BORDER
62
6
10
0.0000
20
-3.8300
30
0.0
11
0.0000
21
-4.1100
31
0.0
0
LINE
8
TABLE_BORDER
62
6
10
11.7800
20
-3.8300
30
0.0
11
11.7800
21
-4.1100
31
0.0
0
TEXT
8
TABLE_DATA
62
7
10
0.0400
20
-3.9700
30
0.0
40
0.1000
1
12
7
SIMPLEX
72
0
11
0.0400
21
-3.9700
31
0.0
0
LINE
8
TABLE_BORDER
62
6
10
0.0000
20
-3.8300
30
0.0
11
0.0000
21
-4.1100
31
0.0
0
LINE
8
TABLE_BORDER
62
6
10
0.3000
20
-3.8300
30
0.0
11
0.3000
21
-4.1100
31
0.0
0
TEXT
8
TABLE_DATA
62
7
10
1.2900
20
-3.9700
30
0.0
40
0.1000
1
Tee
7
SIMPLEX
72
0
11
1.2900
21
-3.9700
31
0.0
0
LINE
8
TABLE_BORDER
62
6
10
1.2500
20
-3.8300
30
0.0
11
1.2500
21
-4.1100
31
0.0
0
TEXT
8
TABLE_DATA
62
7
10
1.9400
20
-3.9700
30
0.0
40
0.1000
1
JEA
7
SIMPLEX
72
0
11
1.9400
21
-3.9700
31
0.0
0
LINE
8
TABLE_BORDER
62
6
10
1.9000
20
-3.8300
30
0.0
11
1.9000
21
-4.1100
31
0.0
0
TEXT
8
TABLE_DATA
62
7
10
2.6600
20
-3.9700
30
0.0
40
0.1000
1
OPERATING
7
SIMPLEX
72
0
11
2.6600
21
-3.9700
31
0.0
0
LINE
8
TABLE_BORDER
62
6
10
2.6200
20
-3.8300
30
0.0
11
2.6200
21
-4.1100
31
0.0
0
TEXT
8
TABLE_DATA
62
7
10
3.4600
20
-3.9700
30
0.0
40
0.1000
1
FITTING
7
SIMPLEX
72
0
11
3.4600
21
-3.9700
31
0.0
0
LINE
8
TABLE_BORDER
62
6
10
3.4200
20
-3.8300
30
0.0
11
3.4200
21
-4.1100
31
0.0
0
LINE
8
TABLE_BORDER
62
6
10
4.3200
20
-3.8300
30
0.0
11
4.3200
21
-4.1100
31
0.0
0
TEXT
8
TABLE_DATA
62
7
10
5.2600
20
-3.9700
30
0.0
40
0.1000
1
8"
7
SIMPLEX
72
0
11
5.2600
21
-3.9700
31
0.0
0
LINE
8
TABLE_BORDER
62
6
10
5.2200
20
-3.8300
30
0.0
11
5.2200
21
-4.1100
31
0.0
0
LINE
8
TABLE_BORDER
62
6
10
5.9000
20
-3.8300
30
0.0
11
5.9000
21
-4.1100
31
0.0
0
LINE
8
TABLE_BORDER
62
6
10
6.5800
20
-3.8300
30
0.0
11
6.5800
21
-4.1100
31
0.0
0
LINE
8
TABLE_BORDER
62
6
10
7.3800
20
-3.8300
30
0.0
11
7.3800
21
-4.1100
31
0.0
0
LINE
8
TABLE_BORDER
62
6
10
7.9300
20
-3.8300
30
0.0
11
7.9300
21
-4.1100
31
0.0
0
LINE
8
TABLE_BORDER
62
6
10
8.4300
20
-3.8300
30
0.0
11
8.4300
21
-4.1100
31
0.0
0
LINE
8
TABLE_BORDER
62
6
10
9.1800
20
-3.8300
30
0.0
11
9.1800
21
-4.1100
31
0.0
0
LINE
8
TABLE_BORDER
62
6
10
9.9300
20
-3.8300
30
0.0
11
9.9300
21
-4.1100
31
0.0
0
LINE
8
TABLE_BORDER
62
6
10
10.8300
20
-3.8300
30
0.0
11
10.8300
21
-4.1100
31
0.0
0
LINE
8
TABLE_BORDER
62
6
10
11.7800
20
-3.8300
30
0.0
11
11.7800
21
-4.1100
31
0.0
0
LINE
8
TABLE_BORDER
62
6
10
0.0000
20
-4.1100
30
0.0
11
11.7800
21
-4.1100
31
0.0
0
LINE
8
TABLE_BORDER
62
6
10
0.0000
20
-4.3900
30
0.0
11
11.7800
21
-4.3900
31
0.0
0
LINE
8
TABLE_BORDER
62
6
10
0.0000
20
-4.1100
30
0.0
11
0.0000
21
-4.3900
31
0.0
0
LINE
8
TABLE_BORDER
62
6
10
11.7800
20
-4.1100
30
0.0
11
11.7800
21
-4.3900
31
0.0
0
TEXT
8
TABLE_DATA
62
7
10
0.0400
20
-4.2500
30
0.0
40
0.1000
1
13
7
SIMPLEX
72
0
11
0.0400
21
-4.2500
31
0.0
0
LINE
8
TABLE_BORDER
62
6
10
0.0000
20
-4.1100
30
0.0
11
0.0000
21
-4.3900
31
0.0
0
LINE
8
TABLE_BORDER
62
6
10
0.3000
20
-4.1100
30
0.0
11
0.3000
21
-4.3900
31
0.0
0
TEXT
8
TABLE_DATA
62
7
10
1.2900
20
-4.2500
30
0.0
40
0.1000
1
Tee
7
SIMPLEX
72
0
11
1.2900
21
-4.2500
31
0.0
0
LINE
8
TABLE_BORDER
62
6
10
1.2500
20
-4.1100
30
0.0
11
1.2500
21
-4.3900
31
0.0
0
TEXT
8
TABLE_DATA
62
7
10
1.9400
20
-4.2500
30
0.0
40
0.1000
1
JEA
7
SIMPLEX
72
0
11
1.9400
21
-4.2500
31
0.0
0
LINE
8
TABLE_BORDER
62
6
10
1.9000
20
-4.1100
30
0.0
11
1.9000
21
-4.3900
31
0.0
0
TEXT
8
TABLE_DATA
62
7
10
2.6600
20
-4.2500
30
0.0
40
0.1000
1
OPERATING
7
SIMPLEX
72
0
11
2.6600
21
-4.2500
31
0.0
0
LINE
8
TABLE_BORDER
62
6
10
2.6200
20
-4.1100
30
0.0
11
2.6200
21
-4.3900
31
0.0
0
TEXT
8
TABLE_DATA
62
7
10
3.4600
20
-4.2500
30
0.0
40
0.1000
1
FITTING
7
SIMPLEX
72
0
11
3.4600
21
-4.2500
31
0.0
0
LINE
8
TABLE_BORDER
62
6
10
3.4200
20
-4.1100
30
0.0
11
3.4200
21
-4.3900
31
0.0
0
LINE
8
TABLE_BORDER
62
6
10
4.3200
20
-4.1100
30
0.0
11
4.3200
21
-4.3900
31
0.0
0
TEXT
8
TABLE_DATA
62
7
10
5.2600
20
-4.2500
30
0.0
40
0.1000
1
6"
7
SIMPLEX
72
0
11
5.2600
21
-4.2500
31
0.0
0
LINE
8
TABLE_BORDER
62
6
10
5.2200
20
-4.1100
30
0.0
11
5.2200
21
-4.3900
31
0.0
0
LINE
8
TABLE_BORDER
62
6
10
5.9000
20
-4.1100
30
0.0
11
5.9000
21
-4.3900
31
0.0
0
LINE
8
TABLE_BORDER
62
6
10
6.5800
20
-4.1100
30
0.0
11
6.5800
21
-4.3900
31
0.0
0
LINE
8
TABLE_BORDER
62
6
10
7.3800
20
-4.1100
30
0.0
11
7.3800
21
-4.3900
31
0.0
0
LINE
8
TABLE_BORDER
62
6
10
7.9300
20
-4.1100
30
0.0
11
7.9300
21
-4.3900
31
0.0
0
LINE
8
TABLE_BORDER
62
6
10
8.4300
20
-4.1100
30
0.0
11
8.4300
21
-4.3900
31
0.0
0
LINE
8
TABLE_BORDER
62
6
10
9.1800
20
-4.1100
30
0.0
11
9.1800
21
-4.3900
31
0.0
0
LINE
8
TABLE_BORDER
62
6
10
9.9300
20
-4.1100
30
0.0
11
9.9300
21
-4.3900
31
0.0
0
LINE
8
TABLE_BORDER
62
6
10
10.8300
20
-4.1100
30
0.0
11
10.8300
21
-4.3900
31
0.0
0
LINE
8
TABLE_BORDER
62
6
10
11.7800
20
-4.1100
30
0.0
11
11.7800
21
-4.3900
31
0.0
0
LINE
8
TABLE_BORDER
62
6
10
0.0000
20
-4.3900
30
0.0
11
11.7800
21
-4.3900
31
0.0
0
LINE
8
TABLE_BORDER
62
6
10
0.0000
20
-4.6700
30
0.0
11
11.7800
21
-4.6700
31
0.0
0
LINE
8
TABLE_BORDER
62
6
10
0.0000
20
-4.3900
30
0.0
11
0.0000
21
-4.6700
31
0.0
0
LINE
8
TABLE_BORDER
62
6
10
11.7800
20
-4.3900
30
0.0
11
11.7800
21
-4.6700
31
0.0
0
TEXT
8
TABLE_DATA
62
7
10
0.0400
20
-4.5300
30
0.0
40
0.1000
1
14
7
SIMPLEX
72
0
11
0.0400
21
-4.5300
31
0.0
0
LINE
8
TABLE_BORDER
62
6
10
0.0000
20
-4.3900
30
0.0
11
0.0000
21
-4.6700
31
0.0
0
LINE
8
TABLE_BORDER
62
6
10
0.3000
20
-4.3900
30
0.0
11
0.3000
21
-4.6700
31
0.0
0
TEXT
8
TABLE_DATA
62
7
10
1.2900
20
-4.5300
30
0.0
40
0.1000
1
Tee
7
SIMPLEX
72
0
11
1.2900
21
-4.5300
31
0.0
0
LINE
8
TABLE_BORDER
62
6
10
1.2500
20
-4.3900
30
0.0
11
1.2500
21
-4.6700
31
0.0
0
TEXT
8
TABLE_DATA
62
7
10
1.9400
20
-4.5300
30
0.0
40
0.1000
1
JEA
7
SIMPLEX
72
0
11
1.9400
21
-4.5300
31
0.0
0
LINE
8
TABLE_BORDER
62
6
10
1.9000
20
-4.3900
30
0.0
11
1.9000
21
-4.6700
31
0.0
0
TEXT
8
TABLE_DATA
62
7
10
2.6600
20
-4.5300
30
0.0
40
0.1000
1
OPERATING
7
SIMPLEX
72
0
11
2.6600
21
-4.5300
31
0.0
0
LINE
8
TABLE_BORDER
62
6
10
2.6200
20
-4.3900
30
0.0
11
2.6200
21
-4.6700
31
0.0
0
TEXT
8
TABLE_DATA
62
7
10
3.4600
20
-4.5300
30
0.0
40
0.1000
1
FITTING
7
SIMPLEX
72
0
11
3.4600
21
-4.5300
31
0.0
0
LINE
8
TABLE_BORDER
62
6
10
3.4200
20
-4.3900
30
0.0
11
3.4200
21
-4.6700
31
0.0
0
LINE
8
TABLE_BORDER
62
6
10
4.3200
20
-4.3900
30
0.0
11
4.3200
21
-4.6700
31
0.0
0
TEXT
8
TABLE_DATA
62
7
10
5.2600
20
-4.5300
30
0.0
40
0.1000
1
6"
7
SIMPLEX
72
0
11
5.2600
21
-4.5300
31
0.0
0
LINE
8
TABLE_BORDER
62
6
10
5.2200
20
-4.3900
30
0.0
11
5.2200
21
-4.6700
31
0.0
0
LINE
8
TABLE_BORDER
62
6
10
5.9000
20
-4.3900
30
0.0
11
5.9000
21
-4.6700
31
0.0
0
LINE
8
TABLE_BORDER
62
6
10
6.5800
20
-4.3900
30
0.0
11
6.5800
21
-4.6700
31
0.0
0
LINE
8
TABLE_BORDER
62
6
10
7.3800
20
-4.3900
30
0.0
11
7.3800
21
-4.6700
31
0.0
0
LINE
8
TABLE_BORDER
62
6
10
7.9300
20
-4.3900
30
0.0
11
7.9300
21
-4.6700
31
0.0
0
LINE
8
TABLE_BORDER
62
6
10
8.4300
20
-4.3900
30
0.0
11
8.4300
21
-4.6700
31
0.0
0
LINE
8
TABLE_BORDER
62
6
10
9.1800
20
-4.3900
30
0.0
11
9.1800
21
-4.6700
31
0.0
0
LINE
8
TABLE_BORDER
62
6
10
9.9300
20
-4.3900
30
0.0
11
9.9300
21
-4.6700
31
0.0
0
LINE
8
TABLE_BORDER
62
6
10
10.8300
20
-4.3900
30
0.0
11
10.8300
21
-4.6700
31
0.0
0
LINE
8
TABLE_BORDER
62
6
10
11.7800
20
-4.3900
30
0.0
11
11.7800
21
-4.6700
31
0.0
0
ENDSEC
0
EOF
