0
SECTION
2
HEADER
9
$ACADVER
1
AC1009
0
ENDSEC
0
SECTION
2
BLOCKS
0
BLOCK
8
0
2
MANHOLE
70
0
10
0.0
20
0.0
30
0.0
0
CIRCLE
8
0
10
0.0000
20
0.0000
40
1.0000
0
TEXT
8
0
10
0.0000
20
0.0000
40
0.8000
1
M
0
ENDBLK
0
BLOCK
8
0
2
VALVE
70
0
10
0.0
20
0.0
30
0.0
0
LINE
8
0
10
-0.5000
20
-0.5000
11
0.5000
21
0.5000
0
LINE
8
0
10
-0.5000
20
0.5000
11
0.5000
21
-0.5000
0
LINE
8
0
10
-0.5000
20
-0.5000
11
-0.5000
21
0.5000
0
LINE
8
0
10
0.5000
20
-0.5000
11
0.5000
21
0.5000
0
ENDBLK
0
BLOCK
8
0
2
HYDRANT
70
0
10
0.0
20
0.0
30
0.0
0
CIRCLE
8
0
10
0.0000
20
0.0000
40
0.8000
0
LINE
8
0
10
-0.8000
20
0.0000
11
0.8000
21
0.0000
0
LINE
8
0
10
0.0000
20
-0.8000
11
0.0000
21
0.8000
0
ENDBLK
0
BLOCK
8
0
2
METER
70
0
10
0.0
20
0.0
30
0.0
0
LINE
8
0
10
-1.0000
20
-1.0000
11
1.0000
21
-1.0000
0
LINE
8
0
10
1.0000
20
-1.0000
11
1.0000
21
1.0000
0
LINE
8
0
10
1.0000
20
1.0000
11
-1.0000
21
1.0000
0
LINE
8
0
10
-1.0000
20
1.0000
11
-1.0000
21
-1.0000
0
TEXT
8
0
10
0.0000
20
0.0000
40
0.6000
1
Mtr
0
ENDBLK
0
BLOCK
8
0
2
BOX
70
0
10
0.0
20
0.0
30
0.0
0
LINE
8
0
10
-1.5000
20
-1.5000
11
1.5000
21
-1.5000
0
LINE
8
0
10
1.5000
20
-1.5000
11
1.5000
21
1.5000
0
LINE
8
0
10
1.5000
20
1.5000
11
-1.5000
21
1.5000
0
LINE
8
0
10
-1.5000
20
1.5000
11
-1.5000
21
-1.5000
0
LINE
8
0
10
-1.5000
20
-1.5000
11
1.5000
21
1.5000
0
LINE
8
0
10
-1.5000
20
1.5000
11
1.5000
21
-1.5000
0
ENDBLK
0
BLOCK
8
0
2
POLE
70
0
10
0.0
20
0.0
30
0.0
0
CIRCLE
8
0
10
0.0000
20
0.0000
40
0.5000
0
TEXT
8
0
10
0.0000
20
0.0000
40
0.4000
1
P
0
ENDBLK
0
BLOCK
8
0
2
FITTING
70
0
10
0.0
20
0.0
30
0.0
0
LINE
8
0
10
-0.5000
20
0.0000
11
0.5000
21
0.0000
0
LINE
8
0
10
0.0000
20
-0.5000
11
0.0000
21
0.5000
0
ENDBLK
0
ENDSEC
0
SECTION
2
ENTITIES
0
POINT
8
POINTS
10
4989.1663
20
4882.3337
30
0.0000
0
TEXT
8
POINT_IDS
10
4990.1663
20
4883.3337
40
0.5000
1
XC_8b1e5a
0
TEXT
8
POINT_DESC
10
4990.1663
20
4881.3337
40
0.4000
1
XC PTS Segment
0
POINT
8
POINTS
10
4990.5624
20
4879.0579
30
0.0000
0
TEXT
8
POINT_IDS
10
4991.5624
20
4880.0579
40
0.5000
1
XC_1bdf7e
0
TEXT
8
POINT_DESC
10
4991.5624
20
4878.0579
40
0.4000
1
XC PTS Segment
0
POINT
8
POINTS
10
4991.7217
20
4875.6911
30
0.0000
0
TEXT
8
POINT_IDS
10
4992.7217
20
4876.6911
40
0.5000
1
XC_1891e9
0
TEXT
8
POINT_DESC
10
4992.7217
20
4874.6911
40
0.4000
1
XC PTS Segment
0
POINT
8
POINTS
10
4992.6385
20
4872.2502
30
0.0000
0
TEXT
8
POINT_IDS
10
4993.6385
20
4873.2502
40
0.5000
1
XC_bfe241
0
TEXT
8
POINT_DESC
10
4993.6385
20
4871.2502
40
0.4000
1
XC PTS Segment
0
POINT
8
POINTS
10
4993.3081
20
4868.7529
30
0.0000
0
TEXT
8
POINT_IDS
10
4994.3081
20
4869.7529
40
0.5000
1
XC_3a84b3
0
TEXT
8
POINT_DESC
10
4994.3081
20
4867.7529
40
0.4000
1
XC PTS Segment
0
POINT
8
POINTS
10
4993.7271
20
4865.2168
30
0.0000
0
TEXT
8
POINT_IDS
10
4994.7271
20
4866.2168
40
0.5000
1
XC_17e005
0
TEXT
8
POINT_DESC
10
4994.7271
20
4864.2168
40
0.4000
1
XC PTS Segment
0
POINT
8
POINTS
10
4993.8933
20
4861.6598
30
0.0000
0
TEXT
8
POINT_IDS
10
4994.8933
20
4862.6598
40
0.5000
1
XC_c0fd13
0
TEXT
8
POINT_DESC
10
4994.8933
20
4860.6598
40
0.4000
1
XC PTS Segment
0
POINT
8
POINTS
10
4993.8060
20
4858.1000
30
0.0000
0
TEXT
8
POINT_IDS
10
4994.8060
20
4859.1000
40
0.5000
1
XC_2aad3a
0
TEXT
8
POINT_DESC
10
4994.8060
20
4857.1000
40
0.4000
1
XC PTS Segment
0
POINT
8
POINTS
10
4993.4655
20
4854.5555
30
0.0000
0
TEXT
8
POINT_IDS
10
4994.4655
20
4855.5555
40
0.5000
1
XC_b1f823
0
TEXT
8
POINT_DESC
10
4994.4655
20
4853.5555
40
0.4000
1
XC PTS Segment
0
POINT
8
POINTS
10
4992.8736
20
4851.0442
30
0.0000
0
TEXT
8
POINT_IDS
10
4993.8736
20
4852.0442
40
0.5000
1
XC_7f006f
0
TEXT
8
POINT_DESC
10
4993.8736
20
4850.0442
40
0.4000
1
XC PTS Segment
0
POINT
8
POINTS
10
4992.0333
20
4847.5839
30
0.0000
0
TEXT
8
POINT_IDS
10
4993.0333
20
4848.5839
40
0.5000
1
XC_7892f3
0
TEXT
8
POINT_DESC
10
4993.0333
20
4846.5839
40
0.4000
1
XC PTS Segment
0
POINT
8
POINTS
10
4943.8964
20
4861.1056
30
0.0000
0
TEXT
8
POINT_IDS
10
4944.8964
20
4862.1056
40
0.5000
1
12
0
TEXT
8
POINT_DESC
10
4944.8964
20
4860.1056
40
0.4000
1
RKRK Intersection (SOUTH)
0
POINT
8
POINTS
10
4955.8146
20
4965.0791
30
0.0000
0
TEXT
8
POINT_IDS
10
4956.8146
20
4966.0791
40
0.5000
1
11
0
TEXT
8
POINT_DESC
10
4956.8146
20
4964.0791
40
0.4000
1
L2
0
POINT
8
POINTS
10
4936.4983
20
4946.0858
30
0.0000
0
TEXT
8
POINT_IDS
10
4937.4983
20
4947.0858
40
0.5000
1
10
0
TEXT
8
POINT_DESC
10
4937.4983
20
4945.0858
40
0.4000
1
C3 Chord R=200.00 L=3.49
0
POINT
8
POINTS
10
4937.3645
20
4942.7050
30
0.0000
0
TEXT
8
POINT_IDS
10
4938.3645
20
4943.7050
40
0.5000
1
9
0
TEXT
8
POINT_DESC
10
4938.3645
20
4941.7050
40
0.4000
1
C4 Chord R=50.00 L=30.44
0
POINT
8
POINTS
10
4952.5868
20
4916.8770
30
0.0000
0
TEXT
8
POINT_IDS
10
4953.5868
20
4917.8770
40
0.5000
1
8
0
TEXT
8
POINT_DESC
10
4953.5868
20
4915.8770
40
0.4000
1
L3
0
POINT
8
POINTS
10
4987.5407
20
4885.5018
30
0.0000
0
TEXT
8
POINT_IDS
10
4988.5407
20
4886.5018
40
0.5000
1
7
0
TEXT
8
POINT_DESC
10
4988.5407
20
4884.5018
40
0.4000
1
C5 Chord R=30.00 L=45.75
0
POINT
8
POINTS
10
4990.9489
20
4844.1922
30
0.0000
0
TEXT
8
POINT_IDS
10
4991.9489
20
4845.1922
40
0.5000
1
6
0
TEXT
8
POINT_DESC
10
4991.9489
20
4843.1922
40
0.4000
1
L4
0
POINT
8
POINTS
10
4978.1189
20
4828.6806
30
0.0000
0
TEXT
8
POINT_IDS
10
4979.1189
20
4829.6806
40
0.5000
1
5
0
TEXT
8
POINT_DESC
10
4979.1189
20
4827.6806
40
0.4000
1
L5
0
POINT
8
POINTS
10
4986.1461
20
4822.4200
30
0.0000
0
TEXT
8
POINT_IDS
10
4987.1461
20
4823.4200
40
0.5000
1
4
0
TEXT
8
POINT_DESC
10
4987.1461
20
4821.4200
40
0.4000
1
L1
0
POINT
8
POINTS
10
5024.1820
20
4869.4295
30
0.0000
0
TEXT
8
POINT_IDS
10
5025.1820
20
4870.4295
40
0.5000
1
3
0
TEXT
8
POINT_DESC
10
5025.1820
20
4868.4295
40
0.4000
1
C1 Chord R=154.92 L=49.20
0
POINT
8
POINTS
10
5060.6169
20
4902.1788
30
0.0000
0
TEXT
8
POINT_IDS
10
5061.6169
20
4903.1788
40
0.5000
1
2
0
TEXT
8
POINT_DESC
10
5061.6169
20
4901.1788
40
0.4000
1
East boundary
0
POINT
8
POINTS
10
5000.0000
20
5000.0000
30
0.0000
0
TEXT
8
POINT_IDS
10
5001.0000
20
5001.0000
40
0.5000
1
1
0
TEXT
8
POINT_DESC
10
5001.0000
20
4999.0000
40
0.4000
1
POB
0
LINE
8
FIGURES
10
4955.8146
20
4965.0791
11
5000.0000
21
5000.0000
0
LINE
8
FIGURES
10
5000.0000
20
5000.0000
11
5060.6169
21
4902.1788
0
LINE
8
FIGURES
10
5060.6169
20
4902.1788
11
5024.1820
21
4869.4295
0
LINE
8
FIGURES
10
5024.1820
20
4869.4295
11
4986.1461
21
4822.4200
0
LINE
8
FIGURES
10
4986.1461
20
4822.4200
11
4978.1189
21
4828.6806
0
LINE
8
FIGURES
10
4978.1189
20
4828.6806
11
4990.9489
21
4844.1922
0
LINE
8
FIGURES
10
4990.9489
20
4844.1922
11
4992.0333
21
4847.5839
0
LINE
8
FIGURES
10
4992.0333
20
4847.5839
11
4992.8736
21
4851.0442
0
LINE
8
FIGURES
10
4992.8736
20
4851.0442
11
4993.4655
21
4854.5555
0
LINE
8
FIGURES
10
4993.4655
20
4854.5555
11
4993.8060
21
4858.1000
0
LINE
8
FIGURES
10
4993.8060
20
4858.1000
11
4993.8933
21
4861.6598
0
LINE
8
FIGURES
10
4993.8933
20
4861.6598
11
4993.7271
21
4865.2168
0
LINE
8
FIGURES
10
4993.7271
20
4865.2168
11
4993.3081
21
4868.7529
0
LINE
8
FIGURES
10
4993.3081
20
4868.7529
11
4992.6385
21
4872.2502
0
LINE
8
FIGURES
10
4992.6385
20
4872.2502
11
4991.7217
21
4875.6911
0
LINE
8
FIGURES
10
4991.7217
20
4875.6911
11
4990.5624
21
4879.0579
0
LINE
8
FIGURES
10
4990.5624
20
4879.0579
11
4989.1663
21
4882.3337
0
LINE
8
FIGURES
10
4989.1663
20
4882.3337
11
4987.5407
21
4885.5018
0
LINE
8
FIGURES
10
4987.5407
20
4885.5018
11
4952.5868
21
4916.8770
0
LINE
8
FIGURES
10
4952.5868
20
4916.8770
11
4937.3645
21
4942.7050
0
LINE
8
FIGURES
10
4937.3645
20
4942.7050
11
4936.4983
21
4946.0858
0
LINE
8
FIGURES
10
4936.4983
20
4946.0858
11
4955.8146
21
4965.0791
0
TEXT
8
FIGURE_LABELS
10
4977.9073
20
4982.5396
40
1.0000
1
N 51° 40' 47" E  56.32
50
38.3203
0
TEXT
8
FIGURE_LABELS
10
5030.3085
20
4951.0894
40
1.0000
1
S 31° 47' 07" E  115.08
50
-58.2147
0
TEXT
8
FIGURE_LABELS
10
5042.3995
20
4885.8041
40
1.0000
1
S 48° 02' 58" W  48.99
50
41.9506
0
TEXT
8
FIGURE_LABELS
10
5005.1641
20
4845.9247
40
1.0000
1
S 38° 58' 36" W  60.47
50
51.0233
0
TEXT
8
FIGURE_LABELS
10
4982.1325
20
4825.5503
40
1.0000
1
N 52° 02' 55" W  10.18
50
-37.9514
0
TEXT
8
FIGURE_LABELS
10
4984.5339
20
4836.4364
40
1.0000
1
N 39° 35' 42" E  20.13
50
50.4050
0
TEXT
8
FIGURE_LABELS
10
4989.2448
20
4864.8470
40
1.0000
1
C: L=42.73 R=50.00  Chd: N 4° 42' 59" W  41.45
50
-85.2836
0
TEXT
8
FIGURE_LABELS
10
4970.0637
20
4901.1894
40
1.0000
1
N 48° 05' 18" W  46.97
50
-41.9117
0
TEXT
8
FIGURE_LABELS
10
4944.9756
20
4929.7910
40
1.0000
1
N 30° 30' 50" W  29.98
50
-59.4861
0
TEXT
8
FIGURE_LABELS
10
4936.9314
20
4944.3954
40
1.0000
1
N 14° 22' 16" W  3.49
50
-75.6289
0
TEXT
8
FIGURE_LABELS
10
4946.1565
20
4955.5824
40
1.0000
1
N 45° 28' 59" E  27.09
50
44.5169
0
ENDSEC
0
EOF
