0
SECTION
2
HEADER
9
$ACADVER
1
AC1009
0
ENDSEC
0
SECTION
2
BLOCKS
0
BLOCK
8
0
2
MANHOLE
70
0
10
0.0
20
0.0
30
0.0
0
CIRCLE
8
0
10
0.0000
20
0.0000
40
1.0000
0
TEXT
8
0
10
0.0000
20
0.0000
40
0.8000
1
M
0
ENDBLK
0
BLOCK
8
0
2
VALVE
70
0
10
0.0
20
0.0
30
0.0
0
LINE
8
0
10
-0.5000
20
-0.5000
11
0.5000
21
0.5000
0
LINE
8
0
10
-0.5000
20
0.5000
11
0.5000
21
-0.5000
0
LINE
8
0
10
-0.5000
20
-0.5000
11
-0.5000
21
0.5000
0
LINE
8
0
10
0.5000
20
-0.5000
11
0.5000
21
0.5000
0
ENDBLK
0
BLOCK
8
0
2
HYDRANT
70
0
10
0.0
20
0.0
30
0.0
0
CIRCLE
8
0
10
0.0000
20
0.0000
40
0.8000
0
LINE
8
0
10
-0.8000
20
0.0000
11
0.8000
21
0.0000
0
LINE
8
0
10
0.0000
20
-0.8000
11
0.0000
21
0.8000
0
ENDBLK
0
BLOCK
8
0
2
METER
70
0
10
0.0
20
0.0
30
0.0
0
LINE
8
0
10
-1.0000
20
-1.0000
11
1.0000
21
-1.0000
0
LINE
8
0
10
1.0000
20
-1.0000
11
1.0000
21
1.0000
0
LINE
8
0
10
1.0000
20
1.0000
11
-1.0000
21
1.0000
0
LINE
8
0
10
-1.0000
20
1.0000
11
-1.0000
21
-1.0000
0
TEXT
8
0
10
0.0000
20
0.0000
40
0.6000
1
Mtr
0
ENDBLK
0
BLOCK
8
0
2
BOX
70
0
10
0.0
20
0.0
30
0.0
0
LINE
8
0
10
-1.5000
20
-1.5000
11
1.5000
21
-1.5000
0
LINE
8
0
10
1.5000
20
-1.5000
11
1.5000
21
1.5000
0
LINE
8
0
10
1.5000
20
1.5000
11
-1.5000
21
1.5000
0
LINE
8
0
10
-1.5000
20
1.5000
11
-1.5000
21
-1.5000
0
LINE
8
0
10
-1.5000
20
-1.5000
11
1.5000
21
1.5000
0
LINE
8
0
10
-1.5000
20
1.5000
11
1.5000
21
-1.5000
0
ENDBLK
0
BLOCK
8
0
2
POLE
70
0
10
0.0
20
0.0
30
0.0
0
CIRCLE
8
0
10
0.0000
20
0.0000
40
0.5000
0
TEXT
8
0
10
0.0000
20
0.0000
40
0.4000
1
P
0
ENDBLK
0
BLOCK
8
0
2
FITTING
70
0
10
0.0
20
0.0
30
0.0
0
LINE
8
0
10
-0.5000
20
0.0000
11
0.5000
21
0.0000
0
LINE
8
0
10
0.0000
20
-0.5000
11
0.0000
21
0.5000
0
ENDBLK
0
ENDSEC
0
SECTION
2
ENTITIES
0
POINT
8
POINTS
10
10000.0000
20
10000.0000
30
0.0000
0
TEXT
8
POINT_IDS
10
10001.0000
20
10001.0000
40
0.5000
1
1
0
TEXT
8
POINT_DESC
10
10001.0000
20
9999.0000
40
0.4000
1
NW Cor Sec 22
0
POINT
8
POINTS
10
10080.1232
20
10001.6387
30
0.0000
0
TEXT
8
POINT_IDS
10
10081.1232
20
10002.6387
40
0.5000
1
2
0
TEXT
8
POINT_DESC
10
10081.1232
20
10000.6387
40
0.4000
1
POB
0
POINT
8
POINTS
10
13011.4302
20
10061.5907
30
0.0000
0
TEXT
8
POINT_IDS
10
13012.4302
20
10062.5907
40
0.5000
1
3
0
TEXT
8
POINT_DESC
10
13012.4302
20
10060.5907
40
0.4000
1
North line Sec 22
0
POINT
8
POINTS
10
12893.2183
20
10726.6667
30
0.0000
0
TEXT
8
POINT_IDS
10
12894.2183
20
10727.6667
40
0.5000
1
4
0
TEXT
8
POINT_DESC
10
12894.2183
20
10725.6667
40
0.4000
1
Line
0
POINT
8
POINTS
10
13128.3596
20
10746.7807
30
0.0000
0
TEXT
8
POINT_IDS
10
13129.3596
20
10747.7807
40
0.5000
1
5
0
TEXT
8
POINT_DESC
10
13129.3596
20
10745.7807
40
0.4000
1
To West Line Sec 43
0
POINT
8
POINTS
10
12896.5624
20
11575.0157
30
0.0000
0
TEXT
8
POINT_IDS
10
12897.5624
20
11576.0157
40
0.5000
1
6
0
TEXT
8
POINT_DESC
10
12897.5624
20
11574.0157
40
0.4000
1
West Line Sec 43
0
POINT
8
POINTS
10
13305.8793
20
11736.9357
30
0.0000
0
TEXT
8
POINT_IDS
10
13306.8793
20
11737.9357
40
0.5000
1
7
0
TEXT
8
POINT_DESC
10
13306.8793
20
11735.9357
40
0.4000
1
Chord - SR 200 ROW
0
POINT
8
POINTS
10
13485.8963
20
11811.8429
30
0.0000
0
TEXT
8
POINT_IDS
10
13486.8963
20
11812.8429
40
0.5000
1
8
0
TEXT
8
POINT_DESC
10
13486.8963
20
11810.8429
40
0.4000
1
SR 200 ROW
0
POINT
8
POINTS
10
13582.3252
20
11580.1050
30
0.0000
0
TEXT
8
POINT_IDS
10
13583.3252
20
11581.1050
40
0.5000
1
9
0
TEXT
8
POINT_DESC
10
13583.3252
20
11579.1050
40
0.4000
1
West line WRA Part P
0
POINT
8
POINTS
10
14073.0649
20
11784.3076
30
0.0000
0
TEXT
8
POINT_IDS
10
14074.0649
20
11785.3076
40
0.5000
1
10
0
TEXT
8
POINT_DESC
10
14074.0649
20
11783.3076
40
0.4000
1
South line WRA Part P
0
POINT
8
POINTS
10
14110.6836
20
12071.8271
30
0.0000
0
TEXT
8
POINT_IDS
10
14111.6836
20
12072.8271
40
0.5000
1
11
0
TEXT
8
POINT_DESC
10
14111.6836
20
12070.8271
40
0.4000
1
East line WRA Part P
0
POINT
8
POINTS
10
15365.6229
20
12594.0223
30
0.0000
0
TEXT
8
POINT_IDS
10
15366.6229
20
12595.0223
40
0.5000
1
12
0
TEXT
8
POINT_DESC
10
15366.6229
20
12593.0223
40
0.4000
1
SR 200 ROW
0
POINT
8
POINTS
10
15455.0521
20
12379.1062
30
0.0000
0
TEXT
8
POINT_IDS
10
15456.0521
20
12380.1062
40
0.5000
1
13
0
TEXT
8
POINT_DESC
10
15456.0521
20
12378.1062
40
0.4000
1
West line WRA Part Q
0
POINT
8
POINTS
10
15738.9726
20
12497.2489
30
0.0000
0
TEXT
8
POINT_IDS
10
15739.9726
20
12498.2489
40
0.5000
1
14
0
TEXT
8
POINT_DESC
10
15739.9726
20
12496.2489
40
0.4000
1
South line WRA Part Q
0
POINT
8
POINTS
10
15733.3009
20
12747.0145
30
0.0000
0
TEXT
8
POINT_IDS
10
15734.3009
20
12748.0145
40
0.5000
1
15
0
TEXT
8
POINT_DESC
10
15734.3009
20
12746.0145
40
0.4000
1
East line WRA Part Q
0
POINT
8
POINTS
10
18266.5288
20
13801.1209
30
0.0000
0
TEXT
8
POINT_IDS
10
18267.5288
20
13802.1209
40
0.5000
1
16
0
TEXT
8
POINT_DESC
10
18267.5288
20
13800.1209
40
0.4000
1
SR 200 ROW
0
POINT
8
POINTS
10
18367.5679
20
13558.3038
30
0.0000
0
TEXT
8
POINT_IDS
10
18368.5679
20
13559.3038
40
0.5000
1
17
0
TEXT
8
POINT_DESC
10
18368.5679
20
13557.3038
40
0.4000
1
West line WRA Part R
0
POINT
8
POINTS
10
18774.9650
20
13727.8266
30
0.0000
0
TEXT
8
POINT_IDS
10
18775.9650
20
13728.8266
40
0.5000
1
18
0
TEXT
8
POINT_DESC
10
18775.9650
20
13726.8266
40
0.4000
1
South line WRA Part R
0
POINT
8
POINTS
10
18673.9259
20
13970.6437
30
0.0000
0
TEXT
8
POINT_IDS
10
18674.9259
20
13971.6437
40
0.5000
1
19
0
TEXT
8
POINT_DESC
10
18674.9259
20
13969.6437
40
0.4000
1
East line WRA Part R
0
POINT
8
POINTS
10
19612.5199
20
14361.2038
30
0.0000
0
TEXT
8
POINT_IDS
10
19613.5199
20
14362.2038
40
0.5000
1
20
0
TEXT
8
POINT_DESC
10
19613.5199
20
14360.2038
40
0.4000
1
SR 200 ROW
0
POINT
8
POINTS
10
20816.8367
20
14341.9929
30
0.0000
0
TEXT
8
POINT_IDS
10
20817.8367
20
14342.9929
40
0.5000
1
21
0
TEXT
8
POINT_DESC
10
20817.8367
20
14340.9929
40
0.4000
1
South Line S1/2 NE1/4 NE1/4 Sec 14
0
POINT
8
POINTS
10
20826.4032
20
14866.3156
30
0.0000
0
TEXT
8
POINT_IDS
10
20827.4032
20
14867.3156
40
0.5000
1
22
0
TEXT
8
POINT_DESC
10
20827.4032
20
14865.3156
40
0.4000
1
East Line S1/2 NE1/4 NE1/4 Sec 14
0
POINT
8
POINTS
10
22918.6274
20
15736.9151
30
0.0000
0
TEXT
8
POINT_IDS
10
22919.6274
20
15737.9151
40
0.5000
1
23
0
TEXT
8
POINT_DESC
10
22919.6274
20
15735.9151
40
0.4000
1
SR 200 ROW
0
POINT
8
POINTS
10
23462.3890
20
15745.5389
30
0.0000
0
TEXT
8
POINT_IDS
10
23463.3890
20
15746.5389
40
0.5000
1
24
0
TEXT
8
POINT_DESC
10
23463.3890
20
15744.5389
40
0.4000
1
North Line Sec 13
0
POINT
8
POINTS
10
24573.6553
20
15742.6619
30
0.0000
0
TEXT
8
POINT_IDS
10
24574.6553
20
15743.6619
40
0.5000
1
25
0
TEXT
8
POINT_DESC
10
24574.6553
20
15741.6619
40
0.4000
1
North Line Sec 13
0
POINT
8
POINTS
10
25725.3034
20
15744.7222
30
0.0000
0
TEXT
8
POINT_IDS
10
25726.3034
20
15745.7222
40
0.5000
1
26
0
TEXT
8
POINT_DESC
10
25726.3034
20
15743.7222
40
0.4000
1
South Line White Oaks Sub
0
POINT
8
POINTS
10
25714.0458
20
16915.6681
30
0.0000
0
TEXT
8
POINT_IDS
10
25715.0458
20
16916.6681
40
0.5000
1
27
0
TEXT
8
POINT_DESC
10
25715.0458
20
16914.6681
40
0.4000
1
East line White Oaks Sub
0
POINT
8
POINTS
10
26178.7266
20
17175.1891
30
0.0000
0
TEXT
8
POINT_IDS
10
26179.7266
20
17176.1891
40
0.5000
1
28
0
TEXT
8
POINT_DESC
10
26179.7266
20
17174.1891
40
0.4000
1
Chord - SR 200 ROW
0
POINT
8
POINTS
10
26251.2948
20
17220.1356
30
0.0000
0
TEXT
8
POINT_IDS
10
26252.2948
20
17221.1356
40
0.5000
1
29
0
TEXT
8
POINT_DESC
10
26252.2948
20
17219.1356
40
0.4000
1
SR 200 ROW
0
POINT
8
POINTS
10
26255.6860
20
16906.0963
30
0.0000
0
TEXT
8
POINT_IDS
10
26256.6860
20
16907.0963
40
0.5000
1
30
0
TEXT
8
POINT_DESC
10
26256.6860
20
16905.0963
40
0.4000
1
West line WRA Part U
0
POINT
8
POINTS
10
26580.3981
20
17107.2128
30
0.0000
0
TEXT
8
POINT_IDS
10
26581.3981
20
17108.2128
40
0.5000
1
31
0
TEXT
8
POINT_DESC
10
26581.3981
20
17106.2128
40
0.4000
1
South line WRA Part U
0
POINT
8
POINTS
10
26438.0974
20
17336.9639
30
0.0000
0
TEXT
8
POINT_IDS
10
26439.0974
20
17337.9639
40
0.5000
1
32
0
TEXT
8
POINT_DESC
10
26439.0974
20
17335.9639
40
0.4000
1
East line WRA Part U
0
POINT
8
POINTS
10
28835.4581
20
18821.8140
30
0.0000
0
TEXT
8
POINT_IDS
10
28836.4581
20
18822.8140
40
0.5000
1
33
0
TEXT
8
POINT_DESC
10
28836.4581
20
18820.8140
40
0.4000
1
SR 200 ROW
0
POINT
8
POINTS
10
30505.1801
20
19560.9874
30
0.0000
0
TEXT
8
POINT_IDS
10
30506.1801
20
19561.9874
40
0.5000
1
34
0
TEXT
8
POINT_DESC
10
30506.1801
20
19559.9874
40
0.4000
1
Chord - SR 200 ROW
0
POINT
8
POINTS
10
30863.1722
20
19663.5348
30
0.0000
0
TEXT
8
POINT_IDS
10
30864.1722
20
19664.5348
40
0.5000
1
35
0
TEXT
8
POINT_DESC
10
30864.1722
20
19662.5348
40
0.4000
1
SR 200 ROW
0
POINT
8
POINTS
10
30862.6022
20
19665.5248
30
0.0000
0
TEXT
8
POINT_IDS
10
30863.6022
20
19666.5248
40
0.5000
1
36
0
TEXT
8
POINT_DESC
10
30863.6022
20
19664.5248
40
0.4000
1
Jog
0
POINT
8
POINTS
10
34816.1851
20
20798.0349
30
0.0000
0
TEXT
8
POINT_IDS
10
34817.1851
20
20799.0349
40
0.5000
1
37
0
TEXT
8
POINT_DESC
10
34817.1851
20
20797.0349
40
0.4000
1
SR 200 ROW
0
POINT
8
POINTS
10
36757.6729
20
20847.5841
30
0.0000
0
TEXT
8
POINT_IDS
10
36758.6729
20
20848.5841
40
0.5000
1
38
0
TEXT
8
POINT_DESC
10
36758.6729
20
20846.5841
40
0.4000
1
North Line Sec 8
0
POINT
8
POINTS
10
38840.3214
20
20900.0793
30
0.0000
0
TEXT
8
POINT_IDS
10
38841.3214
20
20901.0793
40
0.5000
1
39
0
TEXT
8
POINT_DESC
10
38841.3214
20
20899.0793
40
0.4000
1
North Line Sec 9
0
POINT
8
POINTS
10
38790.9277
20
20801.1886
30
0.0000
0
TEXT
8
POINT_IDS
10
38791.9277
20
20802.1886
40
0.5000
1
40
0
TEXT
8
POINT_DESC
10
38791.9277
20
20800.1886
40
0.4000
1
Line
0
POINT
8
POINTS
10
38842.3138
20
20701.5825
30
0.0000
0
TEXT
8
POINT_IDS
10
38843.3138
20
20702.5825
40
0.5000
1
41
0
TEXT
8
POINT_DESC
10
38843.3138
20
20700.5825
40
0.4000
1
Line
0
POINT
8
POINTS
10
39012.2342
20
20681.1870
30
0.0000
0
TEXT
8
POINT_IDS
10
39013.2342
20
20682.1870
40
0.5000
1
42
0
TEXT
8
POINT_DESC
10
39013.2342
20
20680.1870
40
0.4000
1
Line
0
POINT
8
POINTS
10
39098.3071
20
20511.9249
30
0.0000
0
TEXT
8
POINT_IDS
10
39099.3071
20
20512.9249
40
0.5000
1
43
0
TEXT
8
POINT_DESC
10
39099.3071
20
20510.9249
40
0.4000
1
Line
0
POINT
8
POINTS
10
39171.0022
20
20215.5912
30
0.0000
0
TEXT
8
POINT_IDS
10
39172.0022
20
20216.5912
40
0.5000
1
44
0
TEXT
8
POINT_DESC
10
39172.0022
20
20214.5912
40
0.4000
1
Line
0
POINT
8
POINTS
10
39344.5382
20
20197.0847
30
0.0000
0
TEXT
8
POINT_IDS
10
39345.5382
20
20198.0847
40
0.5000
1
45
0
TEXT
8
POINT_DESC
10
39345.5382
20
20196.0847
40
0.4000
1
Line
0
POINT
8
POINTS
10
39364.7339
20
19999.0920
30
0.0000
0
TEXT
8
POINT_IDS
10
39365.7339
20
20000.0920
40
0.5000
1
46
0
TEXT
8
POINT_DESC
10
39365.7339
20
19998.0920
40
0.4000
1
Line
0
POINT
8
POINTS
10
39507.1087
20
19977.1212
30
0.0000
0
TEXT
8
POINT_IDS
10
39508.1087
20
19978.1212
40
0.5000
1
47
0
TEXT
8
POINT_DESC
10
39508.1087
20
19976.1212
40
0.4000
1
Line
0
POINT
8
POINTS
10
39603.8023
20
19895.4803
30
0.0000
0
TEXT
8
POINT_IDS
10
39604.8023
20
19896.4803
40
0.5000
1
48
0
TEXT
8
POINT_DESC
10
39604.8023
20
19894.4803
40
0.4000
1
Line
0
POINT
8
POINTS
10
39650.9985
20
19773.3096
30
0.0000
0
TEXT
8
POINT_IDS
10
39651.9985
20
19774.3096
40
0.5000
1
49
0
TEXT
8
POINT_DESC
10
39651.9985
20
19772.3096
40
0.4000
1
Line
0
POINT
8
POINTS
10
39768.0755
20
19624.3531
30
0.0000
0
TEXT
8
POINT_IDS
10
39769.0755
20
19625.3531
40
0.5000
1
50
0
TEXT
8
POINT_DESC
10
39769.0755
20
19623.3531
40
0.4000
1
Line
0
POINT
8
POINTS
10
39895.0010
20
19596.0174
30
0.0000
0
TEXT
8
POINT_IDS
10
39896.0010
20
19597.0174
40
0.5000
1
51
0
TEXT
8
POINT_DESC
10
39896.0010
20
19595.0174
40
0.4000
1
Line
0
POINT
8
POINTS
10
39952.2652
20
19519.0165
30
0.0000
0
TEXT
8
POINT_IDS
10
39953.2652
20
19520.0165
40
0.5000
1
52
0
TEXT
8
POINT_DESC
10
39953.2652
20
19518.0165
40
0.4000
1
Line
0
POINT
8
POINTS
10
39983.8914
20
19445.6204
30
0.0000
0
TEXT
8
POINT_IDS
10
39984.8914
20
19446.6204
40
0.5000
1
53
0
TEXT
8
POINT_DESC
10
39984.8914
20
19444.6204
40
0.4000
1
Line
0
POINT
8
POINTS
10
39948.4204
20
19350.5521
30
0.0000
0
TEXT
8
POINT_IDS
10
39949.4204
20
19351.5521
40
0.5000
1
54
0
TEXT
8
POINT_DESC
10
39949.4204
20
19349.5521
40
0.4000
1
Line
0
POINT
8
POINTS
10
39807.3319
20
19196.6860
30
0.0000
0
TEXT
8
POINT_IDS
10
39808.3319
20
19197.6860
40
0.5000
1
55
0
TEXT
8
POINT_DESC
10
39808.3319
20
19195.6860
40
0.4000
1
Line
0
POINT
8
POINTS
10
40216.4448
20
18533.0458
30
0.0000
0
TEXT
8
POINT_IDS
10
40217.4448
20
18534.0458
40
0.5000
1
56
0
TEXT
8
POINT_DESC
10
40217.4448
20
18532.0458
40
0.4000
1
To MHWL Tom Mann Creek
0
POINT
8
POINTS
10
435677.6895
20
2279636.2350
30
0.0000
0
TEXT
8
POINT_IDS
10
435678.6895
20
2279637.2350
40
0.5000
1
57
0
TEXT
8
POINT_DESC
10
435678.6895
20
2279635.2350
40
0.4000
1
NW Cor ORB 716 Pg 1633
0
POINT
8
POINTS
10
435524.3820
20
2279394.1684
30
0.0000
0
TEXT
8
POINT_IDS
10
435525.3820
20
2279395.1684
40
0.5000
1
58
0
TEXT
8
POINT_DESC
10
435525.3820
20
2279393.1684
40
0.4000
1
Westerly Line ORB 716 Pg 1633
0
POINT
8
POINTS
10
436449.2776
20
2278469.2727
30
0.0000
0
TEXT
8
POINT_IDS
10
436450.2776
20
2278470.2727
40
0.5000
1
59
0
TEXT
8
POINT_DESC
10
436450.2776
20
2278468.2727
40
0.4000
1
Easterly Bank Boggy Creek (Assumed SE)
0
POINT
8
POINTS
10
431491.1663
20
2278375.3947
30
0.0000
0
TEXT
8
POINT_IDS
10
431492.1663
20
2278376.3947
40
0.5000
1
60
0
TEXT
8
POINT_DESC
10
431492.1663
20
2278374.3947
40
0.4000
1
South Line Sec 9
0
POINT
8
POINTS
10
431494.8434
20
2277044.7698
30
0.0000
0
TEXT
8
POINT_IDS
10
431495.8434
20
2277045.7698
40
0.5000
1
61
0
TEXT
8
POINT_DESC
10
431495.8434
20
2277043.7698
40
0.4000
1
West Line Sec 16
0
POINT
8
POINTS
10
434117.8061
20
2277082.9092
30
0.0000
0
TEXT
8
POINT_IDS
10
434118.8061
20
2277083.9092
40
0.5000
1
62
0
TEXT
8
POINT_DESC
10
434118.8061
20
2277081.9092
40
0.4000
1
North Line S1/2 NW1/4 Sec 16
0
POINT
8
POINTS
10
434117.8192
20
2275740.6892
30
0.0000
0
TEXT
8
POINT_IDS
10
434118.8192
20
2275741.6892
40
0.5000
1
63
0
TEXT
8
POINT_DESC
10
434118.8192
20
2275739.6892
40
0.4000
1
East Line S1/2 NW1/4 Sec 16
0
POINT
8
POINTS
10
432808.1664
20
2275727.4185
30
0.0000
0
TEXT
8
POINT_IDS
10
432809.1664
20
2275728.4185
40
0.5000
1
64
0
TEXT
8
POINT_DESC
10
432809.1664
20
2275726.4185
40
0.4000
1
South Line S1/2 NW1/4 Sec 16
0
POINT
8
POINTS
10
432811.8594
20
2273054.6511
30
0.0000
0
TEXT
8
POINT_IDS
10
432812.8594
20
2273055.6511
40
0.5000
1
65
0
TEXT
8
POINT_DESC
10
432812.8594
20
2273053.6511
40
0.4000
1
East Line W1/2 SW1/4 Sec 16
0
POINT
8
POINTS
10
436764.2359
20
2273059.9397
30
0.0000
0
TEXT
8
POINT_IDS
10
436765.2359
20
2273060.9397
40
0.5000
1
66
0
TEXT
8
POINT_DESC
10
436765.2359
20
2273058.9397
40
0.4000
1
South Line Sec 16
0
POINT
8
POINTS
10
436745.6351
20
2278141.6057
30
0.0000
0
TEXT
8
POINT_IDS
10
436746.6351
20
2278142.6057
40
0.5000
1
67
0
TEXT
8
POINT_DESC
10
436746.6351
20
2278140.6057
40
0.4000
1
West Line Sec 15
0
POINT
8
POINTS
10
436466.8577
20
2278483.5706
30
0.0000
0
TEXT
8
POINT_IDS
10
436467.8577
20
2278484.5706
40
0.5000
1
68
0
TEXT
8
POINT_DESC
10
436467.8577
20
2278482.5706
40
0.4000
1
MHWL Boggy Creek
0
POINT
8
POINTS
10
441159.4758
20
2274370.7063
30
0.0000
0
TEXT
8
POINT_IDS
10
441160.4758
20
2274371.7063
40
0.5000
1
69
0
TEXT
8
POINT_DESC
10
441160.4758
20
2274369.7063
40
0.4000
1
MHWL Boggy Creek
0
POINT
8
POINTS
10
439252.9674
20
2268904.3239
30
0.0000
0
TEXT
8
POINT_IDS
10
439253.9674
20
2268905.3239
40
0.5000
1
70
0
TEXT
8
POINT_DESC
10
439253.9674
20
2268903.3239
40
0.4000
1
Line
0
POINT
8
POINTS
10
439387.9708
20
2267630.9002
30
0.0000
0
TEXT
8
POINT_IDS
10
439388.9708
20
2267631.9002
40
0.5000
1
71
0
TEXT
8
POINT_DESC
10
439388.9708
20
2267629.9002
40
0.4000
1
To MHWL Thomas Creek
0
POINT
8
POINTS
10
439387.9807
20
2267630.9402
30
0.0000
0
TEXT
8
POINT_IDS
10
439388.9807
20
2267631.9402
40
0.5000
1
72
0
TEXT
8
POINT_DESC
10
439388.9807
20
2267629.9402
40
0.4000
1
MHWL Thomas Creek
0
POINT
8
POINTS
10
436567.5994
20
2268339.8664
30
0.0000
0
TEXT
8
POINT_IDS
10
436568.5994
20
2268340.8664
40
0.5000
1
73
0
TEXT
8
POINT_DESC
10
436568.5994
20
2268338.8664
40
0.4000
1
MHWL Thomas Creek
0
POINT
8
POINTS
10
434413.0169
20
2267938.6980
30
0.0000
0
TEXT
8
POINT_IDS
10
434414.0169
20
2267939.6980
40
0.5000
1
74
0
TEXT
8
POINT_DESC
10
434414.0169
20
2267937.6980
40
0.4000
1
MHWL Thomas Creek
0
POINT
8
POINTS
10
428469.6824
20
2269608.1264
30
0.0000
0
TEXT
8
POINT_IDS
10
428470.6824
20
2269609.1264
40
0.5000
1
75
0
TEXT
8
POINT_DESC
10
428470.6824
20
2269607.1264
40
0.4000
1
MHWL Thomas Creek
0
POINT
8
POINTS
10
426154.9956
20
2266943.7989
30
0.0000
0
TEXT
8
POINT_IDS
10
426155.9956
20
2266944.7989
40
0.5000
1
76
0
TEXT
8
POINT_DESC
10
426155.9956
20
2266942.7989
40
0.4000
1
Water-Ward Extent
0
POINT
8
POINTS
10
425684.4374
20
2266158.2536
30
0.0000
0
TEXT
8
POINT_IDS
10
425685.4374
20
2266159.2536
40
0.5000
1
77
0
TEXT
8
POINT_DESC
10
425685.4374
20
2266157.2536
40
0.4000
1
Water-Ward Extent
0
POINT
8
POINTS
10
425684.4423
20
2266158.2622
30
0.0000
0
TEXT
8
POINT_IDS
10
425685.4423
20
2266159.2622
40
0.5000
1
78
0
TEXT
8
POINT_DESC
10
425685.4423
20
2266157.2622
40
0.4000
1
MHWL Thomas Creek
0
POINT
8
POINTS
10
421393.9624
20
2254400.8768
30
0.0000
0
TEXT
8
POINT_IDS
10
421394.9624
20
2254401.8768
40
0.5000
1
79
0
TEXT
8
POINT_DESC
10
421394.9624
20
2254399.8768
40
0.4000
1
MHWL Thomas Creek
0
POINT
8
POINTS
10
415795.4628
20
2255368.5147
30
0.0000
0
TEXT
8
POINT_IDS
10
415796.4628
20
2255369.5147
40
0.5000
1
80
0
TEXT
8
POINT_DESC
10
415796.4628
20
2255367.5147
40
0.4000
1
Int MHWL Thomas Creek & CL Funk Creek
0
POINT
8
POINTS
10
412913.2956
20
2258250.6819
30
0.0000
0
TEXT
8
POINT_IDS
10
412914.2956
20
2258251.6819
40
0.5000
1
81
0
TEXT
8
POINT_DESC
10
412914.2956
20
2258249.6819
40
0.4000
1
CL Funk Creek (Assumed NW)
0
POINT
8
POINTS
10
413412.9108
20
2259392.1286
30
0.0000
0
TEXT
8
POINT_IDS
10
413413.9108
20
2259393.1286
40
0.5000
1
82
0
TEXT
8
POINT_DESC
10
413413.9108
20
2259391.1286
40
0.4000
1
East line Cricklewood
0
POINT
8
POINTS
10
413803.9385
20
2260337.3061
30
0.0000
0
TEXT
8
POINT_IDS
10
413804.9385
20
2260338.3061
40
0.5000
1
83
0
TEXT
8
POINT_DESC
10
413804.9385
20
2260336.3061
40
0.4000
1
West Line A.E. Ogilvie Homestead
0
POINT
8
POINTS
10
413954.7987
20
2261426.6698
30
0.0000
0
TEXT
8
POINT_IDS
10
413955.7987
20
2261427.6698
40
0.5000
1
84
0
TEXT
8
POINT_DESC
10
413955.7987
20
2261425.6698
40
0.4000
1
SW Line Lot 14
0
POINT
8
POINTS
10
413265.5804
20
2261883.3533
30
0.0000
0
TEXT
8
POINT_IDS
10
413266.5804
20
2261884.3533
40
0.5000
1
85
0
TEXT
8
POINT_DESC
10
413266.5804
20
2261882.3533
40
0.4000
1
SW Line Lot 14
0
POINT
8
POINTS
10
413204.4837
20
2265924.7715
30
0.0000
0
TEXT
8
POINT_IDS
10
413205.4837
20
2265925.7715
40
0.5000
1
86
0
TEXT
8
POINT_DESC
10
413205.4837
20
2265923.7715
40
0.4000
1
Line
0
POINT
8
POINTS
10
415047.8438
20
2266397.7802
30
0.0000
0
TEXT
8
POINT_IDS
10
415048.8438
20
2266398.7802
40
0.5000
1
87
0
TEXT
8
POINT_DESC
10
415048.8438
20
2266396.7802
40
0.4000
1
Line
0
POINT
8
POINTS
10
416089.6634
20
2265703.9576
30
0.0000
0
TEXT
8
POINT_IDS
10
416090.6634
20
2265704.9576
40
0.5000
1
88
0
TEXT
8
POINT_DESC
10
416090.6634
20
2265702.9576
40
0.4000
1
Line
0
POINT
8
POINTS
10
418535.1525
20
2264956.8021
30
0.0000
0
TEXT
8
POINT_IDS
10
418536.1525
20
2264957.8021
40
0.5000
1
89
0
TEXT
8
POINT_DESC
10
418536.1525
20
2264955.8021
40
0.4000
1
North Line Lot 14
0
POINT
8
POINTS
10
418458.6054
20
2268775.5850
30
0.0000
0
TEXT
8
POINT_IDS
10
418459.6054
20
2268776.5850
40
0.5000
1
90
0
TEXT
8
POINT_DESC
10
418459.6054
20
2268774.5850
40
0.4000
1
Line
0
POINT
8
POINTS
10
420034.9664
20
2269154.1490
30
0.0000
0
TEXT
8
POINT_IDS
10
420035.9664
20
2269155.1490
40
0.5000
1
91
0
TEXT
8
POINT_DESC
10
420035.9664
20
2269153.1490
40
0.4000
1
NW Line Lot 13
0
POINT
8
POINTS
10
419990.5352
20
2271594.5145
30
0.0000
0
TEXT
8
POINT_IDS
10
419991.5352
20
2271595.5145
40
0.5000
1
92
0
TEXT
8
POINT_DESC
10
419991.5352
20
2271593.5145
40
0.4000
1
East Line Sec 24
0
POINT
8
POINTS
10
414699.7143
20
2271546.3670
30
0.0000
0
TEXT
8
POINT_IDS
10
414700.7143
20
2271547.3670
40
0.5000
1
93
0
TEXT
8
POINT_DESC
10
414700.7143
20
2271545.3670
40
0.4000
1
South Line N1/2 Sec 24
0
POINT
8
POINTS
10
411829.0242
20
2271535.6922
30
0.0000
0
TEXT
8
POINT_IDS
10
411830.0242
20
2271536.6922
40
0.5000
1
94
0
TEXT
8
POINT_DESC
10
411830.0242
20
2271534.6922
40
0.4000
1
South Line NE1/4 Sec 23
0
POINT
8
POINTS
10
411866.1510
20
2268895.1932
30
0.0000
0
TEXT
8
POINT_IDS
10
411867.1510
20
2268896.1932
40
0.5000
1
95
0
TEXT
8
POINT_DESC
10
411867.1510
20
2268894.1932
40
0.4000
1
West Line SE1/4 Sec 23
0
POINT
8
POINTS
10
411272.6719
20
2268879.3674
30
0.0000
0
TEXT
8
POINT_IDS
10
411273.6719
20
2268880.3674
40
0.5000
1
96
0
TEXT
8
POINT_DESC
10
411273.6719
20
2268878.3674
40
0.4000
1
North Line Gov Lot 2
0
POINT
8
POINTS
10
411166.6522
20
2267429.3982
30
0.0000
0
TEXT
8
POINT_IDS
10
411167.6522
20
2267430.3982
40
0.5000
1
97
0
TEXT
8
POINT_DESC
10
411167.6522
20
2267428.3982
40
0.4000
1
East Line Sec 44
0
POINT
8
POINTS
10
408628.8976
20
2267617.0086
30
0.0000
0
TEXT
8
POINT_IDS
10
408629.8976
20
2267618.0086
40
0.5000
1
98
0
TEXT
8
POINT_DESC
10
408629.8976
20
2267616.0086
40
0.4000
1
Line
0
POINT
8
POINTS
10
407312.4900
20
2267714.3277
30
0.0000
0
TEXT
8
POINT_IDS
10
407313.4900
20
2267715.3277
40
0.5000
1
99
0
TEXT
8
POINT_DESC
10
407313.4900
20
2267713.3277
40
0.4000
1
North Line Sec 44
0
POINT
8
POINTS
10
407290.5653
20
2267451.0289
30
0.0000
0
TEXT
8
POINT_IDS
10
407291.5653
20
2267452.0289
40
0.5000
1
100
0
TEXT
8
POINT_DESC
10
407291.5653
20
2267450.0289
40
0.4000
1
West Line Sec 44
0
POINT
8
POINTS
10
407280.4983
20
2267631.0577
30
0.0000
0
TEXT
8
POINT_IDS
10
407281.4983
20
2267632.0577
40
0.5000
1
101
0
TEXT
8
POINT_DESC
10
407281.4983
20
2267630.0577
40
0.4000
1
East Line Gov Lot 5
0
POINT
8
POINTS
10
405870.5238
20
2267622.5881
30
0.0000
0
TEXT
8
POINT_IDS
10
405871.5238
20
2267623.5881
40
0.5000
1
102
0
TEXT
8
POINT_DESC
10
405871.5238
20
2267621.5881
40
0.4000
1
South Line N1/2 Gov Lot 5
0
POINT
8
POINTS
10
405889.1130
20
2266278.2466
30
0.0000
0
TEXT
8
POINT_IDS
10
405890.1130
20
2266279.2466
40
0.5000
1
103
0
TEXT
8
POINT_DESC
10
405890.1130
20
2266277.2466
40
0.4000
1
East Line Gov Lot 4
0
POINT
8
POINTS
10
407194.8199
20
2266301.2784
30
0.0000
0
TEXT
8
POINT_IDS
10
407195.8199
20
2266302.2784
40
0.5000
1
104
0
TEXT
8
POINT_DESC
10
407195.8199
20
2266300.2784
40
0.4000
1
North Line Sec 27
0
POINT
8
POINTS
10
407065.6408
20
2264749.9375
30
0.0000
0
TEXT
8
POINT_IDS
10
407066.6408
20
2264750.9375
40
0.5000
1
105
0
TEXT
8
POINT_DESC
10
407066.6408
20
2264748.9375
40
0.4000
1
West Line Sec 44
0
POINT
8
POINTS
10
405457.6987
20
2264184.0597
30
0.0000
0
TEXT
8
POINT_IDS
10
405458.6987
20
2264185.0597
40
0.5000
1
106
0
TEXT
8
POINT_DESC
10
405458.6987
20
2264183.0597
40
0.4000
1
Northerly ROW Bismark Rd
0
POINT
8
POINTS
10
405459.1584
20
2264853.1081
30
0.0000
0
TEXT
8
POINT_IDS
10
405460.1584
20
2264854.1081
40
0.5000
1
107
0
TEXT
8
POINT_DESC
10
405460.1584
20
2264852.1081
40
0.4000
1
Line
0
POINT
8
POINTS
10
405459.6120
20
2266270.6580
30
0.0000
0
TEXT
8
POINT_IDS
10
405460.6120
20
2266271.6580
40
0.5000
1
108
0
TEXT
8
POINT_DESC
10
405460.6120
20
2266269.6580
40
0.4000
1
Line
0
POINT
8
POINTS
10
404180.6209
20
2266248.0974
30
0.0000
0
TEXT
8
POINT_IDS
10
404181.6209
20
2266249.0974
40
0.5000
1
109
0
TEXT
8
POINT_DESC
10
404181.6209
20
2266247.0974
40
0.4000
1
South Line Sec 22
0
POINT
8
POINTS
10
404070.3042
20
2267611.7625
30
0.0000
0
TEXT
8
POINT_IDS
10
404071.3042
20
2267612.7625
40
0.5000
1
110
0
TEXT
8
POINT_DESC
10
404071.3042
20
2267610.7625
40
0.4000
1
East Line North Deerwood Estates
0
POINT
8
POINTS
10
403227.9044
20
2267603.5288
30
0.0000
0
TEXT
8
POINT_IDS
10
403228.9044
20
2267604.5288
40
0.5000
1
111
0
TEXT
8
POINT_DESC
10
403228.9044
20
2267602.5288
40
0.4000
1
North Line North Deerwood Estates
0
POINT
8
POINTS
10
403211.3098
20
2268715.4950
30
0.0000
0
TEXT
8
POINT_IDS
10
403212.3098
20
2268716.4950
40
0.5000
1
112
0
TEXT
8
POINT_DESC
10
403212.3098
20
2268714.4950
40
0.4000
1
West Line Sec 22
0
POINT
8
POINTS
10
417276.8843
20
2270962.2107
30
0.0000
0
TEXT
8
POINT_IDS
10
417277.8843
20
2270963.2107
40
0.5000
1
113
0
TEXT
8
POINT_DESC
10
417277.8843
20
2270961.2107
40
0.4000
1
South Line ORB 88 Pg 21
0
POINT
8
POINTS
10
417277.6729
20
2270957.2732
30
0.0000
0
TEXT
8
POINT_IDS
10
417278.6729
20
2270958.2732
40
0.5000
1
114
0
TEXT
8
POINT_DESC
10
417278.6729
20
2270956.2732
40
0.4000
1
Line
0
POINT
8
POINTS
10
423974.0448
20
2272026.8949
30
0.0000
0
TEXT
8
POINT_IDS
10
423975.0448
20
2272027.8949
40
0.5000
1
115
0
TEXT
8
POINT_DESC
10
423975.0448
20
2272025.8949
40
0.4000
1
Line
0
POINT
8
POINTS
10
424457.4257
20
2271896.6900
30
0.0000
0
TEXT
8
POINT_IDS
10
424458.4257
20
2271897.6900
40
0.5000
1
116
0
TEXT
8
POINT_DESC
10
424458.4257
20
2271895.6900
40
0.4000
1
Chord
0
POINT
8
POINTS
10
425651.8326
20
2270921.6391
30
0.0000
0
TEXT
8
POINT_IDS
10
425652.8326
20
2270922.6391
40
0.5000
1
117
0
TEXT
8
POINT_DESC
10
425652.8326
20
2270920.6391
40
0.4000
1
Line
0
POINT
8
POINTS
10
425784.6337
20
2271084.3163
30
0.0000
0
TEXT
8
POINT_IDS
10
425785.6337
20
2271085.3163
40
0.5000
1
118
0
TEXT
8
POINT_DESC
10
425785.6337
20
2271083.3163
40
0.4000
1
East Line ORB 88 Pg 21
0
POINT
8
POINTS
10
424590.2268
20
2272059.3672
30
0.0000
0
TEXT
8
POINT_IDS
10
424591.2268
20
2272060.3672
40
0.5000
1
119
0
TEXT
8
POINT_DESC
10
424591.2268
20
2272058.3672
40
0.4000
1
North Line ORB 88 Pg 21
0
POINT
8
POINTS
10
423940.9200
20
2272234.2664
30
0.0000
0
TEXT
8
POINT_IDS
10
423941.9200
20
2272235.2664
40
0.5000
1
120
0
TEXT
8
POINT_DESC
10
423941.9200
20
2272233.2664
40
0.4000
1
Chord
0
POINT
8
POINTS
10
417244.5481
20
2271164.6447
30
0.0000
0
TEXT
8
POINT_IDS
10
417245.5481
20
2271165.6447
40
0.5000
1
121
0
TEXT
8
POINT_DESC
10
417245.5481
20
2271163.6447
40
0.4000
1
Line
0
POINT
8
POINTS
10
417245.3368
20
2271159.7073
30
0.0000
0
TEXT
8
POINT_IDS
10
417246.3368
20
2271160.7073
40
0.5000
1
122
0
TEXT
8
POINT_DESC
10
417246.3368
20
2271158.7073
40
0.4000
1
Line
0
POINT
8
POINTS
10
403208.2906
20
2268917.5485
30
0.0000
0
TEXT
8
POINT_IDS
10
403209.2906
20
2268918.5485
40
0.5000
1
123
0
TEXT
8
POINT_DESC
10
403209.2906
20
2268916.5485
40
0.4000
1
Line
0
POINT
8
POINTS
10
403188.9313
20
2270214.7741
30
0.0000
0
TEXT
8
POINT_IDS
10
403189.9313
20
2270215.7741
40
0.5000
1
124
0
TEXT
8
POINT_DESC
10
403189.9313
20
2270213.7741
40
0.4000
1
West Line Sec 22
0
POINT
8
POINTS
10
403269.0524
20
2270215.9647
30
0.0000
0
TEXT
8
POINT_IDS
10
403270.0524
20
2270216.9647
40
0.5000
1
125
0
TEXT
8
POINT_DESC
10
403270.0524
20
2270214.9647
40
0.4000
1
Line
0
POINT
8
POINTS
10
403252.3418
20
2271336.4301
30
0.0000
0
TEXT
8
POINT_IDS
10
403253.3418
20
2271337.4301
40
0.5000
1
126
0
TEXT
8
POINT_DESC
10
403253.3418
20
2271335.4301
40
0.4000
1
To POB
0
LINE
8
FIGURES
10
10080.1232
20
10001.6387
11
13011.4302
21
10061.5907
0
LINE
8
FIGURES
10
13011.4302
20
10061.5907
11
12893.2183
21
10726.6667
0
LINE
8
FIGURES
10
12893.2183
20
10726.6667
11
13128.3596
21
10746.7807
0
LINE
8
FIGURES
10
13128.3596
20
10746.7807
11
12896.5624
21
11575.0157
0
LINE
8
FIGURES
10
12896.5624
20
11575.0157
11
13305.8793
21
11736.9357
0
LINE
8
FIGURES
10
13305.8793
20
11736.9357
11
13485.8963
21
11811.8429
0
LINE
8
FIGURES
10
13485.8963
20
11811.8429
11
13582.3252
21
11580.1050
0
LINE
8
FIGURES
10
13582.3252
20
11580.1050
11
14073.0649
21
11784.3076
0
LINE
8
FIGURES
10
14073.0649
20
11784.3076
11
14110.6836
21
12071.8271
0
LINE
8
FIGURES
10
14110.6836
20
12071.8271
11
15365.6229
21
12594.0223
0
LINE
8
FIGURES
10
15365.6229
20
12594.0223
11
15455.0521
21
12379.1062
0
LINE
8
FIGURES
10
15455.0521
20
12379.1062
11
15738.9726
21
12497.2489
0
LINE
8
FIGURES
10
15738.9726
20
12497.2489
11
15733.3009
21
12747.0145
0
LINE
8
FIGURES
10
15733.3009
20
12747.0145
11
18266.5288
21
13801.1209
0
LINE
8
FIGURES
10
18266.5288
20
13801.1209
11
18367.5679
21
13558.3038
0
LINE
8
FIGURES
10
18367.5679
20
13558.3038
11
18774.9650
21
13727.8266
0
LINE
8
FIGURES
10
18774.9650
20
13727.8266
11
18673.9259
21
13970.6437
0
LINE
8
FIGURES
10
18673.9259
20
13970.6437
11
19612.5199
21
14361.2038
0
LINE
8
FIGURES
10
19612.5199
20
14361.2038
11
20816.8367
21
14341.9929
0
LINE
8
FIGURES
10
20816.8367
20
14341.9929
11
20826.4032
21
14866.3156
0
LINE
8
FIGURES
10
20826.4032
20
14866.3156
11
22918.6274
21
15736.9151
0
LINE
8
FIGURES
10
22918.6274
20
15736.9151
11
23462.3890
21
15745.5389
0
LINE
8
FIGURES
10
23462.3890
20
15745.5389
11
24573.6553
21
15742.6619
0
LINE
8
FIGURES
10
24573.6553
20
15742.6619
11
25725.3034
21
15744.7222
0
LINE
8
FIGURES
10
25725.3034
20
15744.7222
11
25714.0458
21
16915.6681
0
LINE
8
FIGURES
10
25714.0458
20
16915.6681
11
26178.7266
21
17175.1891
0
LINE
8
FIGURES
10
26178.7266
20
17175.1891
11
26251.2948
21
17220.1356
0
LINE
8
FIGURES
10
26251.2948
20
17220.1356
11
26255.6860
21
16906.0963
0
LINE
8
FIGURES
10
26255.6860
20
16906.0963
11
26580.3981
21
17107.2128
0
LINE
8
FIGURES
10
26580.3981
20
17107.2128
11
26438.0974
21
17336.9639
0
LINE
8
FIGURES
10
26438.0974
20
17336.9639
11
28835.4581
21
18821.8140
0
LINE
8
FIGURES
10
28835.4581
20
18821.8140
11
30505.1801
21
19560.9874
0
LINE
8
FIGURES
10
30505.1801
20
19560.9874
11
30863.1722
21
19663.5348
0
LINE
8
FIGURES
10
30863.1722
20
19663.5348
11
30862.6022
21
19665.5248
0
LINE
8
FIGURES
10
30862.6022
20
19665.5248
11
34816.1851
21
20798.0349
0
LINE
8
FIGURES
10
34816.1851
20
20798.0349
11
36757.6729
21
20847.5841
0
LINE
8
FIGURES
10
36757.6729
20
20847.5841
11
38840.3214
21
20900.0793
0
LINE
8
FIGURES
10
38840.3214
20
20900.0793
11
38790.9277
21
20801.1886
0
LINE
8
FIGURES
10
38790.9277
20
20801.1886
11
38842.3138
21
20701.5825
0
LINE
8
FIGURES
10
38842.3138
20
20701.5825
11
39012.2342
21
20681.1870
0
LINE
8
FIGURES
10
39012.2342
20
20681.1870
11
39098.3071
21
20511.9249
0
LINE
8
FIGURES
10
39098.3071
20
20511.9249
11
39171.0022
21
20215.5912
0
LINE
8
FIGURES
10
39171.0022
20
20215.5912
11
39344.5382
21
20197.0847
0
LINE
8
FIGURES
10
39344.5382
20
20197.0847
11
39364.7339
21
19999.0920
0
LINE
8
FIGURES
10
39364.7339
20
19999.0920
11
39507.1087
21
19977.1212
0
LINE
8
FIGURES
10
39507.1087
20
19977.1212
11
39603.8023
21
19895.4803
0
LINE
8
FIGURES
10
39603.8023
20
19895.4803
11
39650.9985
21
19773.3096
0
LINE
8
FIGURES
10
39650.9985
20
19773.3096
11
39768.0755
21
19624.3531
0
LINE
8
FIGURES
10
39768.0755
20
19624.3531
11
39895.0010
21
19596.0174
0
LINE
8
FIGURES
10
39895.0010
20
19596.0174
11
39952.2652
21
19519.0165
0
LINE
8
FIGURES
10
39952.2652
20
19519.0165
11
39983.8914
21
19445.6204
0
LINE
8
FIGURES
10
39983.8914
20
19445.6204
11
39948.4204
21
19350.5521
0
LINE
8
FIGURES
10
39948.4204
20
19350.5521
11
39807.3319
21
19196.6860
0
LINE
8
FIGURES
10
39807.3319
20
19196.6860
11
40216.4448
21
18533.0458
0
LINE
8
FIGURES
10
40216.4448
20
18533.0458
11
435677.6895
21
2279636.2350
0
LINE
8
FIGURES
10
435677.6895
20
2279636.2350
11
435524.3820
21
2279394.1684
0
LINE
8
FIGURES
10
435524.3820
20
2279394.1684
11
436449.2776
21
2278469.2727
0
LINE
8
FIGURES
10
436449.2776
20
2278469.2727
11
431491.1663
21
2278375.3947
0
LINE
8
FIGURES
10
431491.1663
20
2278375.3947
11
431494.8434
21
2277044.7698
0
LINE
8
FIGURES
10
431494.8434
20
2277044.7698
11
434117.8061
21
2277082.9092
0
LINE
8
FIGURES
10
434117.8061
20
2277082.9092
11
434117.8192
21
2275740.6892
0
LINE
8
FIGURES
10
434117.8192
20
2275740.6892
11
432808.1664
21
2275727.4185
0
LINE
8
FIGURES
10
432808.1664
20
2275727.4185
11
432811.8594
21
2273054.6511
0
LINE
8
FIGURES
10
432811.8594
20
2273054.6511
11
436764.2359
21
2273059.9397
0
LINE
8
FIGURES
10
436764.2359
20
2273059.9397
11
436745.6351
21
2278141.6057
0
LINE
8
FIGURES
10
436745.6351
20
2278141.6057
11
436466.8577
21
2278483.5706
0
LINE
8
FIGURES
10
436466.8577
20
2278483.5706
11
441159.4758
21
2274370.7063
0
LINE
8
FIGURES
10
441159.4758
20
2274370.7063
11
439252.9674
21
2268904.3239
0
LINE
8
FIGURES
10
439252.9674
20
2268904.3239
11
439387.9708
21
2267630.9002
0
LINE
8
FIGURES
10
439387.9708
20
2267630.9002
11
439387.9807
21
2267630.9402
0
LINE
8
FIGURES
10
439387.9807
20
2267630.9402
11
436567.5994
21
2268339.8664
0
LINE
8
FIGURES
10
436567.5994
20
2268339.8664
11
434413.0169
21
2267938.6980
0
LINE
8
FIGURES
10
434413.0169
20
2267938.6980
11
428469.6824
21
2269608.1264
0
LINE
8
FIGURES
10
428469.6824
20
2269608.1264
11
426154.9956
21
2266943.7989
0
LINE
8
FIGURES
10
426154.9956
20
2266943.7989
11
425684.4374
21
2266158.2536
0
LINE
8
FIGURES
10
425684.4374
20
2266158.2536
11
425684.4423
21
2266158.2622
0
LINE
8
FIGURES
10
425684.4423
20
2266158.2622
11
421393.9624
21
2254400.8768
0
LINE
8
FIGURES
10
421393.9624
20
2254400.8768
11
415795.4628
21
2255368.5147
0
LINE
8
FIGURES
10
415795.4628
20
2255368.5147
11
412913.2956
21
2258250.6819
0
LINE
8
FIGURES
10
412913.2956
20
2258250.6819
11
413412.9108
21
2259392.1286
0
LINE
8
FIGURES
10
413412.9108
20
2259392.1286
11
413803.9385
21
2260337.3061
0
LINE
8
FIGURES
10
413803.9385
20
2260337.3061
11
413954.7987
21
2261426.6698
0
LINE
8
FIGURES
10
413954.7987
20
2261426.6698
11
413265.5804
21
2261883.3533
0
LINE
8
FIGURES
10
413265.5804
20
2261883.3533
11
413204.4837
21
2265924.7715
0
LINE
8
FIGURES
10
413204.4837
20
2265924.7715
11
415047.8438
21
2266397.7802
0
LINE
8
FIGURES
10
415047.8438
20
2266397.7802
11
416089.6634
21
2265703.9576
0
LINE
8
FIGURES
10
416089.6634
20
2265703.9576
11
418535.1525
21
2264956.8021
0
LINE
8
FIGURES
10
418535.1525
20
2264956.8021
11
418458.6054
21
2268775.5850
0
LINE
8
FIGURES
10
418458.6054
20
2268775.5850
11
420034.9664
21
2269154.1490
0
LINE
8
FIGURES
10
420034.9664
20
2269154.1490
11
419990.5352
21
2271594.5145
0
LINE
8
FIGURES
10
419990.5352
20
2271594.5145
11
414699.7143
21
2271546.3670
0
LINE
8
FIGURES
10
414699.7143
20
2271546.3670
11
411829.0242
21
2271535.6922
0
LINE
8
FIGURES
10
411829.0242
20
2271535.6922
11
411866.1510
21
2268895.1932
0
LINE
8
FIGURES
10
411866.1510
20
2268895.1932
11
411272.6719
21
2268879.3674
0
LINE
8
FIGURES
10
411272.6719
20
2268879.3674
11
411166.6522
21
2267429.3982
0
LINE
8
FIGURES
10
411166.6522
20
2267429.3982
11
408628.8976
21
2267617.0086
0
LINE
8
FIGURES
10
408628.8976
20
2267617.0086
11
407312.4900
21
2267714.3277
0
LINE
8
FIGURES
10
407312.4900
20
2267714.3277
11
407290.5653
21
2267451.0289
0
LINE
8
FIGURES
10
407290.5653
20
2267451.0289
11
407280.4983
21
2267631.0577
0
LINE
8
FIGURES
10
407280.4983
20
2267631.0577
11
405870.5238
21
2267622.5881
0
LINE
8
FIGURES
10
405870.5238
20
2267622.5881
11
405889.1130
21
2266278.2466
0
LINE
8
FIGURES
10
405889.1130
20
2266278.2466
11
407194.8199
21
2266301.2784
0
LINE
8
FIGURES
10
407194.8199
20
2266301.2784
11
407065.6408
21
2264749.9375
0
LINE
8
FIGURES
10
407065.6408
20
2264749.9375
11
405457.6987
21
2264184.0597
0
LINE
8
FIGURES
10
405457.6987
20
2264184.0597
11
405459.1584
21
2264853.1081
0
LINE
8
FIGURES
10
405459.1584
20
2264853.1081
11
405459.6120
21
2266270.6580
0
LINE
8
FIGURES
10
405459.6120
20
2266270.6580
11
404180.6209
21
2266248.0974
0
LINE
8
FIGURES
10
404180.6209
20
2266248.0974
11
404070.3042
21
2267611.7625
0
LINE
8
FIGURES
10
404070.3042
20
2267611.7625
11
403227.9044
21
2267603.5288
0
LINE
8
FIGURES
10
403227.9044
20
2267603.5288
11
403211.3098
21
2268715.4950
0
LINE
8
FIGURES
10
403211.3098
20
2268715.4950
11
417276.8843
21
2270962.2107
0
LINE
8
FIGURES
10
417276.8843
20
2270962.2107
11
417277.6729
21
2270957.2732
0
LINE
8
FIGURES
10
417277.6729
20
2270957.2732
11
423974.0448
21
2272026.8949
0
LINE
8
FIGURES
10
423974.0448
20
2272026.8949
11
424457.4257
21
2271896.6900
0
LINE
8
FIGURES
10
424457.4257
20
2271896.6900
11
425651.8326
21
2270921.6391
0
LINE
8
FIGURES
10
425651.8326
20
2270921.6391
11
425784.6337
21
2271084.3163
0
LINE
8
FIGURES
10
425784.6337
20
2271084.3163
11
424590.2268
21
2272059.3672
0
LINE
8
FIGURES
10
424590.2268
20
2272059.3672
11
423940.9200
21
2272234.2664
0
LINE
8
FIGURES
10
423940.9200
20
2272234.2664
11
417244.5481
21
2271164.6447
0
LINE
8
FIGURES
10
417244.5481
20
2271164.6447
11
417245.3368
21
2271159.7073
0
LINE
8
FIGURES
10
417245.3368
20
2271159.7073
11
403208.2906
21
2268917.5485
0
LINE
8
FIGURES
10
403208.2906
20
2268917.5485
11
403188.9313
21
2270214.7741
0
LINE
8
FIGURES
10
403188.9313
20
2270214.7741
11
403269.0524
21
2270215.9647
0
LINE
8
FIGURES
10
403269.0524
20
2270215.9647
11
403252.3418
21
2271336.4301
0
ENDSEC
0
EOF
