  0
SECTION
  2
HEADER
  9
$ACADVER
  1
AC1015
  9
$INSUNITS
 70
     2
  0
ENDSEC
  0
SECTION
  2
TABLES
  0
TABLE
  2
LAYER
 70
     4
  0
LAYER
  2
W-MAIN
 70
     0
 62
     3
  6
CONTINUOUS
  0
LAYER
  2
W-SERVICE
 70
     0
 62
     4
  6
CONTINUOUS
  0
LAYER
  2
SS-MAIN
 70
     0
 62
     2
  6
CONTINUOUS
  0
LAYER
  2
SD-MAIN
 70
     0
 62
     5
  6
CONTINUOUS
  0
ENDTAB
  0
ENDSEC
  0
SECTION
  2
ENTITIES
  0
POLYLINE
  8
W-MAIN
 66
     1
 10
0.000
 20
0.000
 30
0.000
 70
     8
  0
VERTEX
  8
W-MAIN
 10
1321044.882
 20
530842.142
 30
37.421
 70
32
  0
VERTEX
  8
W-MAIN
 10
1321119.361
 20
530842.194
 30
37.388
 70
32
  0
VERTEX
  8
W-MAIN
 10
1321194.245
 20
530842.218
 30
37.351
 70
32
  0
VERTEX
  8
W-MAIN
 10
1321269.887
 20
530842.234
 30
37.310
 70
32
  0
VERTEX
  8
W-MAIN
 10
1321344.771
 20
530842.260
 30
37.265
 70
32
  0
VERTEX
  8
W-MAIN
 10
1321420.125
 20
530842.285
 30
37.218
 70
32
  0
SEQEND
  8
W-MAIN
  0
POLYLINE
  8
SS-MAIN
 66
     1
 10
0.000
 20
0.000
 30
0.000
 70
     8
  0
VERTEX
  8
SS-MAIN
 10
1321049.220
 20
530838.840
 30
34.872
 70
32
  0
VERTEX
  8
SS-MAIN
 10
1321124.550
 20
530839.020
 30
34.801
 70
32
  0
VERTEX
  8
SS-MAIN
 10
1321199.860
 20
530839.210
 30
34.725
 70
32
  0
VERTEX
  8
SS-MAIN
 10
1321275.130
 20
530839.400
 30
34.643
 70
32
  0
VERTEX
  8
SS-MAIN
 10
1321350.480
 20
530839.590
 30
34.558
 70
32
  0
VERTEX
  8
SS-MAIN
 10
1321425.610
 20
530839.770
 30
34.469
 70
32
  0
SEQEND
  8
SS-MAIN
  0
POLYLINE
  8
SD-MAIN
 66
     1
 10
0.000
 20
0.000
 30
0.000
 70
     8
  0
VERTEX
  8
SD-MAIN
 10
1321050.880
 20
530800.120
 30
36.922
 70
32
  0
VERTEX
  8
SD-MAIN
 10
1321200.440
 20
530800.380
 30
36.850
 70
32
  0
VERTEX
  8
SD-MAIN
 10
1321350.050
 20
530800.610
 30
36.773
 70
32
  0
VERTEX
  8
SD-MAIN
 10
1321425.210
 20
530800.840
 30
36.733
 70
32
  0
SEQEND
  8
SD-MAIN
  0
ENDSEC
  0
EOF
