  0
SECTION
  2
HEADER
  9
$ACADVER
  1
AC1015
  9
$INSUNITS
 70
     2
  0
ENDSEC
  0
SECTION
  2
TABLES
  0
TABLE
  2
LAYER
 70
     6
  0
LAYER
  2
AS-BUILT-W
 70
     0
 62
     3
  6
CONTINUOUS
  0
LAYER
  2
AS-BUILT-SS
 70
     0
 62
     2
  6
CONTINUOUS
  0
LAYER
  2
AS-BUILT-SD
 70
     0
 62
     5
  6
CONTINUOUS
  0
LAYER
  2
STRUCTURES
 70
     0
 62
     7
  6
CONTINUOUS
  0
LAYER
  2
LABELS
 70
     0
 62
     7
  6
CONTINUOUS
  0
LAYER
  2
TITLE-BLOCK
 70
     0
 62
     7
  6
CONTINUOUS
  0
ENDTAB
  0
ENDSEC
  0
SECTION
  2
ENTITIES
; ── WATER MAIN (12" PVC C900 DR14) ─────────────────────────────────────
  0
LINE
  8
AS-BUILT-W
 10
1321044.882
 20
530842.142
 30
37.421
 11
1321119.361
 21
530842.194
 31
37.388
  0
LINE
  8
AS-BUILT-W
 10
1321119.361
 20
530842.194
 30
37.388
 11
1321194.245
 21
530842.218
 31
37.351
  0
LINE
  8
AS-BUILT-W
 10
1321194.245
 20
530842.218
 30
37.351
 11
1321269.887
 21
530842.234
 31
37.310
  0
LINE
  8
AS-BUILT-W
 10
1321269.887
 20
530842.234
 30
37.310
 11
1321344.771
 21
530842.260
 31
37.265
  0
LINE
  8
AS-BUILT-W
 10
1321344.771
 20
530842.260
 30
37.265
 11
1321420.125
 21
530842.285
 31
37.218
; ── SERVICE LATERALS ────────────────────────────────────────────────────
  0
LINE
  8
AS-BUILT-W
 10
1321069.440
 20
530878.320
 30
37.405
 11
1321069.520
 21
530900.115
 31
37.399
  0
LINE
  8
AS-BUILT-W
 10
1321144.210
 20
530878.320
 30
37.370
 11
1321144.300
 21
530900.115
 31
37.363
  0
LINE
  8
AS-BUILT-W
 10
1321219.080
 20
530878.320
 30
37.335
 11
1321219.160
 21
530900.115
 31
37.327
  0
LINE
  8
AS-BUILT-W
 10
1321294.530
 20
530878.320
 30
37.296
 11
1321294.610
 21
530900.115
 31
37.288
  0
LINE
  8
AS-BUILT-W
 10
1321369.300
 20
530878.320
 30
37.251
 11
1321369.380
 21
530900.115
 31
37.243
; ── FIRE HYDRANT LATERALS ───────────────────────────────────────────────
  0
LINE
  8
AS-BUILT-W
 10
1321157.650
 20
530807.010
 30
37.356
 11
1321157.680
 21
530784.500
 31
37.361
  0
LINE
  8
AS-BUILT-W
 10
1321307.420
 20
530807.010
 30
37.302
 11
1321307.440
 21
530784.500
 31
37.309
; ── SANITARY SEWER MAIN (8" PVC SDR35) ─────────────────────────────────
  0
LINE
  8
AS-BUILT-SS
 10
1321049.220
 20
530838.840
 30
34.872
 11
1321124.550
 21
530839.020
 31
34.801
  0
LINE
  8
AS-BUILT-SS
 10
1321124.550
 20
530839.020
 30
34.801
 11
1321199.860
 21
530839.210
 31
34.725
  0
LINE
  8
AS-BUILT-SS
 10
1321199.860
 20
530839.210
 30
34.725
 11
1321275.130
 21
530839.400
 31
34.643
  0
LINE
  8
AS-BUILT-SS
 10
1321275.130
 20
530839.400
 30
34.643
 11
1321350.480
 21
530839.590
 31
34.558
  0
LINE
  8
AS-BUILT-SS
 10
1321350.480
 20
530839.590
 30
34.558
 11
1321425.610
 21
530839.770
 31
34.469
; ── SEWER LATERALS ──────────────────────────────────────────────────────
  0
LINE
  8
AS-BUILT-SS
 10
1321086.850
 20
530839.080
 30
34.838
 11
1321086.920
 21
530874.220
 31
34.832
  0
LINE
  8
AS-BUILT-SS
 10
1321162.180
 20
530839.300
 30
34.763
 11
1321162.250
 21
530874.440
 31
34.757
  0
LINE
  8
AS-BUILT-SS
 10
1321237.490
 20
530839.510
 30
34.684
 11
1321237.560
 21
530874.660
 31
34.678
  0
LINE
  8
AS-BUILT-SS
 10
1321312.800
 20
530839.730
 30
34.601
 11
1321312.870
 21
530874.980
 31
34.595
  0
LINE
  8
AS-BUILT-SS
 10
1321388.040
 20
530839.940
 30
34.514
 11
1321388.110
 21
530875.200
 31
34.508
; ── STORM DRAIN (18" RCP CL3) ───────────────────────────────────────────
  0
LINE
  8
AS-BUILT-SD
 10
1321050.880
 20
530800.120
 30
36.922
 11
1321200.440
 21
530800.380
 31
36.850
  0
LINE
  8
AS-BUILT-SD
 10
1321200.440
 20
530800.380
 30
36.850
 11
1321350.050
 21
530800.610
 31
36.773
  0
LINE
  8
AS-BUILT-SD
 10
1321350.050
 20
530800.610
 30
36.773
 11
1321425.210
 21
530800.840
 31
36.733
  0
LINE
  8
AS-BUILT-SD
 10
1321050.910
 20
530785.440
 30
36.918
 11
1321200.470
 21
530785.720
 31
36.845
  0
LINE
  8
AS-BUILT-SD
 10
1321200.470
 20
530785.720
 30
36.845
 11
1321350.080
 21
530786.000
 31
36.770
  0
LINE
  8
AS-BUILT-SD
 10
1321350.080
 20
530786.000
 30
36.770
 11
1321425.240
 21
530786.280
 31
36.730
; ── MANHOLE CIRCLES ─────────────────────────────────────────────────────
  0
CIRCLE
  8
STRUCTURES
 10
1321049.220
 20
530838.840
 30
34.872
 40
2.500
  0
CIRCLE
  8
STRUCTURES
 10
1321124.550
 20
530839.020
 30
34.801
 40
2.500
  0
CIRCLE
  8
STRUCTURES
 10
1321199.860
 20
530839.210
 30
34.725
 40
2.500
  0
CIRCLE
  8
STRUCTURES
 10
1321275.130
 20
530839.400
 30
34.643
 40
2.500
  0
CIRCLE
  8
STRUCTURES
 10
1321350.480
 20
530839.590
 30
34.558
 40
2.500
  0
CIRCLE
  8
STRUCTURES
 10
1321425.610
 20
530839.770
 30
34.469
 40
2.500
; ── TITLE BLOCK TEXT ────────────────────────────────────────────────────
  0
TEXT
  8
TITLE-BLOCK
 10
1321000.000
 20
530760.000
 30
0.000
 40
4.000
  1
JEA WATER/SEWER/STORM AS-BUILT  -  AVAILABILITY W-04471
  0
TEXT
  8
TITLE-BLOCK
 10
1321000.000
 20
530752.000
 30
0.000
 40
2.500
  1
Oakridge Subdivision Phase 1B  |  4800-4900 Oakridge Blvd  |  RCS Enterprise v2.3  |  04/12/2025
  0
ENDSEC
  0
EOF
