0
SECTION
2
HEADER
9
$ACADVER
1
AC1009
0
ENDSEC
0
SECTION
2
BLOCKS
0
BLOCK
8
0
2
MANHOLE
70
0
10
0.0
20
0.0
30
0.0
0
CIRCLE
8
0
10
0.0000
20
0.0000
40
1.0000
0
TEXT
8
0
10
0.0000
20
0.0000
40
0.8000
1
M
0
ENDBLK
0
BLOCK
8
0
2
VALVE
70
0
10
0.0
20
0.0
30
0.0
0
LINE
8
0
10
-0.5000
20
-0.5000
11
0.5000
21
0.5000
0
LINE
8
0
10
-0.5000
20
0.5000
11
0.5000
21
-0.5000
0
LINE
8
0
10
-0.5000
20
-0.5000
11
-0.5000
21
0.5000
0
LINE
8
0
10
0.5000
20
-0.5000
11
0.5000
21
0.5000
0
ENDBLK
0
BLOCK
8
0
2
HYDRANT
70
0
10
0.0
20
0.0
30
0.0
0
CIRCLE
8
0
10
0.0000
20
0.0000
40
0.8000
0
LINE
8
0
10
-0.8000
20
0.0000
11
0.8000
21
0.0000
0
LINE
8
0
10
0.0000
20
-0.8000
11
0.0000
21
0.8000
0
ENDBLK
0
BLOCK
8
0
2
METER
70
0
10
0.0
20
0.0
30
0.0
0
LINE
8
0
10
-1.0000
20
-1.0000
11
1.0000
21
-1.0000
0
LINE
8
0
10
1.0000
20
-1.0000
11
1.0000
21
1.0000
0
LINE
8
0
10
1.0000
20
1.0000
11
-1.0000
21
1.0000
0
LINE
8
0
10
-1.0000
20
1.0000
11
-1.0000
21
-1.0000
0
TEXT
8
0
10
0.0000
20
0.0000
40
0.6000
1
Mtr
0
ENDBLK
0
BLOCK
8
0
2
BOX
70
0
10
0.0
20
0.0
30
0.0
0
LINE
8
0
10
-1.5000
20
-1.5000
11
1.5000
21
-1.5000
0
LINE
8
0
10
1.5000
20
-1.5000
11
1.5000
21
1.5000
0
LINE
8
0
10
1.5000
20
1.5000
11
-1.5000
21
1.5000
0
LINE
8
0
10
-1.5000
20
1.5000
11
-1.5000
21
-1.5000
0
LINE
8
0
10
-1.5000
20
-1.5000
11
1.5000
21
1.5000
0
LINE
8
0
10
-1.5000
20
1.5000
11
1.5000
21
-1.5000
0
ENDBLK
0
BLOCK
8
0
2
POLE
70
0
10
0.0
20
0.0
30
0.0
0
CIRCLE
8
0
10
0.0000
20
0.0000
40
0.5000
0
TEXT
8
0
10
0.0000
20
0.0000
40
0.4000
1
P
0
ENDBLK
0
BLOCK
8
0
2
FITTING
70
0
10
0.0
20
0.0
30
0.0
0
LINE
8
0
10
-0.5000
20
0.0000
11
0.5000
21
0.0000
0
LINE
8
0
10
0.0000
20
-0.5000
11
0.0000
21
0.5000
0
ENDBLK
0
ENDSEC
0
SECTION
2
ENTITIES
0
POINT
8
POINTS
10
10000.0000
20
10000.0000
30
0.0000
0
TEXT
8
POINT_IDS
10
10001.0000
20
10001.0000
40
0.5000
1
1000
0
TEXT
8
POINT_DESC
10
10001.0000
20
9999.0000
40
0.4000
1
CL_NS0_EW0
0
POINT
8
POINTS
10
10000.0000
20
10320.0000
30
0.0000
0
TEXT
8
POINT_IDS
10
10001.0000
20
10321.0000
40
0.5000
1
1001
0
TEXT
8
POINT_DESC
10
10001.0000
20
10319.0000
40
0.4000
1
CL_NS0_EW1
0
POINT
8
POINTS
10
10000.0000
20
10640.0000
30
0.0000
0
TEXT
8
POINT_IDS
10
10001.0000
20
10641.0000
40
0.5000
1
1002
0
TEXT
8
POINT_DESC
10
10001.0000
20
10639.0000
40
0.4000
1
CL_NS0_EW2
0
POINT
8
POINTS
10
10000.0000
20
10960.0000
30
0.0000
0
TEXT
8
POINT_IDS
10
10001.0000
20
10961.0000
40
0.5000
1
1003
0
TEXT
8
POINT_DESC
10
10001.0000
20
10959.0000
40
0.4000
1
CL_NS0_EW3
0
POINT
8
POINTS
10
10000.0000
20
11280.0000
30
0.0000
0
TEXT
8
POINT_IDS
10
10001.0000
20
11281.0000
40
0.5000
1
1004
0
TEXT
8
POINT_DESC
10
10001.0000
20
11279.0000
40
0.4000
1
CL_NS0_EW4
0
POINT
8
POINTS
10
11060.0000
20
10000.0000
30
0.0000
0
TEXT
8
POINT_IDS
10
11061.0000
20
10001.0000
40
0.5000
1
1100
0
TEXT
8
POINT_DESC
10
11061.0000
20
9999.0000
40
0.4000
1
CL_NS1_EW0
0
POINT
8
POINTS
10
11060.0000
20
10320.0000
30
0.0000
0
TEXT
8
POINT_IDS
10
11061.0000
20
10321.0000
40
0.5000
1
1101
0
TEXT
8
POINT_DESC
10
11061.0000
20
10319.0000
40
0.4000
1
CL_NS1_EW1
0
POINT
8
POINTS
10
11060.0000
20
10640.0000
30
0.0000
0
TEXT
8
POINT_IDS
10
11061.0000
20
10641.0000
40
0.5000
1
1102
0
TEXT
8
POINT_DESC
10
11061.0000
20
10639.0000
40
0.4000
1
CL_NS1_EW2
0
POINT
8
POINTS
10
11060.0000
20
10960.0000
30
0.0000
0
TEXT
8
POINT_IDS
10
11061.0000
20
10961.0000
40
0.5000
1
1103
0
TEXT
8
POINT_DESC
10
11061.0000
20
10959.0000
40
0.4000
1
CL_NS1_EW3
0
POINT
8
POINTS
10
11060.0000
20
11280.0000
30
0.0000
0
TEXT
8
POINT_IDS
10
11061.0000
20
11281.0000
40
0.5000
1
1104
0
TEXT
8
POINT_DESC
10
11061.0000
20
11279.0000
40
0.4000
1
CL_NS1_EW4
0
POINT
8
POINTS
10
12120.0000
20
10000.0000
30
0.0000
0
TEXT
8
POINT_IDS
10
12121.0000
20
10001.0000
40
0.5000
1
1200
0
TEXT
8
POINT_DESC
10
12121.0000
20
9999.0000
40
0.4000
1
CL_NS2_EW0
0
POINT
8
POINTS
10
12120.0000
20
10320.0000
30
0.0000
0
TEXT
8
POINT_IDS
10
12121.0000
20
10321.0000
40
0.5000
1
1201
0
TEXT
8
POINT_DESC
10
12121.0000
20
10319.0000
40
0.4000
1
CL_NS2_EW1
0
POINT
8
POINTS
10
12120.0000
20
10640.0000
30
0.0000
0
TEXT
8
POINT_IDS
10
12121.0000
20
10641.0000
40
0.5000
1
1202
0
TEXT
8
POINT_DESC
10
12121.0000
20
10639.0000
40
0.4000
1
CL_NS2_EW2
0
POINT
8
POINTS
10
12120.0000
20
10960.0000
30
0.0000
0
TEXT
8
POINT_IDS
10
12121.0000
20
10961.0000
40
0.5000
1
1203
0
TEXT
8
POINT_DESC
10
12121.0000
20
10959.0000
40
0.4000
1
CL_NS2_EW3
0
POINT
8
POINTS
10
12120.0000
20
11280.0000
30
0.0000
0
TEXT
8
POINT_IDS
10
12121.0000
20
11281.0000
40
0.5000
1
1204
0
TEXT
8
POINT_DESC
10
12121.0000
20
11279.0000
40
0.4000
1
CL_NS2_EW4
0
POINT
8
POINTS
10
10000.0000
20
10640.0000
30
6.9600
0
TEXT
8
POINT_IDS
10
10001.0000
20
10641.0000
40
0.5000
1
2200
0
TEXT
8
POINT_DESC
10
10001.0000
20
10639.0000
40
0.4000
1
WWM
0
POINT
8
POINTS
10
11060.0000
20
10640.0000
30
2.7200
0
TEXT
8
POINT_IDS
10
11061.0000
20
10641.0000
40
0.5000
1
2201
0
TEXT
8
POINT_DESC
10
11061.0000
20
10639.0000
40
0.4000
1
WWM
0
POINT
8
POINTS
10
12120.0000
20
10640.0000
30
-1.5200
0
TEXT
8
POINT_IDS
10
12121.0000
20
10641.0000
40
0.5000
1
2202
0
TEXT
8
POINT_DESC
10
12121.0000
20
10639.0000
40
0.4000
1
WWM
0
POINT
8
POINTS
10
13180.0000
20
10640.0000
30
-5.7600
0
TEXT
8
POINT_IDS
10
13181.0000
20
10641.0000
40
0.5000
1
2203
0
TEXT
8
POINT_DESC
10
13181.0000
20
10639.0000
40
0.4000
1
WWM
0
POINT
8
POINTS
10
14240.0000
20
10640.0000
30
-10.0000
0
TEXT
8
POINT_IDS
10
14241.0000
20
10641.0000
40
0.5000
1
2204
0
TEXT
8
POINT_DESC
10
14241.0000
20
10639.0000
40
0.4000
1
WWM
0
POINT
8
POINTS
10
14240.0000
20
10000.0000
30
-11.4100
0
TEXT
8
POINT_IDS
10
14241.0000
20
10001.0000
40
0.5000
1
2301
0
TEXT
8
POINT_DESC
10
14241.0000
20
9999.0000
40
0.4000
1
WWM
0
POINT
8
POINTS
10
15300.0000
20
10000.0000
30
-13.7400
0
TEXT
8
POINT_IDS
10
15301.0000
20
10001.0000
40
0.5000
1
2302
0
TEXT
8
POINT_DESC
10
15301.0000
20
9999.0000
40
0.4000
1
WWM
0
POINT
8
POINTS
10
10000.0000
20
10000.0000
30
0.0000
0
TEXT
8
POINT_IDS
10
10001.0000
20
10001.0000
40
0.5000
1
2000
0
TEXT
8
POINT_DESC
10
10001.0000
20
9999.0000
40
0.4000
1
WM
0
POINT
8
POINTS
10
15300.0000
20
10000.0000
30
0.0000
0
TEXT
8
POINT_IDS
10
15301.0000
20
10001.0000
40
0.5000
1
2001
0
TEXT
8
POINT_DESC
10
15301.0000
20
9999.0000
40
0.4000
1
WM
0
POINT
8
POINTS
10
15300.0000
20
11280.0000
30
0.0000
0
TEXT
8
POINT_IDS
10
15301.0000
20
11281.0000
40
0.5000
1
2002
0
TEXT
8
POINT_DESC
10
15301.0000
20
11279.0000
40
0.4000
1
WM
0
POINT
8
POINTS
10
10000.0000
20
11280.0000
30
0.0000
0
TEXT
8
POINT_IDS
10
10001.0000
20
11281.0000
40
0.5000
1
2003
0
TEXT
8
POINT_DESC
10
10001.0000
20
11279.0000
40
0.4000
1
WM
0
POINT
8
POINTS
10
12120.0000
20
10000.0000
30
0.0000
0
TEXT
8
POINT_IDS
10
12121.0000
20
10001.0000
40
0.5000
1
2004
0
TEXT
8
POINT_DESC
10
12121.0000
20
9999.0000
40
0.4000
1
WM
0
POINT
8
POINTS
10
12120.0000
20
11280.0000
30
0.0000
0
TEXT
8
POINT_IDS
10
12121.0000
20
11281.0000
40
0.5000
1
2005
0
TEXT
8
POINT_DESC
10
12121.0000
20
11279.0000
40
0.4000
1
WM
0
POINT
8
POINTS
10
14240.0000
20
10000.0000
30
0.0000
0
TEXT
8
POINT_IDS
10
14241.0000
20
10001.0000
40
0.5000
1
2006
0
TEXT
8
POINT_DESC
10
14241.0000
20
9999.0000
40
0.4000
1
WM
0
POINT
8
POINTS
10
14240.0000
20
11280.0000
30
0.0000
0
TEXT
8
POINT_IDS
10
14241.0000
20
11281.0000
40
0.5000
1
2007
0
TEXT
8
POINT_DESC
10
14241.0000
20
11279.0000
40
0.4000
1
WM
0
POINT
8
POINTS
10
10000.0000
20
10640.0000
30
0.0000
0
TEXT
8
POINT_IDS
10
10001.0000
20
10641.0000
40
0.5000
1
2010
0
TEXT
8
POINT_DESC
10
10001.0000
20
10639.0000
40
0.4000
1
HYD
0
POINT
8
POINTS
10
10530.0000
20
10640.0000
30
0.0000
0
TEXT
8
POINT_IDS
10
10531.0000
20
10641.0000
40
0.5000
1
2011
0
TEXT
8
POINT_DESC
10
10531.0000
20
10639.0000
40
0.4000
1
HYD
0
POINT
8
POINTS
10
11060.0000
20
10640.0000
30
0.0000
0
TEXT
8
POINT_IDS
10
11061.0000
20
10641.0000
40
0.5000
1
2012
0
TEXT
8
POINT_DESC
10
11061.0000
20
10639.0000
40
0.4000
1
HYD
0
POINT
8
POINTS
10
11590.0000
20
10640.0000
30
0.0000
0
TEXT
8
POINT_IDS
10
11591.0000
20
10641.0000
40
0.5000
1
2013
0
TEXT
8
POINT_DESC
10
11591.0000
20
10639.0000
40
0.4000
1
HYD
0
POINT
8
POINTS
10
12120.0000
20
10640.0000
30
0.0000
0
TEXT
8
POINT_IDS
10
12121.0000
20
10641.0000
40
0.5000
1
2014
0
TEXT
8
POINT_DESC
10
12121.0000
20
10639.0000
40
0.4000
1
HYD
0
POINT
8
POINTS
10
12120.0000
20
10620.0000
30
0.0000
0
TEXT
8
POINT_IDS
10
12121.0000
20
10621.0000
40
0.5000
1
2020
0
TEXT
8
POINT_DESC
10
12121.0000
20
10619.0000
40
0.4000
1
WV
0
POINT
8
POINTS
10
12120.0000
20
10660.0000
30
0.0000
0
TEXT
8
POINT_IDS
10
12121.0000
20
10661.0000
40
0.5000
1
2021
0
TEXT
8
POINT_DESC
10
12121.0000
20
10659.0000
40
0.4000
1
WV
0
POINT
8
POINTS
10
12100.0000
20
10640.0000
30
0.0000
0
TEXT
8
POINT_IDS
10
12101.0000
20
10641.0000
40
0.5000
1
2022
0
TEXT
8
POINT_DESC
10
12101.0000
20
10639.0000
40
0.4000
1
WV
0
POINT
8
POINTS
10
12140.0000
20
10640.0000
30
0.0000
0
TEXT
8
POINT_IDS
10
12141.0000
20
10641.0000
40
0.5000
1
2023
0
TEXT
8
POINT_DESC
10
12141.0000
20
10639.0000
40
0.4000
1
WV
0
POINT
8
POINTS
10
11095.0000
20
10610.0000
30
0.0000
0
TEXT
8
POINT_IDS
10
11096.0000
20
10611.0000
40
0.5000
1
2030
0
TEXT
8
POINT_DESC
10
11096.0000
20
10609.0000
40
0.4000
1
WMET
0
POINT
8
POINTS
10
11145.0000
20
10610.0000
30
0.0000
0
TEXT
8
POINT_IDS
10
11146.0000
20
10611.0000
40
0.5000
1
2031
0
TEXT
8
POINT_DESC
10
11146.0000
20
10609.0000
40
0.4000
1
WMET
0
POINT
8
POINTS
10
11195.0000
20
10610.0000
30
0.0000
0
TEXT
8
POINT_IDS
10
11196.0000
20
10611.0000
40
0.5000
1
2032
0
TEXT
8
POINT_DESC
10
11196.0000
20
10609.0000
40
0.4000
1
WMET
0
POINT
8
POINTS
10
11245.0000
20
10610.0000
30
0.0000
0
TEXT
8
POINT_IDS
10
11246.0000
20
10611.0000
40
0.5000
1
2033
0
TEXT
8
POINT_DESC
10
11246.0000
20
10609.0000
40
0.4000
1
WMET
0
POINT
8
POINTS
10
11295.0000
20
10610.0000
30
0.0000
0
TEXT
8
POINT_IDS
10
11296.0000
20
10611.0000
40
0.5000
1
2034
0
TEXT
8
POINT_DESC
10
11296.0000
20
10609.0000
40
0.4000
1
WMET
0
POINT
8
POINTS
10
10000.0000
20
10660.0000
30
0.0000
0
TEXT
8
POINT_IDS
10
10001.0000
20
10661.0000
40
0.5000
1
6000
0
TEXT
8
POINT_DESC
10
10001.0000
20
10659.0000
40
0.4000
1
EPOLE
0
POINT
8
POINTS
10
10250.0000
20
10660.0000
30
0.0000
0
TEXT
8
POINT_IDS
10
10251.0000
20
10661.0000
40
0.5000
1
6001
0
TEXT
8
POINT_DESC
10
10251.0000
20
10659.0000
40
0.4000
1
EPOLE
0
POINT
8
POINTS
10
10500.0000
20
10660.0000
30
0.0000
0
TEXT
8
POINT_IDS
10
10501.0000
20
10661.0000
40
0.5000
1
6002
0
TEXT
8
POINT_DESC
10
10501.0000
20
10659.0000
40
0.4000
1
EPOLE
0
POINT
8
POINTS
10
10750.0000
20
10660.0000
30
0.0000
0
TEXT
8
POINT_IDS
10
10751.0000
20
10661.0000
40
0.5000
1
6003
0
TEXT
8
POINT_DESC
10
10751.0000
20
10659.0000
40
0.4000
1
EPOLE
0
POINT
8
POINTS
10
11060.0000
20
10660.0000
30
0.0000
0
TEXT
8
POINT_IDS
10
11061.0000
20
10661.0000
40
0.5000
1
6004
0
TEXT
8
POINT_DESC
10
11061.0000
20
10659.0000
40
0.4000
1
EPOLE
0
POINT
8
POINTS
10
10125.0000
20
10660.0000
30
0.0000
0
TEXT
8
POINT_IDS
10
10126.0000
20
10661.0000
40
0.5000
1
6010
0
TEXT
8
POINT_DESC
10
10126.0000
20
10659.0000
40
0.4000
1
EBOX
0
POINT
8
POINTS
10
10625.0000
20
10660.0000
30
0.0000
0
TEXT
8
POINT_IDS
10
10626.0000
20
10661.0000
40
0.5000
1
6011
0
TEXT
8
POINT_DESC
10
10626.0000
20
10659.0000
40
0.4000
1
EBOX
0
POINT
8
POINTS
10
10000.0000
20
10630.0000
30
0.0000
0
TEXT
8
POINT_IDS
10
10001.0000
20
10631.0000
40
0.5000
1
4000
0
TEXT
8
POINT_DESC
10
10001.0000
20
10629.0000
40
0.4000
1
GAS
0
POINT
8
POINTS
10
11060.0000
20
10630.0000
30
0.0000
0
TEXT
8
POINT_IDS
10
11061.0000
20
10631.0000
40
0.5000
1
4001
0
TEXT
8
POINT_DESC
10
11061.0000
20
10629.0000
40
0.4000
1
GAS
0
POINT
8
POINTS
10
12120.0000
20
10630.0000
30
0.0000
0
TEXT
8
POINT_IDS
10
12121.0000
20
10631.0000
40
0.5000
1
4002
0
TEXT
8
POINT_DESC
10
12121.0000
20
10629.0000
40
0.4000
1
GAS
0
POINT
8
POINTS
10
13180.0000
20
10630.0000
30
0.0000
0
TEXT
8
POINT_IDS
10
13181.0000
20
10631.0000
40
0.5000
1
4003
0
TEXT
8
POINT_DESC
10
13181.0000
20
10629.0000
40
0.4000
1
GAS
0
POINT
8
POINTS
10
14240.0000
20
10630.0000
30
0.0000
0
TEXT
8
POINT_IDS
10
14241.0000
20
10631.0000
40
0.5000
1
4004
0
TEXT
8
POINT_DESC
10
14241.0000
20
10629.0000
40
0.4000
1
GAS
0
POINT
8
POINTS
10
11100.0000
20
10610.0000
30
0.0000
0
TEXT
8
POINT_IDS
10
11101.0000
20
10611.0000
40
0.5000
1
4010
0
TEXT
8
POINT_DESC
10
11101.0000
20
10609.0000
40
0.4000
1
GMET
0
POINT
8
POINTS
10
11150.0000
20
10610.0000
30
0.0000
0
TEXT
8
POINT_IDS
10
11151.0000
20
10611.0000
40
0.5000
1
4011
0
TEXT
8
POINT_DESC
10
11151.0000
20
10609.0000
40
0.4000
1
GMET
0
POINT
8
POINTS
10
11200.0000
20
10610.0000
30
0.0000
0
TEXT
8
POINT_IDS
10
11201.0000
20
10611.0000
40
0.5000
1
4012
0
TEXT
8
POINT_DESC
10
11201.0000
20
10609.0000
40
0.4000
1
GMET
0
POINT
8
POINTS
10
11250.0000
20
10610.0000
30
0.0000
0
TEXT
8
POINT_IDS
10
11251.0000
20
10611.0000
40
0.5000
1
4013
0
TEXT
8
POINT_DESC
10
11251.0000
20
10609.0000
40
0.4000
1
GMET
0
POINT
8
POINTS
10
0.0000
20
0.0000
30
0.0000
0
TEXT
8
POINT_IDS
10
1.0000
20
1.0000
40
0.5000
1
9999
0
TEXT
8
POINT_DESC
10
1.0000
20
-1.0000
40
0.4000
1
DONE
0
LINE
8
FIGURES
10
10000.0000
20
10000.0000
11
12120.0000
21
10000.0000
0
LINE
8
FIGURES
10
12120.0000
20
10000.0000
11
14240.0000
21
10000.0000
0
LINE
8
FIGURES
10
14240.0000
20
10000.0000
11
15300.0000
21
10000.0000
0
LINE
8
FIGURES
10
15300.0000
20
10000.0000
11
15300.0000
21
11280.0000
0
LINE
8
FIGURES
10
15300.0000
20
11280.0000
11
14240.0000
21
11280.0000
0
LINE
8
FIGURES
10
14240.0000
20
11280.0000
11
12120.0000
21
11280.0000
0
LINE
8
FIGURES
10
12120.0000
20
11280.0000
11
10000.0000
21
11280.0000
0
LINE
8
FIGURES
10
10000.0000
20
11280.0000
11
10000.0000
21
10000.0000
0
LINE
8
FIGURES
10
12120.0000
20
10000.0000
11
12120.0000
21
11280.0000
0
LINE
8
FIGURES
10
14240.0000
20
10000.0000
11
14240.0000
21
11280.0000
0
LINE
8
FIGURES
10
10000.0000
20
10640.0000
11
10530.0000
21
10640.0000
0
LINE
8
FIGURES
10
10530.0000
20
10640.0000
11
11060.0000
21
10640.0000
0
LINE
8
FIGURES
10
11060.0000
20
10640.0000
11
11590.0000
21
10640.0000
0
LINE
8
FIGURES
10
11590.0000
20
10640.0000
11
12100.0000
21
10640.0000
0
LINE
8
FIGURES
10
10000.0000
20
10660.0000
11
10250.0000
21
10660.0000
0
LINE
8
FIGURES
10
10250.0000
20
10660.0000
11
10500.0000
21
10660.0000
0
LINE
8
FIGURES
10
10500.0000
20
10660.0000
11
10750.0000
21
10660.0000
0
LINE
8
FIGURES
10
10750.0000
20
10660.0000
11
11060.0000
21
10660.0000
0
LINE
8
FIGURES
10
10000.0000
20
10630.0000
11
11060.0000
21
10630.0000
0
LINE
8
FIGURES
10
11060.0000
20
10630.0000
11
12120.0000
21
10630.0000
0
LINE
8
FIGURES
10
12120.0000
20
10630.0000
11
13180.0000
21
10630.0000
0
LINE
8
FIGURES
10
13180.0000
20
10630.0000
11
14240.0000
21
10630.0000
0
LINE
8
FIGURES
10
10000.0000
20
10640.0000
11
11060.0000
21
10640.0000
0
LINE
8
FIGURES
10
11060.0000
20
10640.0000
11
11060.0000
21
10640.0000
0
LINE
8
FIGURES
10
11060.0000
20
10640.0000
11
12120.0000
21
10640.0000
0
LINE
8
PIPE_W_12_PVC
10
10000.0000
20
10000.0000
11
12120.0000
21
10000.0000
0
TEXT
8
PIPE_W_12_PVC_TEXT
10
11060.0000
20
10000.0000
40
1.5000
1
12" PVC W
0
LINE
8
PIPE_W_12_PVC
10
12120.0000
20
10000.0000
11
14240.0000
21
10000.0000
0
TEXT
8
PIPE_W_12_PVC_TEXT
10
13180.0000
20
10000.0000
40
1.5000
1
12" PVC W
0
LINE
8
PIPE_W_12_PVC
10
14240.0000
20
10000.0000
11
15300.0000
21
10000.0000
0
TEXT
8
PIPE_W_12_PVC_TEXT
10
14770.0000
20
10000.0000
40
1.5000
1
12" PVC W
0
LINE
8
PIPE_W_12_PVC
10
15300.0000
20
10000.0000
11
15300.0000
21
11280.0000
0
TEXT
8
PIPE_W_12_PVC_TEXT
10
15300.0000
20
10640.0000
40
1.5000
1
12" PVC W
0
LINE
8
PIPE_W_12_PVC
10
15300.0000
20
11280.0000
11
14240.0000
21
11280.0000
0
TEXT
8
PIPE_W_12_PVC_TEXT
10
14770.0000
20
11280.0000
40
1.5000
1
12" PVC W
0
LINE
8
PIPE_W_12_PVC
10
14240.0000
20
11280.0000
11
12120.0000
21
11280.0000
0
TEXT
8
PIPE_W_12_PVC_TEXT
10
13180.0000
20
11280.0000
40
1.5000
1
12" PVC W
0
LINE
8
PIPE_W_12_PVC
10
12120.0000
20
11280.0000
11
10000.0000
21
11280.0000
0
TEXT
8
PIPE_W_12_PVC_TEXT
10
11060.0000
20
11280.0000
40
1.5000
1
12" PVC W
0
LINE
8
PIPE_W_12_PVC
10
10000.0000
20
11280.0000
11
10000.0000
21
10000.0000
0
TEXT
8
PIPE_W_12_PVC_TEXT
10
10000.0000
20
10640.0000
40
1.5000
1
12" PVC W
0
LINE
8
PIPE_W_12_PVC
10
12120.0000
20
10000.0000
11
12120.0000
21
11280.0000
0
TEXT
8
PIPE_W_12_PVC_TEXT
10
12120.0000
20
10640.0000
40
1.5000
1
12" PVC W
0
LINE
8
PIPE_W_12_PVC
10
14240.0000
20
10000.0000
11
14240.0000
21
11280.0000
0
TEXT
8
PIPE_W_12_PVC_TEXT
10
14240.0000
20
10640.0000
40
1.5000
1
12" PVC W
0
LINE
8
PIPE_W_8_PVC
10
10000.0000
20
10640.0000
11
10530.0000
21
10640.0000
0
TEXT
8
PIPE_W_8_PVC_TEXT
10
10265.0000
20
10640.0000
40
1.5000
1
8" PVC W
0
LINE
8
PIPE_W_8_PVC
10
10530.0000
20
10640.0000
11
11060.0000
21
10640.0000
0
TEXT
8
PIPE_W_8_PVC_TEXT
10
10795.0000
20
10640.0000
40
1.5000
1
8" PVC W
0
LINE
8
PIPE_W_8_PVC
10
11060.0000
20
10640.0000
11
11590.0000
21
10640.0000
0
TEXT
8
PIPE_W_8_PVC_TEXT
10
11325.0000
20
10640.0000
40
1.5000
1
8" PVC W
0
LINE
8
PIPE_W_8_PVC
10
11590.0000
20
10640.0000
11
12100.0000
21
10640.0000
0
TEXT
8
PIPE_W_8_PVC_TEXT
10
11845.0000
20
10640.0000
40
1.5000
1
8" PVC W
0
LINE
8
PIPE_E_0_NONE
10
10000.0000
20
10660.0000
11
10250.0000
21
10660.0000
0
TEXT
8
PIPE_E_0_NONE_TEXT
10
10125.0000
20
10660.0000
40
1.5000
1
0" NONE E
0
LINE
8
PIPE_E_0_NONE
10
10250.0000
20
10660.0000
11
10500.0000
21
10660.0000
0
TEXT
8
PIPE_E_0_NONE_TEXT
10
10375.0000
20
10660.0000
40
1.5000
1
0" NONE E
0
LINE
8
PIPE_E_0_NONE
10
10500.0000
20
10660.0000
11
10750.0000
21
10660.0000
0
TEXT
8
PIPE_E_0_NONE_TEXT
10
10625.0000
20
10660.0000
40
1.5000
1
0" NONE E
0
LINE
8
PIPE_E_0_NONE
10
10750.0000
20
10660.0000
11
11060.0000
21
10660.0000
0
TEXT
8
PIPE_E_0_NONE_TEXT
10
10905.0000
20
10660.0000
40
1.5000
1
0" NONE E
0
LINE
8
PIPE_G_4_PE
10
10000.0000
20
10630.0000
11
11060.0000
21
10630.0000
0
TEXT
8
PIPE_G_4_PE_TEXT
10
10530.0000
20
10630.0000
40
1.5000
1
4" PE G
0
LINE
8
PIPE_G_4_PE
10
11060.0000
20
10630.0000
11
12120.0000
21
10630.0000
0
TEXT
8
PIPE_G_4_PE_TEXT
10
11590.0000
20
10630.0000
40
1.5000
1
4" PE G
0
LINE
8
PIPE_G_4_PE
10
12120.0000
20
10630.0000
11
13180.0000
21
10630.0000
0
TEXT
8
PIPE_G_4_PE_TEXT
10
12650.0000
20
10630.0000
40
1.5000
1
4" PE G
0
LINE
8
PIPE_G_4_PE
10
13180.0000
20
10630.0000
11
14240.0000
21
10630.0000
0
TEXT
8
PIPE_G_4_PE_TEXT
10
13710.0000
20
10630.0000
40
1.5000
1
4" PE G
0
INSERT
8
STRUCT_WW
2
MANHOLE
10
10000.0000
20
10640.0000
41
1.0000
42
1.0000
43
1.0000
0
INSERT
8
STRUCT_WWM
2
MANHOLE
10
11060.0000
20
10640.0000
41
1.0000
42
1.0000
43
1.0000
0
INSERT
8
STRUCT_WWM
2
MANHOLE
10
12120.0000
20
10640.0000
41
1.0000
42
1.0000
43
1.0000
0
INSERT
8
STRUCT_WWM
2
MANHOLE
10
13180.0000
20
10640.0000
41
1.0000
42
1.0000
43
1.0000
0
INSERT
8
STRUCT_WWM
2
MANHOLE
10
14240.0000
20
10640.0000
41
1.0000
42
1.0000
43
1.0000
0
INSERT
8
STRUCT_WWM
2
MANHOLE
10
14240.0000
20
10000.0000
41
1.0000
42
1.0000
43
1.0000
0
INSERT
8
STRUCT_WWM
2
MANHOLE
10
15300.0000
20
10000.0000
41
1.0000
42
1.0000
43
1.0000
0
INSERT
8
STRUCT_W
2
MANHOLE
10
10000.0000
20
10000.0000
41
1.0000
42
1.0000
43
1.0000
0
INSERT
8
STRUCT_WM
2
MANHOLE
10
12120.0000
20
10000.0000
41
1.0000
42
1.0000
43
1.0000
0
INSERT
8
STRUCT_WM
2
MANHOLE
10
14240.0000
20
10000.0000
41
1.0000
42
1.0000
43
1.0000
0
INSERT
8
STRUCT_WM
2
MANHOLE
10
15300.0000
20
10000.0000
41
1.0000
42
1.0000
43
1.0000
0
INSERT
8
STRUCT_WM
2
MANHOLE
10
15300.0000
20
11280.0000
41
1.0000
42
1.0000
43
1.0000
0
INSERT
8
STRUCT_WM
2
MANHOLE
10
14240.0000
20
11280.0000
41
1.0000
42
1.0000
43
1.0000
0
INSERT
8
STRUCT_WM
2
MANHOLE
10
12120.0000
20
11280.0000
41
1.0000
42
1.0000
43
1.0000
0
INSERT
8
STRUCT_WM
2
MANHOLE
10
10000.0000
20
11280.0000
41
1.0000
42
1.0000
43
1.0000
0
INSERT
8
STRUCT_W
2
MANHOLE
10
10000.0000
20
10640.0000
41
1.0000
42
1.0000
43
1.0000
0
INSERT
8
STRUCT_HYD
2
HYDRANT
10
10530.0000
20
10640.0000
41
1.0000
42
1.0000
43
1.0000
0
INSERT
8
STRUCT_HYD
2
HYDRANT
10
11060.0000
20
10640.0000
41
1.0000
42
1.0000
43
1.0000
0
INSERT
8
STRUCT_HYD
2
HYDRANT
10
11590.0000
20
10640.0000
41
1.0000
42
1.0000
43
1.0000
0
INSERT
8
STRUCT_WV
2
VALVE
10
12100.0000
20
10640.0000
41
1.0000
42
1.0000
43
1.0000
0
INSERT
8
STRUCT_E
2
MANHOLE
10
10000.0000
20
10660.0000
41
1.0000
42
1.0000
43
1.0000
0
INSERT
8
STRUCT_EPOLE
2
POLE
10
10250.0000
20
10660.0000
41
1.0000
42
1.0000
43
1.0000
0
INSERT
8
STRUCT_EPOLE
2
POLE
10
10500.0000
20
10660.0000
41
1.0000
42
1.0000
43
1.0000
0
INSERT
8
STRUCT_EPOLE
2
POLE
10
10750.0000
20
10660.0000
41
1.0000
42
1.0000
43
1.0000
0
INSERT
8
STRUCT_EPOLE
2
POLE
10
11060.0000
20
10660.0000
41
1.0000
42
1.0000
43
1.0000
0
INSERT
8
STRUCT_EBOX
2
BOX
10
10125.0000
20
10660.0000
41
1.0000
42
1.0000
43
1.0000
0
INSERT
8
STRUCT_EBOX
2
BOX
10
10625.0000
20
10660.0000
41
1.0000
42
1.0000
43
1.0000
0
INSERT
8
STRUCT_G
2
MANHOLE
10
10000.0000
20
10630.0000
41
1.0000
42
1.0000
43
1.0000
0
INSERT
8
STRUCT_GAS
2
MANHOLE
10
11060.0000
20
10630.0000
41
1.0000
42
1.0000
43
1.0000
0
INSERT
8
STRUCT_GAS
2
MANHOLE
10
12120.0000
20
10630.0000
41
1.0000
42
1.0000
43
1.0000
0
INSERT
8
STRUCT_GAS
2
MANHOLE
10
13180.0000
20
10630.0000
41
1.0000
42
1.0000
43
1.0000
0
INSERT
8
STRUCT_GAS
2
MANHOLE
10
14240.0000
20
10630.0000
41
1.0000
42
1.0000
43
1.0000
0
INSERT
8
STRUCT_GMET
2
METER
10
11100.0000
20
10610.0000
41
1.0000
42
1.0000
43
1.0000
0
INSERT
8
STRUCT_GMET
2
METER
10
11150.0000
20
10610.0000
41
1.0000
42
1.0000
43
1.0000
0
INSERT
8
STRUCT_GMET
2
METER
10
11200.0000
20
10610.0000
41
1.0000
42
1.0000
43
1.0000
0
INSERT
8
STRUCT_GMET
2
METER
10
11250.0000
20
10610.0000
41
1.0000
42
1.0000
43
1.0000
0
ENDSEC
0
EOF
